<svg xmlns="http://www.w3.org/2000/svg" width="508" height="156" viewBox="0 0 508 156">
  <g id="Gruppe_8315" data-name="Gruppe 8315" transform="translate(-390 -453)">
    <path id="Pfad_1677" data-name="Pfad 1677" d="M69.809,54.961A20.134,20.134,0,0,1,79.4,38.069,20.609,20.609,0,0,0,63.159,29.29c-6.832-.717-13.455,4.088-16.936,4.088-3.548,0-8.909-4.017-14.681-3.9a21.625,21.625,0,0,0-18.2,11.1c-7.868,13.623-2,33.643,5.538,44.655,3.771,5.392,8.178,11.415,13.944,11.2,5.643-.234,7.751-3.6,14.562-3.6,6.749,0,8.726,3.6,14.61,3.463,6.055-.1,9.871-5.416,13.509-10.859a44.6,44.6,0,0,0,6.177-12.582,19.455,19.455,0,0,1-11.876-17.9ZM58.7,22.049a19.823,19.823,0,0,0,4.534-14.2A20.168,20.168,0,0,0,50.181,14.6a18.862,18.862,0,0,0-4.653,13.675A16.676,16.676,0,0,0,58.7,22.048Zm78.815,61.277H118.993l-4.447,13.131H106.7l17.541-48.583h8.149l17.54,48.583h-7.977Zm-16.6-6.06H135.59l-7.236-21.311h-.2Zm66.9,1.483c0,11.007-5.891,18.079-14.782,18.079a12.008,12.008,0,0,1-11.144-6.2h-.168v17.544h-7.271V61.036h7.038v5.891h.134A12.565,12.565,0,0,1,172.9,60.666c8.99,0,14.915,7.106,14.915,18.083Zm-7.473,0c0-7.171-3.706-11.886-9.36-11.886-5.555,0-9.292,4.814-9.292,11.885,0,7.137,3.736,11.917,9.292,11.917,5.654,0,9.36-4.68,9.36-11.917Zm46.46,0c0,11.007-5.893,18.079-14.784,18.079a12.008,12.008,0,0,1-11.144-6.2H200.7v17.544h-7.271V61.036h7.037v5.891h.134a12.564,12.564,0,0,1,11.278-6.262c8.99,0,14.917,7.106,14.917,18.083Zm-7.475,0c0-7.171-3.706-11.886-9.36-11.886-5.555,0-9.292,4.814-9.292,11.885,0,7.137,3.736,11.917,9.292,11.917,5.654,0,9.36-4.68,9.36-11.917Zm33.237,4.172c.539,4.818,5.219,7.981,11.614,7.981,6.128,0,10.537-3.163,10.537-7.508,0-3.771-2.659-6.029-8.955-7.576l-6.3-1.517C250.54,72.146,246.4,67.974,246.4,61.2c0-8.382,7.3-14.14,17.674-14.14,10.27,0,17.307,5.757,17.544,14.14h-7.339c-.439-4.848-4.447-7.775-10.3-7.775s-9.865,2.961-9.865,7.271c0,3.435,2.56,5.456,8.822,7l5.352,1.315c9.968,2.357,14.106,6.361,14.106,13.467,0,9.089-7.236,14.782-18.751,14.782-10.774,0-18.048-5.559-18.518-14.346Zm45.526-30.267v8.382h6.736v5.758h-6.736V86.321c0,3.034,1.349,4.447,4.31,4.447a22.719,22.719,0,0,0,2.392-.168v5.724a19.967,19.967,0,0,1-4.038.336c-7.171,0-9.968-2.693-9.968-9.563v-20.3h-5.15V61.036h5.15V52.654ZM308.72,78.749c0-11.145,6.564-18.148,16.8-18.148,10.27,0,16.8,7,16.8,18.148,0,11.175-6.5,18.147-16.8,18.147S308.72,89.924,308.72,78.749Zm26.194,0c0-7.645-3.5-12.157-9.395-12.157s-9.394,4.546-9.394,12.157c0,7.675,3.5,12.153,9.394,12.153S334.914,86.424,334.914,78.749Zm13.4-17.712h6.934v6.029h.168a8.448,8.448,0,0,1,8.52-6.4,11.212,11.212,0,0,1,2.491.271v6.8a10.163,10.163,0,0,0-3.267-.439,7.326,7.326,0,0,0-7.576,8.149V96.457h-7.271Zm51.635,25.017c-.978,6.43-7.24,10.843-15.251,10.843-10.3,0-16.7-6.9-16.7-17.98,0-11.11,6.43-18.316,16.394-18.316,9.8,0,15.962,6.732,15.962,17.471v2.491H375.339V81a9.225,9.225,0,0,0,9.529,10.033,8.013,8.013,0,0,0,8.18-4.982ZM375.373,75.482h17.708a8.518,8.518,0,0,0-8.688-8.99,8.967,8.967,0,0,0-9.021,8.99ZM120,11.306a10.327,10.327,0,0,1,10.984,11.6c0,7.458-4.031,11.745-10.984,11.745h-8.432V11.305ZM115.2,31.348h4.4a7.339,7.339,0,0,0,7.7-8.4,7.359,7.359,0,0,0-7.7-8.348h-4.4Zm19.886-5.515a8.346,8.346,0,1,1,16.615,0,8.347,8.347,0,1,1-16.615,0Zm13.04,0c0-3.819-1.716-6.052-4.726-6.052s-4.722,2.233-4.722,6.052c0,3.849,1.7,6.065,4.722,6.065S148.121,29.668,148.121,25.834Zm25.663,8.816h-3.607l-3.641-12.975h-.275L162.635,34.65h-3.572l-4.856-17.617h3.526l3.156,13.443h.26l3.622-13.443h3.335l3.622,13.443H172l3.14-13.443h3.477ZM182.7,17.033h3.347v2.8h.26a5.274,5.274,0,0,1,5.257-3.139,5.73,5.73,0,0,1,6.1,6.552v11.4h-3.477V24.118c0-2.831-1.23-4.239-3.8-4.239a4.041,4.041,0,0,0-4.206,4.464V34.65H182.7Zm20.5-6.877h3.476V34.65h-3.476Zm8.31,15.678a8.347,8.347,0,1,1,16.618,0,8.348,8.348,0,1,1-16.618,0Zm13.039,0c0-3.819-1.716-6.052-4.726-6.052s-4.722,2.233-4.722,6.052c0,3.849,1.7,6.065,4.722,6.065S224.555,29.668,224.555,25.834Zm7.238,3.834c0-3.171,2.361-5,6.552-5.259l4.772-.275V22.613c0-1.861-1.23-2.911-3.606-2.911-1.941,0-3.286.712-3.672,1.958h-3.366c.355-3.026,3.2-4.967,7.2-4.967,4.417,0,6.907,2.2,6.907,5.92V34.65h-3.347V32.174h-.275a5.927,5.927,0,0,1-5.291,2.766,5.322,5.322,0,0,1-5.872-5.272Zm11.324-1.505V26.689l-4.3.275c-2.426.162-3.526.988-3.526,2.541,0,1.586,1.376,2.509,3.267,2.509a4.153,4.153,0,0,0,4.562-3.851Zm8.031-2.329c0-5.567,2.861-9.093,7.312-9.093a5.806,5.806,0,0,1,5.4,3.091h.26V10.155H267.6V34.649h-3.331V31.866h-.275a6.114,6.114,0,0,1-5.532,3.074c-4.482,0-7.313-3.527-7.313-9.106Zm3.591,0c0,3.736,1.761,5.985,4.706,5.985s4.742-2.281,4.742-5.97c0-3.671-1.83-5.985-4.742-5.985S254.739,22.128,254.739,25.834Zm27.244,0a8.346,8.346,0,1,1,16.615,0,8.347,8.347,0,1,1-16.615,0Zm13.04,0c0-3.819-1.716-6.052-4.726-6.052s-4.722,2.233-4.722,6.052c0,3.849,1.7,6.065,4.722,6.065S295.023,29.668,295.023,25.834Zm8.241-8.8h3.347v2.8h.26a5.274,5.274,0,0,1,5.257-3.139,5.73,5.73,0,0,1,6.1,6.552v11.4h-3.477V24.118c0-2.831-1.23-4.239-3.8-4.239a4.041,4.041,0,0,0-4.206,4.464V34.65h-3.476Zm34.607-4.386v4.466h3.817v2.928h-3.817V29.1c0,1.845.76,2.654,2.491,2.654a11.608,11.608,0,0,0,1.325-.081v2.9a11.405,11.405,0,0,1-1.891.178c-3.866,0-5.406-1.36-5.406-4.757V20.042h-2.8V17.113h2.8V12.647Zm8.565-2.491h3.446v9.708h.275a5.421,5.421,0,0,1,5.371-3.156,5.8,5.8,0,0,1,6.067,6.568V34.65h-3.48V24.133c0-2.814-1.311-4.239-3.767-4.239a4.116,4.116,0,0,0-4.436,4.466V34.65h-3.477Zm35.432,19.737a7.152,7.152,0,0,1-7.634,5.1A8,8,0,0,1,366.1,25.9a8.125,8.125,0,0,1,8.123-9.2c4.9,0,7.859,3.349,7.859,8.881v1.213h-12.44v.195a4.656,4.656,0,0,0,4.692,5.047,4.222,4.222,0,0,0,4.191-2.136Zm-12.23-5.677h8.9a4.251,4.251,0,0,0-4.336-4.564,4.505,4.505,0,0,0-4.562,4.564Z" transform="translate(432.728 475.607)" fill="#fff"/>
    <g id="Rechteck_505" data-name="Rechteck 505" transform="translate(390 453)" fill="none" stroke="#fff" stroke-width="3">
      <rect width="508" height="156" rx="24" stroke="none"/>
      <rect x="1.5" y="1.5" width="505" height="153" rx="22.5" fill="none"/>
    </g>
  </g>
</svg>
