<svg xmlns="http://www.w3.org/2000/svg" width="508" height="156" viewBox="0 0 508 156">
  <g id="Gruppe_8316" data-name="Gruppe 8316" transform="translate(-1022 -453)">
    <g id="layer1" transform="translate(1006.327 452.754)">
      <path id="path20" d="M93.573,232.621a12.443,12.443,0,0,0-9.006,3.645,12.809,12.809,0,0,0,0,18.039v0h0a12.5,12.5,0,0,0,9.006,3.629,12.07,12.07,0,0,0,9.017-3.594l0,0a11.037,11.037,0,0,0,3.049-8.11v-.205l-.024-.016a8.2,8.2,0,0,0-.162-1.637l-.071-.311H93.179v3.613h8.445a6.891,6.891,0,0,1-1.7,4.087,8.663,8.663,0,0,1-6.355,2.5,8.78,8.78,0,0,1-6.217-2.489l0,0a9.378,9.378,0,0,1,0-12.974,8.7,8.7,0,0,1,6.217-2.489,7.675,7.675,0,0,1,6.217,2.631l.276.323,2.627-2.619-.233-.276a10.055,10.055,0,0,0-3.862-2.726,12.978,12.978,0,0,0-5.025-1.022Z" transform="translate(82.441 -206.155)" fill="#fff"/>
      <path id="path24" d="M94.908,232.887v24.24h14.646v-3.669h-10.8v-6.643h9.735V243.2H98.754v-6.647h10.8v-3.668Z" transform="translate(96.774 -205.884)" fill="#fff"/>
      <path id="path28" d="M103.35,232.887v3.668h6.627v20.571h3.846V236.555h6.627v-3.668Z" transform="translate(105.381 -205.884)" fill="#fff"/>
      <path id="path32" d="M117.273,232.887v24.24h3.838v-24.24Z" transform="translate(119.579 -205.884)" fill="#fff"/>
      <path id="path36" d="M120.689,232.887v3.668h6.651v20.571h3.822V236.555h6.647v-3.668Z" transform="translate(123.062 -205.884)" fill="#fff"/>
      <path id="path40" d="M146.324,232.621a12.174,12.174,0,0,0-9,3.672,12.98,12.98,0,0,0,0,17.972,12.834,12.834,0,0,0,17.976,0,12.93,12.93,0,0,0-.02-17.952A12.087,12.087,0,0,0,146.324,232.621Zm0,3.668a8.314,8.314,0,0,1,6.158,2.521,9.524,9.524,0,0,1,0,12.935,8.8,8.8,0,0,1-12.335,0,9.514,9.514,0,0,1,0-12.927A8.354,8.354,0,0,1,146.324,236.29Z" transform="translate(136.341 -206.155)" fill="#fff"/>
      <path id="path44" d="M147.926,232.887v24.24h3.818V242.117l-.1-3.317,11.57,18.327h3.8v-24.24h-3.838v14.13l.1,3.306-11.029-17.435Z" transform="translate(150.833 -205.884)" fill="#fff"/>
      <path id="path46" d="M187.683,270.949c-9.3,0-16.892,6.993-16.892,16.642a16.9,16.9,0,0,0,33.8,0C204.595,277.942,197,270.949,187.683,270.949Zm0,26.726c-5.1,0-9.49-4.162-9.49-10.084,0-6,4.389-10.089,9.49-10.089s9.51,4.088,9.51,10.089C197.193,293.513,192.784,297.674,187.683,297.674Zm-36.857-26.726c-9.317,0-16.892,6.993-16.892,16.642a16.894,16.894,0,0,0,33.784,0C167.718,277.942,160.138,270.949,150.826,270.949Zm0,26.726c-5.106,0-9.51-4.162-9.51-10.084,0-6,4.4-10.089,9.51-10.089s9.49,4.088,9.49,10.089C160.316,293.513,155.928,297.674,150.826,297.674Zm-43.858-21.625v7.071h17.085c-.5,3.951-1.836,6.856-3.884,8.881-2.494,2.445-6.378,5.159-13.2,5.159a18.779,18.779,0,0,1,0-37.558,18.233,18.233,0,0,1,12.874,5.042l5.042-4.983a25.079,25.079,0,0,0-17.916-7.125c-14.418,0-26.535,11.595-26.535,25.845s12.117,25.845,26.535,25.845c7.793,0,13.646-2.523,18.248-7.257,4.715-4.661,6.185-11.214,6.185-16.5a22.991,22.991,0,0,0-.387-4.416Zm179.339,5.482c-1.391-3.721-5.68-10.583-14.418-10.583-8.659,0-15.868,6.744-15.868,16.642a16.373,16.373,0,0,0,16.7,16.637,16.735,16.735,0,0,0,14.032-7.375l-5.739-3.78a9.648,9.648,0,0,1-8.293,4.6,8.57,8.57,0,0,1-8.154-5.042l22.518-9.208Zm-22.958,5.541a9.179,9.179,0,0,1,8.792-9.7c2.939,0,5.433,1.452,6.264,3.531Zm-18.3,16.143h7.4v-48.9h-7.4Zm-12.122-28.56h-.248a11.728,11.728,0,0,0-8.852-3.707c-8.431,0-16.14,7.316-16.14,16.7a16.572,16.572,0,0,0,16.14,16.583,11.554,11.554,0,0,0,8.852-3.78h.248v2.386c0,6.362-3.439,9.781-8.985,9.781a9.338,9.338,0,0,1-8.486-5.942l-6.437,2.655a16.062,16.062,0,0,0,14.923,9.839c8.679,0,16-5.047,16-17.326v-29.88h-7.016Zm-8.466,23.019c-5.1,0-9.371-4.22-9.371-10.03,0-5.863,4.27-10.142,9.371-10.142,5.027,0,8.99,4.279,8.99,10.142C233.45,293.454,229.487,297.674,224.46,297.674Zm96.5-43.362h-17.7v48.9h7.382V284.686h10.321c8.2,0,16.239-5.864,16.239-15.19s-8.06-15.184-16.239-15.184Zm.192,23.571H310.641V261.114h10.514a8.389,8.389,0,1,1,0,16.769Zm45.634-7.027c-5.334,0-10.88,2.328-13.161,7.487l6.551,2.714c1.41-2.714,4-3.594,6.744-3.594,3.83,0,7.714,2.274,7.773,6.289v.513a16.373,16.373,0,0,0-7.714-1.893c-7.056,0-14.245,3.839-14.245,11,0,6.553,5.779,10.773,12.276,10.773,4.968,0,7.709-2.215,9.431-4.793h.252v3.78h7.13V284.377c0-8.67-6.551-13.522-15.036-13.522Zm-.891,26.8c-2.414,0-5.779-1.184-5.779-4.142,0-3.785,4.2-5.238,7.828-5.238a13.365,13.365,0,0,1,6.749,1.643A8.926,8.926,0,0,1,365.9,297.655Zm41.9-25.728-8.486,21.2h-.252l-8.773-21.2H382.33l13.181,29.626-7.521,16.485H395.7l20.311-46.111Zm-66.544,31.288h7.4v-48.9h-7.4Z" transform="translate(82.014 -185.848)" fill="#fff"/>
      <path id="path64" d="M21.378,234.263a7.732,7.732,0,0,0-1.836,5.5v86.519a7.732,7.732,0,0,0,1.836,5.5l.287.264,49.053-48.463v-1.144L21.665,233.98Z" transform="translate(19.926 -204.77)" fill="#fff"/>
      <path id="path20903" d="M21.646,333,71.3,283.289,21.688,233.668c-1.325.773-2.145,2.561-2.145,4.9v89.573C19.56,330.486,20.351,332.143,21.646,333Z" transform="translate(19.927 -205.087)" fill="#fff"/>
      <path id="path20905" d="M70.68,282.184l14.791-14.809L25.237,234.31a6.662,6.662,0,0,0-3.34-.9l48.777,48.771Z" transform="translate(22.327 -205.354)" fill="#fff"/>
      <path id="path20907" d="M70.755,258.92,21.823,307.9a6.632,6.632,0,0,0,3.494-.927l60.353-33.154Z" transform="translate(22.252 -179.339)" fill="#fff"/>
      <path id="path20909" d="M81.97,261.731,61.926,250.708l-15.2,15.213,15.308,15.308,19.925-10.994c4.237-2.335,4.237-6.18.006-8.5Z" transform="translate(47.649 -187.713)" fill="#fff"/>
    </g>
    <g id="Rechteck_504" data-name="Rechteck 504" transform="translate(1022 453)" fill="none" stroke="#fff" stroke-width="3">
      <rect width="508" height="156" rx="24" stroke="none"/>
      <rect x="1.5" y="1.5" width="505" height="153" rx="22.5" fill="none"/>
    </g>
  </g>
</svg>
