<?xml version="1.0" encoding="utf-8"?>
<!-- Generator: Adobe Illustrator 27.6.1, SVG Export Plug-In . SVG Version: 6.00 Build 0)  -->
<svg version="1.1" id="Ebene_1" xmlns="http://www.w3.org/2000/svg" xmlns:xlink="http://www.w3.org/1999/xlink" x="0px" y="0px"
	 viewBox="0 0 216.4 433" style="enable-background:new 0 0 216.4 433;" xml:space="preserve">
<style type="text/css">
	.st0{fill:#FFFFFF;}
</style>
<g>
	<path d="M60.3,5.9c1.2,1.7,2.6,3.3,4.3,4.6c1.7,1.3,3.6,2.3,5.6,3c2.1,0.7,4.3,1.1,6.5,1.1h63.1c2.2,0,4.4-0.4,6.6-1.2
		c2-0.7,3.9-1.7,5.6-3c1.6-1.3,3.1-2.8,4.3-4.6c1.2-1.8,2.1-3.7,2.7-5.8H57.5C58.1,2.1,59,4,60.3,5.9z"/>
	<path class="st0" d="M32.3,0h-25H0v433h7.3h25c-13.8,0-25-11.2-25-25V24.7C7.4,11,18.6,0,32.3,0z"/>
	<path class="st0" d="M209.2,0h-25c13.8,0,25,11.2,25,25v383.3c-0.2,13.7-11.3,24.7-25,24.7h25h7.3V0H209.2z"/>
</g>
</svg>
