<svg xmlns="http://www.w3.org/2000/svg" width="202" height="433.001" viewBox="0 0 202 433.001">
  <path id="Ausschluss_1" data-name="Ausschluss 1" d="M202,433H0V408a24.98,24.98,0,0,0,25,24.975H176.927a24.979,24.979,0,0,0,25-25V25a24.98,24.98,0,0,0-25-25H202V433ZM0,24.679H0V0H24.976A24.978,24.978,0,0,0,0,24.679ZM132.515,14.562h-63.1a19.859,19.859,0,0,1-6.525-1.094,19.814,19.814,0,0,1-5.617-3.038,19.949,19.949,0,0,1-4.34-4.612A19.777,19.777,0,0,1,50.235,0H151.691A19.778,19.778,0,0,1,149,5.819a19.949,19.949,0,0,1-4.34,4.612,19.8,19.8,0,0,1-5.616,3.038A19.859,19.859,0,0,1,132.515,14.562Z" fill="#fff"/>
</svg>
