<?xml version="1.0" encoding="utf-8"?>
<!-- Generator: Adobe Illustrator 27.5.0, SVG Export Plug-In . SVG Version: 6.00 Build 0)  -->
<svg version="1.1" id="Ebene_1" xmlns="http://www.w3.org/2000/svg" xmlns:xlink="http://www.w3.org/1999/xlink" x="0px" y="0px"
	 viewBox="0 0 202 433" style="enable-background:new 0 0 202 433;" xml:space="preserve">
<style type="text/css">
	.st0{fill:#FFFFFF;}
</style>
<g>
	<path d="M132.6,14.6H69.5c-2.2,0-4.4-0.4-6.5-1.1c-2-0.7-3.9-1.7-5.6-3c-1.7-1.3-3.1-2.9-4.3-4.6C51.8,4,50.9,2.1,50.3,0h101.5
		c-0.6,2.1-1.5,4-2.7,5.8c-1.2,1.8-2.7,3.3-4.3,4.6c-1.7,1.3-3.6,2.3-5.6,3C137,14.2,134.8,14.6,132.6,14.6z"/>
	<path class="st0" d="M0.1,24.7L0.1,24.7V0h25C11.4,0,0.2,11,0.1,24.7z"/>
	<path class="st0" d="M25.1,433l-25,0v-25C0.1,421.8,11.3,433,25.1,433C25.1,433,25.1,433,25.1,433"/>
	<g>
		<path class="st0" d="M202,408.3L202,408.3V433h-25C190.7,433,201.8,422,202,408.3z"/>
		<path class="st0" d="M177,0l25,0v25C202,11.2,190.8,0,177,0C177,0,177,0,177,0"/>
	</g>
</g>
</svg>
