<svg xmlns="http://www.w3.org/2000/svg" xmlns:xlink="http://www.w3.org/1999/xlink" width="30" height="2000" viewBox="0 0 30 2000">
  <defs>
    <clipPath id="clip-Web_1920_75">
      <rect width="30" height="2000"/>
    </clipPath>
  </defs>
  <g id="Web_1920_75" data-name="Web 1920 – 75" clip-path="url(#clip-Web_1920_75)">
    <rect width="30" height="2000" fill="#fff"/>
    <rect id="Rechteck_482" data-name="Rechteck 482" width="30" height="2789" fill="#fff"/>
    <path id="Pfad_8903" data-name="Pfad 8903" d="M-2084.98.3c2.62,0,4.26-1.46,4.26-4.24V-14h-2.36V-3.96c0,1.74-.8,2.4-1.98,2.4-1.2,0-2.04-.66-2.04-2.42v-1l-2.3.18v.88C-2089.4-1.3-2087.74.3-2084.98.3Zm6.9-.3h2.4l1.18-3.42h6.06l1.2,3.42h2.38l-5.12-14h-3Zm4.3-5.44,2.28-6.58h.04l2.32,6.58ZM-2061.92,0h2.36V-4.78h2.74c2.86,0,4.86-1.86,4.86-4.52a4.485,4.485,0,0,0-4.86-4.7h-5.1Zm2.36-6.8v-5.16h2.54a2.5,2.5,0,0,1,2.7,2.68,2.512,2.512,0,0,1-2.7,2.48Zm10.78,6.8h2.36V-4.78h2.74c2.86,0,4.86-1.86,4.86-4.52a4.485,4.485,0,0,0-4.86-4.7h-5.1Zm2.36-6.8v-5.16h2.54a2.5,2.5,0,0,1,2.7,2.68,2.512,2.512,0,0,1-2.7,2.48Zm8.52,6.8h2.4l1.18-3.42h6.06l1.2,3.42h2.38l-5.12-14h-3Zm4.3-5.44,2.28-6.58h.04l2.32,6.58ZM-2021.74,0h2.36V-10.76h.08L-2013.66,0h3.42V-14.02h-2.36V-2.4h-.06l-6.22-11.6h-2.86Zm23.86.3c2.62,0,4.26-1.46,4.26-4.24V-14h-2.36V-3.96c0,1.74-.8,2.4-1.98,2.4-1.2,0-2.04-.66-2.04-2.42v-1l-2.3.18v.88C-2002.3-1.3-2000.64.3-1997.88.3Zm6.9-.3h2.4l1.18-3.42h6.06l1.2,3.42h2.38l-5.12-14h-3Zm4.3-5.44,2.28-6.58h.04l2.32,6.58ZM-1974.82,0h2.36V-4.78h2.74c2.86,0,4.86-1.86,4.86-4.52a4.485,4.485,0,0,0-4.86-4.7h-5.1Zm2.36-6.8v-5.16h2.54a2.5,2.5,0,0,1,2.7,2.68,2.512,2.512,0,0,1-2.7,2.48Zm10.78,6.8h2.36V-4.78h2.74c2.86,0,4.86-1.86,4.86-4.52a4.485,4.485,0,0,0-4.86-4.7h-5.1Zm2.36-6.8v-5.16h2.54a2.5,2.5,0,0,1,2.7,2.68,2.512,2.512,0,0,1-2.7,2.48Zm8.52,6.8h2.4l1.18-3.42h6.06l1.2,3.42h2.38l-5.12-14h-3Zm4.3-5.44,2.28-6.58h.04l2.32,6.58ZM-1934.64,0h2.36V-10.76h.08L-1926.56,0h3.42V-14.02h-2.36V-2.4h-.06l-6.22-11.6h-2.86Zm23.86.3c2.62,0,4.26-1.46,4.26-4.24V-14h-2.36V-3.96c0,1.74-.8,2.4-1.98,2.4-1.2,0-2.04-.66-2.04-2.42v-1l-2.3.18v.88C-1915.2-1.3-1913.54.3-1910.78.3Zm6.9-.3h2.4l1.18-3.42h6.06l1.2,3.42h2.38l-5.12-14h-3Zm4.3-5.44,2.28-6.58h.04l2.32,6.58ZM-1887.72,0h2.36V-4.78h2.74c2.86,0,4.86-1.86,4.86-4.52a4.485,4.485,0,0,0-4.86-4.7h-5.1Zm2.36-6.8v-5.16h2.54a2.5,2.5,0,0,1,2.7,2.68,2.512,2.512,0,0,1-2.7,2.48Zm10.78,6.8h2.36V-4.78h2.74c2.86,0,4.86-1.86,4.86-4.52a4.485,4.485,0,0,0-4.86-4.7h-5.1Zm2.36-6.8v-5.16h2.54a2.5,2.5,0,0,1,2.7,2.68,2.512,2.512,0,0,1-2.7,2.48Zm8.52,6.8h2.4l1.18-3.42h6.06l1.2,3.42h2.38l-5.12-14h-3Zm4.3-5.44,2.28-6.58h.04l2.32,6.58ZM-1847.54,0h2.36V-10.76h.08L-1839.46,0h3.42V-14.02h-2.36V-2.4h-.06l-6.22-11.6h-2.86Zm23.86.3c2.62,0,4.26-1.46,4.26-4.24V-14h-2.36V-3.96c0,1.74-.8,2.4-1.98,2.4-1.2,0-2.04-.66-2.04-2.42v-1l-2.3.18v.88C-1828.1-1.3-1826.44.3-1823.68.3Zm6.9-.3h2.4l1.18-3.42h6.06l1.2,3.42h2.38l-5.12-14h-3Zm4.3-5.44,2.28-6.58h.04l2.32,6.58ZM-1800.62,0h2.36V-4.78h2.74c2.86,0,4.86-1.86,4.86-4.52a4.485,4.485,0,0,0-4.86-4.7h-5.1Zm2.36-6.8v-5.16h2.54a2.5,2.5,0,0,1,2.7,2.68,2.512,2.512,0,0,1-2.7,2.48Zm10.78,6.8h2.36V-4.78h2.74c2.86,0,4.86-1.86,4.86-4.52a4.485,4.485,0,0,0-4.86-4.7h-5.1Zm2.36-6.8v-5.16h2.54a2.5,2.5,0,0,1,2.7,2.68,2.512,2.512,0,0,1-2.7,2.48Zm8.52,6.8h2.4l1.18-3.42h6.06l1.2,3.42h2.38l-5.12-14h-3Zm4.3-5.44,2.28-6.58h.04l2.32,6.58ZM-1760.44,0h2.36V-10.76h.08L-1752.36,0h3.42V-14.02h-2.36V-2.4h-.06l-6.22-11.6h-2.86Zm23.86.3c2.62,0,4.26-1.46,4.26-4.24V-14h-2.36V-3.96c0,1.74-.8,2.4-1.98,2.4-1.2,0-2.04-.66-2.04-2.42v-1l-2.3.18v.88C-1741-1.3-1739.34.3-1736.58.3Zm6.9-.3h2.4l1.18-3.42h6.06l1.2,3.42h2.38l-5.12-14h-3Zm4.3-5.44,2.28-6.58h.04l2.32,6.58ZM-1713.52,0h2.36V-4.78h2.74c2.86,0,4.86-1.86,4.86-4.52a4.485,4.485,0,0,0-4.86-4.7h-5.1Zm2.36-6.8v-5.16h2.54a2.5,2.5,0,0,1,2.7,2.68,2.512,2.512,0,0,1-2.7,2.48Zm10.78,6.8h2.36V-4.78h2.74c2.86,0,4.86-1.86,4.86-4.52a4.485,4.485,0,0,0-4.86-4.7h-5.1Zm2.36-6.8v-5.16h2.54a2.5,2.5,0,0,1,2.7,2.68,2.512,2.512,0,0,1-2.7,2.48Zm8.52,6.8h2.4l1.18-3.42h6.06l1.2,3.42h2.38l-5.12-14h-3Zm4.3-5.44,2.28-6.58h.04l2.32,6.58ZM-1673.34,0h2.36V-10.76h.08L-1665.26,0h3.42V-14.02h-2.36V-2.4h-.06l-6.22-11.6h-2.86Zm23.86.3c2.62,0,4.26-1.46,4.26-4.24V-14h-2.36V-3.96c0,1.74-.8,2.4-1.98,2.4-1.2,0-2.04-.66-2.04-2.42v-1l-2.3.18v.88C-1653.9-1.3-1652.24.3-1649.48.3Zm6.9-.3h2.4l1.18-3.42h6.06l1.2,3.42h2.38l-5.12-14h-3Zm4.3-5.44,2.28-6.58h.04l2.32,6.58ZM-1626.42,0h2.36V-4.78h2.74c2.86,0,4.86-1.86,4.86-4.52a4.485,4.485,0,0,0-4.86-4.7h-5.1Zm2.36-6.8v-5.16h2.54a2.5,2.5,0,0,1,2.7,2.68,2.512,2.512,0,0,1-2.7,2.48Zm10.78,6.8h2.36V-4.78h2.74c2.86,0,4.86-1.86,4.86-4.52a4.485,4.485,0,0,0-4.86-4.7h-5.1Zm2.36-6.8v-5.16h2.54a2.5,2.5,0,0,1,2.7,2.68,2.512,2.512,0,0,1-2.7,2.48Zm8.52,6.8h2.4l1.18-3.42h6.06l1.2,3.42h2.38l-5.12-14h-3Zm4.3-5.44,2.28-6.58h.04l2.32,6.58ZM-1586.24,0h2.36V-10.76h.08L-1578.16,0h3.42V-14.02h-2.36V-2.4h-.06l-6.22-11.6h-2.86Zm23.86.3c2.62,0,4.26-1.46,4.26-4.24V-14h-2.36V-3.96c0,1.74-.8,2.4-1.98,2.4-1.2,0-2.04-.66-2.04-2.42v-1l-2.3.18v.88C-1566.8-1.3-1565.14.3-1562.38.3Zm6.9-.3h2.4l1.18-3.42h6.06l1.2,3.42h2.38l-5.12-14h-3Zm4.3-5.44,2.28-6.58h.04l2.32,6.58ZM-1539.32,0h2.36V-4.78h2.74c2.86,0,4.86-1.86,4.86-4.52a4.485,4.485,0,0,0-4.86-4.7h-5.1Zm2.36-6.8v-5.16h2.54a2.5,2.5,0,0,1,2.7,2.68,2.512,2.512,0,0,1-2.7,2.48Zm10.78,6.8h2.36V-4.78h2.74c2.86,0,4.86-1.86,4.86-4.52a4.485,4.485,0,0,0-4.86-4.7h-5.1Zm2.36-6.8v-5.16h2.54a2.5,2.5,0,0,1,2.7,2.68,2.512,2.512,0,0,1-2.7,2.48Zm8.52,6.8h2.4l1.18-3.42h6.06l1.2,3.42h2.38l-5.12-14h-3Zm4.3-5.44,2.28-6.58h.04l2.32,6.58ZM-1499.14,0h2.36V-10.76h.08L-1491.06,0h3.42V-14.02H-1490V-2.4h-.06l-6.22-11.6h-2.86Zm23.86.3c2.62,0,4.26-1.46,4.26-4.24V-14h-2.36V-3.96c0,1.74-.8,2.4-1.98,2.4-1.2,0-2.04-.66-2.04-2.42v-1l-2.3.18v.88C-1479.7-1.3-1478.04.3-1475.28.3Zm6.9-.3h2.4l1.18-3.42h6.06l1.2,3.42h2.38l-5.12-14h-3Zm4.3-5.44,2.28-6.58h.04l2.32,6.58ZM-1452.22,0h2.36V-4.78h2.74c2.86,0,4.86-1.86,4.86-4.52a4.485,4.485,0,0,0-4.86-4.7h-5.1Zm2.36-6.8v-5.16h2.54a2.5,2.5,0,0,1,2.7,2.68,2.512,2.512,0,0,1-2.7,2.48Zm10.78,6.8h2.36V-4.78h2.74c2.86,0,4.86-1.86,4.86-4.52a4.485,4.485,0,0,0-4.86-4.7h-5.1Zm2.36-6.8v-5.16h2.54a2.5,2.5,0,0,1,2.7,2.68,2.512,2.512,0,0,1-2.7,2.48Zm8.52,6.8h2.4l1.18-3.42h6.06l1.2,3.42h2.38l-5.12-14h-3Zm4.3-5.44,2.28-6.58h.04l2.32,6.58ZM-1412.04,0h2.36V-10.76h.08L-1403.96,0h3.42V-14.02h-2.36V-2.4h-.06l-6.22-11.6h-2.86Zm23.86.3c2.62,0,4.26-1.46,4.26-4.24V-14h-2.36V-3.96c0,1.74-.8,2.4-1.98,2.4-1.2,0-2.04-.66-2.04-2.42v-1l-2.3.18v.88C-1392.6-1.3-1390.94.3-1388.18.3Zm6.9-.3h2.4l1.18-3.42h6.06l1.2,3.42h2.38l-5.12-14h-3Zm4.3-5.44,2.28-6.58h.04l2.32,6.58ZM-1365.12,0h2.36V-4.78h2.74c2.86,0,4.86-1.86,4.86-4.52a4.485,4.485,0,0,0-4.86-4.7h-5.1Zm2.36-6.8v-5.16h2.54a2.5,2.5,0,0,1,2.7,2.68,2.512,2.512,0,0,1-2.7,2.48Zm10.78,6.8h2.36V-4.78h2.74c2.86,0,4.86-1.86,4.86-4.52a4.485,4.485,0,0,0-4.86-4.7h-5.1Zm2.36-6.8v-5.16h2.54a2.5,2.5,0,0,1,2.7,2.68,2.512,2.512,0,0,1-2.7,2.48Zm8.52,6.8h2.4l1.18-3.42h6.06l1.2,3.42h2.38L-1333-14h-3Zm4.3-5.44,2.28-6.58h.04l2.32,6.58ZM-1324.94,0h2.36V-10.76h.08L-1316.86,0h3.42V-14.02h-2.36V-2.4h-.06l-6.22-11.6h-2.86Zm23.86.3c2.62,0,4.26-1.46,4.26-4.24V-14h-2.36V-3.96c0,1.74-.8,2.4-1.98,2.4-1.2,0-2.04-.66-2.04-2.42v-1l-2.3.18v.88C-1305.5-1.3-1303.84.3-1301.08.3Zm6.9-.3h2.4l1.18-3.42h6.06l1.2,3.42h2.38l-5.12-14h-3Zm4.3-5.44,2.28-6.58h.04l2.32,6.58ZM-1278.02,0h2.36V-4.78h2.74c2.86,0,4.86-1.86,4.86-4.52a4.485,4.485,0,0,0-4.86-4.7h-5.1Zm2.36-6.8v-5.16h2.54a2.5,2.5,0,0,1,2.7,2.68,2.512,2.512,0,0,1-2.7,2.48Zm10.78,6.8h2.36V-4.78h2.74c2.86,0,4.86-1.86,4.86-4.52a4.485,4.485,0,0,0-4.86-4.7h-5.1Zm2.36-6.8v-5.16h2.54a2.5,2.5,0,0,1,2.7,2.68,2.512,2.512,0,0,1-2.7,2.48ZM-1254,0h2.4l1.18-3.42h6.06l1.2,3.42h2.38l-5.12-14h-3Zm4.3-5.44,2.28-6.58h.04l2.32,6.58ZM-1237.84,0h2.36V-10.76h.08L-1229.76,0h3.42V-14.02h-2.36V-2.4h-.06l-6.22-11.6h-2.86Zm23.86.3c2.62,0,4.26-1.46,4.26-4.24V-14h-2.36V-3.96c0,1.74-.8,2.4-1.98,2.4-1.2,0-2.04-.66-2.04-2.42v-1l-2.3.18v.88C-1218.4-1.3-1216.74.3-1213.98.3Zm6.9-.3h2.4l1.18-3.42h6.06l1.2,3.42h2.38l-5.12-14h-3Zm4.3-5.44,2.28-6.58h.04l2.32,6.58ZM-1190.92,0h2.36V-4.78h2.74c2.86,0,4.86-1.86,4.86-4.52a4.485,4.485,0,0,0-4.86-4.7h-5.1Zm2.36-6.8v-5.16h2.54a2.5,2.5,0,0,1,2.7,2.68,2.512,2.512,0,0,1-2.7,2.48Zm10.78,6.8h2.36V-4.78h2.74c2.86,0,4.86-1.86,4.86-4.52a4.485,4.485,0,0,0-4.86-4.7h-5.1Zm2.36-6.8v-5.16h2.54a2.5,2.5,0,0,1,2.7,2.68,2.512,2.512,0,0,1-2.7,2.48Zm8.52,6.8h2.4l1.18-3.42h6.06l1.2,3.42h2.38l-5.12-14h-3Zm4.3-5.44,2.28-6.58h.04l2.32,6.58ZM-1150.74,0h2.36V-10.76h.08L-1142.66,0h3.42V-14.02h-2.36V-2.4h-.06l-6.22-11.6h-2.86Zm23.86.3c2.62,0,4.26-1.46,4.26-4.24V-14h-2.36V-3.96c0,1.74-.8,2.4-1.98,2.4-1.2,0-2.04-.66-2.04-2.42v-1l-2.3.18v.88C-1131.3-1.3-1129.64.3-1126.88.3Zm6.9-.3h2.4l1.18-3.42h6.06l1.2,3.42h2.38l-5.12-14h-3Zm4.3-5.44,2.28-6.58h.04l2.32,6.58ZM-1103.82,0h2.36V-4.78h2.74c2.86,0,4.86-1.86,4.86-4.52a4.485,4.485,0,0,0-4.86-4.7h-5.1Zm2.36-6.8v-5.16h2.54a2.5,2.5,0,0,1,2.7,2.68,2.512,2.512,0,0,1-2.7,2.48Zm10.78,6.8h2.36V-4.78h2.74c2.86,0,4.86-1.86,4.86-4.52a4.485,4.485,0,0,0-4.86-4.7h-5.1Zm2.36-6.8v-5.16h2.54a2.5,2.5,0,0,1,2.7,2.68,2.512,2.512,0,0,1-2.7,2.48Zm8.52,6.8h2.4l1.18-3.42h6.06l1.2,3.42h2.38l-5.12-14h-3Zm4.3-5.44,2.28-6.58h.04l2.32,6.58ZM-1063.64,0h2.36V-10.76h.08L-1055.56,0h3.42V-14.02h-2.36V-2.4h-.06l-6.22-11.6h-2.86Zm23.86.3c2.62,0,4.26-1.46,4.26-4.24V-14h-2.36V-3.96c0,1.74-.8,2.4-1.98,2.4-1.2,0-2.04-.66-2.04-2.42v-1l-2.3.18v.88C-1044.2-1.3-1042.54.3-1039.78.3Zm6.9-.3h2.4l1.18-3.42h6.06l1.2,3.42h2.38l-5.12-14h-3Zm4.3-5.44,2.28-6.58h.04l2.32,6.58ZM-1016.72,0h2.36V-4.78h2.74c2.86,0,4.86-1.86,4.86-4.52a4.485,4.485,0,0,0-4.86-4.7h-5.1Zm2.36-6.8v-5.16h2.54a2.5,2.5,0,0,1,2.7,2.68,2.512,2.512,0,0,1-2.7,2.48Zm10.78,6.8h2.36V-4.78h2.74c2.86,0,4.86-1.86,4.86-4.52a4.485,4.485,0,0,0-4.86-4.7h-5.1Zm2.36-6.8v-5.16h2.54a2.5,2.5,0,0,1,2.7,2.68,2.512,2.512,0,0,1-2.7,2.48ZM-992.7,0h2.4l1.18-3.42h6.06l1.2,3.42h2.38l-5.12-14h-3Zm4.3-5.44,2.28-6.58h.04l2.32,6.58ZM-976.54,0h2.36V-10.76h.08L-968.46,0h3.42V-14.02h-2.36V-2.4h-.06L-973.68-14h-2.86Zm23.86.3c2.62,0,4.26-1.46,4.26-4.24V-14h-2.36V-3.96c0,1.74-.8,2.4-1.98,2.4-1.2,0-2.04-.66-2.04-2.42v-1l-2.3.18v.88C-957.1-1.3-955.44.3-952.68.3Zm6.9-.3h2.4l1.18-3.42h6.06l1.2,3.42h2.38l-5.12-14h-3Zm4.3-5.44,2.28-6.58h.04l2.32,6.58ZM-929.62,0h2.36V-4.78h2.74c2.86,0,4.86-1.86,4.86-4.52a4.485,4.485,0,0,0-4.86-4.7h-5.1Zm2.36-6.8v-5.16h2.54a2.5,2.5,0,0,1,2.7,2.68,2.512,2.512,0,0,1-2.7,2.48ZM-916.48,0h2.36V-4.78h2.74c2.86,0,4.86-1.86,4.86-4.52a4.485,4.485,0,0,0-4.86-4.7h-5.1Zm2.36-6.8v-5.16h2.54a2.5,2.5,0,0,1,2.7,2.68,2.512,2.512,0,0,1-2.7,2.48ZM-905.6,0h2.4l1.18-3.42h6.06l1.2,3.42h2.38l-5.12-14h-3Zm4.3-5.44,2.28-6.58h.04l2.32,6.58ZM-889.44,0h2.36V-10.76h.08L-881.36,0h3.42V-14.02h-2.36V-2.4h-.06L-886.58-14h-2.86Zm23.86.3c2.62,0,4.26-1.46,4.26-4.24V-14h-2.36V-3.96c0,1.74-.8,2.4-1.98,2.4-1.2,0-2.04-.66-2.04-2.42v-1l-2.3.18v.88C-870-1.3-868.34.3-865.58.3Zm6.9-.3h2.4l1.18-3.42h6.06l1.2,3.42h2.38l-5.12-14h-3Zm4.3-5.44,2.28-6.58h.04l2.32,6.58ZM-842.52,0h2.36V-4.78h2.74c2.86,0,4.86-1.86,4.86-4.52a4.485,4.485,0,0,0-4.86-4.7h-5.1Zm2.36-6.8v-5.16h2.54a2.5,2.5,0,0,1,2.7,2.68,2.512,2.512,0,0,1-2.7,2.48ZM-829.38,0h2.36V-4.78h2.74c2.86,0,4.86-1.86,4.86-4.52a4.485,4.485,0,0,0-4.86-4.7h-5.1Zm2.36-6.8v-5.16h2.54a2.5,2.5,0,0,1,2.7,2.68,2.512,2.512,0,0,1-2.7,2.48ZM-818.5,0h2.4l1.18-3.42h6.06l1.2,3.42h2.38l-5.12-14h-3Zm4.3-5.44,2.28-6.58h.04l2.32,6.58ZM-802.34,0h2.36V-10.76h.08L-794.26,0h3.42V-14.02h-2.36V-2.4h-.06L-799.48-14h-2.86Zm23.86.3c2.62,0,4.26-1.46,4.26-4.24V-14h-2.36V-3.96c0,1.74-.8,2.4-1.98,2.4-1.2,0-2.04-.66-2.04-2.42v-1l-2.3.18v.88C-782.9-1.3-781.24.3-778.48.3Zm6.9-.3h2.4L-768-3.42h6.06l1.2,3.42h2.38l-5.12-14h-3Zm4.3-5.44,2.28-6.58h.04l2.32,6.58ZM-755.42,0h2.36V-4.78h2.74c2.86,0,4.86-1.86,4.86-4.52a4.485,4.485,0,0,0-4.86-4.7h-5.1Zm2.36-6.8v-5.16h2.54a2.5,2.5,0,0,1,2.7,2.68,2.512,2.512,0,0,1-2.7,2.48ZM-742.28,0h2.36V-4.78h2.74c2.86,0,4.86-1.86,4.86-4.52a4.485,4.485,0,0,0-4.86-4.7h-5.1Zm2.36-6.8v-5.16h2.54a2.5,2.5,0,0,1,2.7,2.68,2.512,2.512,0,0,1-2.7,2.48ZM-731.4,0h2.4l1.18-3.42h6.06l1.2,3.42h2.38l-5.12-14h-3Zm4.3-5.44,2.28-6.58h.04l2.32,6.58ZM-715.24,0h2.36V-10.76h.08L-707.16,0h3.42V-14.02h-2.36V-2.4h-.06L-712.38-14h-2.86Zm23.86.3c2.62,0,4.26-1.46,4.26-4.24V-14h-2.36V-3.96c0,1.74-.8,2.4-1.98,2.4-1.2,0-2.04-.66-2.04-2.42v-1l-2.3.18v.88C-695.8-1.3-694.14.3-691.38.3Zm6.9-.3h2.4l1.18-3.42h6.06l1.2,3.42h2.38l-5.12-14h-3Zm4.3-5.44,2.28-6.58h.04l2.32,6.58ZM-668.32,0h2.36V-4.78h2.74c2.86,0,4.86-1.86,4.86-4.52a4.485,4.485,0,0,0-4.86-4.7h-5.1Zm2.36-6.8v-5.16h2.54a2.5,2.5,0,0,1,2.7,2.68,2.512,2.512,0,0,1-2.7,2.48ZM-655.18,0h2.36V-4.78h2.74c2.86,0,4.86-1.86,4.86-4.52a4.485,4.485,0,0,0-4.86-4.7h-5.1Zm2.36-6.8v-5.16h2.54a2.5,2.5,0,0,1,2.7,2.68,2.512,2.512,0,0,1-2.7,2.48ZM-644.3,0h2.4l1.18-3.42h6.06l1.2,3.42h2.38l-5.12-14h-3Zm4.3-5.44,2.28-6.58h.04l2.32,6.58ZM-628.14,0h2.36V-10.76h.08L-620.06,0h3.42V-14.02H-619V-2.4h-.06L-625.28-14h-2.86Zm23.86.3c2.62,0,4.26-1.46,4.26-4.24V-14h-2.36V-3.96c0,1.74-.8,2.4-1.98,2.4-1.2,0-2.04-.66-2.04-2.42v-1l-2.3.18v.88C-608.7-1.3-607.04.3-604.28.3Zm6.9-.3h2.4l1.18-3.42h6.06l1.2,3.42h2.38l-5.12-14h-3Zm4.3-5.44,2.28-6.58h.04l2.32,6.58ZM-581.22,0h2.36V-4.78h2.74c2.86,0,4.86-1.86,4.86-4.52a4.485,4.485,0,0,0-4.86-4.7h-5.1Zm2.36-6.8v-5.16h2.54a2.5,2.5,0,0,1,2.7,2.68,2.512,2.512,0,0,1-2.7,2.48ZM-568.08,0h2.36V-4.78h2.74c2.86,0,4.86-1.86,4.86-4.52a4.485,4.485,0,0,0-4.86-4.7h-5.1Zm2.36-6.8v-5.16h2.54a2.5,2.5,0,0,1,2.7,2.68,2.512,2.512,0,0,1-2.7,2.48ZM-557.2,0h2.4l1.18-3.42h6.06l1.2,3.42h2.38l-5.12-14h-3Zm4.3-5.44,2.28-6.58h.04l2.32,6.58ZM-541.04,0h2.36V-10.76h.08L-532.96,0h3.42V-14.02h-2.36V-2.4h-.06L-538.18-14h-2.86Zm23.86.3c2.62,0,4.26-1.46,4.26-4.24V-14h-2.36V-3.96c0,1.74-.8,2.4-1.98,2.4-1.2,0-2.04-.66-2.04-2.42v-1l-2.3.18v.88C-521.6-1.3-519.94.3-517.18.3Zm6.9-.3h2.4l1.18-3.42h6.06l1.2,3.42h2.38l-5.12-14h-3Zm4.3-5.44,2.28-6.58h.04l2.32,6.58ZM-494.12,0h2.36V-4.78h2.74c2.86,0,4.86-1.86,4.86-4.52a4.485,4.485,0,0,0-4.86-4.7h-5.1Zm2.36-6.8v-5.16h2.54a2.5,2.5,0,0,1,2.7,2.68,2.512,2.512,0,0,1-2.7,2.48ZM-480.98,0h2.36V-4.78h2.74c2.86,0,4.86-1.86,4.86-4.52a4.485,4.485,0,0,0-4.86-4.7h-5.1Zm2.36-6.8v-5.16h2.54a2.5,2.5,0,0,1,2.7,2.68,2.512,2.512,0,0,1-2.7,2.48ZM-470.1,0h2.4l1.18-3.42h6.06l1.2,3.42h2.38L-462-14h-3Zm4.3-5.44,2.28-6.58h.04l2.32,6.58ZM-453.94,0h2.36V-10.76h.08L-445.86,0h3.42V-14.02h-2.36V-2.4h-.06L-451.08-14h-2.86Zm23.86.3c2.62,0,4.26-1.46,4.26-4.24V-14h-2.36V-3.96c0,1.74-.8,2.4-1.98,2.4-1.2,0-2.04-.66-2.04-2.42v-1l-2.3.18v.88C-434.5-1.3-432.84.3-430.08.3Zm6.9-.3h2.4l1.18-3.42h6.06l1.2,3.42h2.38l-5.12-14h-3Zm4.3-5.44,2.28-6.58h.04l2.32,6.58ZM-407.02,0h2.36V-4.78h2.74c2.86,0,4.86-1.86,4.86-4.52a4.485,4.485,0,0,0-4.86-4.7h-5.1Zm2.36-6.8v-5.16h2.54a2.5,2.5,0,0,1,2.7,2.68,2.512,2.512,0,0,1-2.7,2.48ZM-393.88,0h2.36V-4.78h2.74c2.86,0,4.86-1.86,4.86-4.52a4.485,4.485,0,0,0-4.86-4.7h-5.1Zm2.36-6.8v-5.16h2.54a2.5,2.5,0,0,1,2.7,2.68,2.512,2.512,0,0,1-2.7,2.48ZM-383,0h2.4l1.18-3.42h6.06l1.2,3.42h2.38l-5.12-14h-3Zm4.3-5.44,2.28-6.58h.04l2.32,6.58ZM-366.84,0h2.36V-10.76h.08L-358.76,0h3.42V-14.02h-2.36V-2.4h-.06L-363.98-14h-2.86Zm23.86.3c2.62,0,4.26-1.46,4.26-4.24V-14h-2.36V-3.96c0,1.74-.8,2.4-1.98,2.4-1.2,0-2.04-.66-2.04-2.42v-1l-2.3.18v.88C-347.4-1.3-345.74.3-342.98.3Zm6.9-.3h2.4l1.18-3.42h6.06l1.2,3.42h2.38l-5.12-14h-3Zm4.3-5.44,2.28-6.58h.04l2.32,6.58ZM-319.92,0h2.36V-4.78h2.74c2.86,0,4.86-1.86,4.86-4.52a4.485,4.485,0,0,0-4.86-4.7h-5.1Zm2.36-6.8v-5.16h2.54a2.5,2.5,0,0,1,2.7,2.68,2.512,2.512,0,0,1-2.7,2.48ZM-306.78,0h2.36V-4.78h2.74c2.86,0,4.86-1.86,4.86-4.52a4.485,4.485,0,0,0-4.86-4.7h-5.1Zm2.36-6.8v-5.16h2.54a2.5,2.5,0,0,1,2.7,2.68,2.512,2.512,0,0,1-2.7,2.48ZM-295.9,0h2.4l1.18-3.42h6.06l1.2,3.42h2.38l-5.12-14h-3Zm4.3-5.44,2.28-6.58h.04l2.32,6.58ZM-279.74,0h2.36V-10.76h.08L-271.66,0h3.42V-14.02h-2.36V-2.4h-.06L-276.88-14h-2.86Zm23.86.3c2.62,0,4.26-1.46,4.26-4.24V-14h-2.36V-3.96c0,1.74-.8,2.4-1.98,2.4-1.2,0-2.04-.66-2.04-2.42v-1l-2.3.18v.88C-260.3-1.3-258.64.3-255.88.3Zm6.9-.3h2.4l1.18-3.42h6.06l1.2,3.42h2.38l-5.12-14h-3Zm4.3-5.44,2.28-6.58h.04l2.32,6.58ZM-232.82,0h2.36V-4.78h2.74c2.86,0,4.86-1.86,4.86-4.52a4.485,4.485,0,0,0-4.86-4.7h-5.1Zm2.36-6.8v-5.16h2.54a2.5,2.5,0,0,1,2.7,2.68,2.512,2.512,0,0,1-2.7,2.48ZM-219.68,0h2.36V-4.78h2.74c2.86,0,4.86-1.86,4.86-4.52a4.485,4.485,0,0,0-4.86-4.7h-5.1Zm2.36-6.8v-5.16h2.54a2.5,2.5,0,0,1,2.7,2.68,2.512,2.512,0,0,1-2.7,2.48ZM-208.8,0h2.4l1.18-3.42h6.06l1.2,3.42h2.38l-5.12-14h-3Zm4.3-5.44,2.28-6.58h.04l2.32,6.58ZM-192.64,0h2.36V-10.76h.08L-184.56,0h3.42V-14.02h-2.36V-2.4h-.06L-189.78-14h-2.86Zm23.86.3c2.62,0,4.26-1.46,4.26-4.24V-14h-2.36V-3.96c0,1.74-.8,2.4-1.98,2.4-1.2,0-2.04-.66-2.04-2.42v-1l-2.3.18v.88C-173.2-1.3-171.54.3-168.78.3Zm6.9-.3h2.4l1.18-3.42h6.06l1.2,3.42h2.38l-5.12-14h-3Zm4.3-5.44,2.28-6.58h.04l2.32,6.58ZM-145.72,0h2.36V-4.78h2.74c2.86,0,4.86-1.86,4.86-4.52a4.485,4.485,0,0,0-4.86-4.7h-5.1Zm2.36-6.8v-5.16h2.54a2.5,2.5,0,0,1,2.7,2.68,2.512,2.512,0,0,1-2.7,2.48ZM-132.58,0h2.36V-4.78h2.74c2.86,0,4.86-1.86,4.86-4.52a4.485,4.485,0,0,0-4.86-4.7h-5.1Zm2.36-6.8v-5.16h2.54a2.5,2.5,0,0,1,2.7,2.68,2.512,2.512,0,0,1-2.7,2.48ZM-121.7,0h2.4l1.18-3.42h6.06l1.2,3.42h2.38l-5.12-14h-3Zm4.3-5.44,2.28-6.58h.04l2.32,6.58ZM-105.54,0h2.36V-10.76h.08L-97.46,0h3.42V-14.02H-96.4V-2.4h-.06L-102.68-14h-2.86Zm23.86.3c2.62,0,4.26-1.46,4.26-4.24V-14h-2.36V-3.96c0,1.74-.8,2.4-1.98,2.4-1.2,0-2.04-.66-2.04-2.42v-1l-2.3.18v.88C-86.1-1.3-84.44.3-81.68.3Zm6.9-.3h2.4l1.18-3.42h6.06L-63.94,0h2.38l-5.12-14h-3Zm4.3-5.44,2.28-6.58h.04l2.32,6.58ZM-58.62,0h2.36V-4.78h2.74c2.86,0,4.86-1.86,4.86-4.52A4.485,4.485,0,0,0-53.52-14h-5.1Zm2.36-6.8v-5.16h2.54a2.5,2.5,0,0,1,2.7,2.68,2.512,2.512,0,0,1-2.7,2.48ZM-45.48,0h2.36V-4.78h2.74c2.86,0,4.86-1.86,4.86-4.52A4.485,4.485,0,0,0-40.38-14h-5.1Zm2.36-6.8v-5.16h2.54a2.5,2.5,0,0,1,2.7,2.68,2.512,2.512,0,0,1-2.7,2.48ZM-34.6,0h2.4l1.18-3.42h6.06L-23.76,0h2.38L-26.5-14h-3Zm4.3-5.44,2.28-6.58h.04l2.32,6.58ZM-18.44,0h2.36V-10.76H-16L-10.36,0h3.42V-14.02H-9.3V-2.4h-.06L-15.58-14h-2.86Z" transform="translate(22 4) rotate(-90)"/>
  </g>
</svg>
