<svg xmlns="http://www.w3.org/2000/svg" xmlns:xlink="http://www.w3.org/1999/xlink" width="30" height="2000" viewBox="0 0 30 2000">
  <defs>
    <clipPath id="clip-Web_1920_77">
      <rect width="30" height="2000"/>
    </clipPath>
  </defs>
  <g id="Web_1920_77" data-name="Web 1920 – 77" clip-path="url(#clip-Web_1920_77)">
    <rect width="30" height="2000" fill="#fff"/>
    <rect id="Rechteck_482" data-name="Rechteck 482" width="30" height="2789" fill="#fff"/>
    <rect id="Rechteck_483" data-name="Rechteck 483" width="30" height="2654" fill="#fff"/>
    <path id="Pfad_8904" data-name="Pfad 8904" d="M3.006-14.04H15.138V1.242H13.3V-12.312H4.752V1.314H3.006Zm1.17,6.156h9.9v1.692h-9.9Zm-.018,6.3h9.936V.126H4.158Zm15.948-9.954h15.8v1.746h-15.8Zm3.636,8.1H32.13V-1.71H23.742Zm3.33-11.754h1.8v16.7h-1.8Zm-.522,4.266,1.548.5A20.956,20.956,0,0,1,26.181-6.75,19.965,19.965,0,0,1,23.643-3.6a15.675,15.675,0,0,1-2.961,2.358,3.29,3.29,0,0,0-.351-.477q-.225-.261-.45-.513a3.842,3.842,0,0,0-.423-.414A13.465,13.465,0,0,0,21.627-4.14a17.117,17.117,0,0,0,1.989-1.971A17.341,17.341,0,0,0,25.3-8.433,16.99,16.99,0,0,0,26.55-10.926Zm2.862.054A17.562,17.562,0,0,0,31.2-7.659a16.826,16.826,0,0,0,2.475,2.817,13.193,13.193,0,0,0,2.916,2.034q-.2.18-.45.441a6.948,6.948,0,0,0-.477.549A5.818,5.818,0,0,0,35.3-1.3a14.492,14.492,0,0,1-2.979-2.313A19.256,19.256,0,0,1,29.8-6.732a22.365,22.365,0,0,1-1.917-3.636ZM46.026-14.04H58.158V1.242H56.322V-12.312h-8.55V1.314H46.026ZM47.2-7.884h9.9v1.692H47.2Zm-.018,6.3h9.936V.126H47.178Zm15.948-9.954h15.8v1.746h-15.8Zm3.636,8.1H75.15V-1.71H66.762Zm3.33-11.754h1.8v16.7h-1.8Zm-.522,4.266,1.548.5A20.955,20.955,0,0,1,69.2-6.75,19.965,19.965,0,0,1,66.663-3.6,15.675,15.675,0,0,1,63.7-1.242a3.291,3.291,0,0,0-.351-.477q-.225-.261-.45-.513a3.842,3.842,0,0,0-.423-.414A13.465,13.465,0,0,0,64.647-4.14a17.117,17.117,0,0,0,1.989-1.971,17.341,17.341,0,0,0,1.683-2.322A16.991,16.991,0,0,0,69.57-10.926Zm2.862.054a17.561,17.561,0,0,0,1.791,3.213A16.825,16.825,0,0,0,76.7-4.842a13.193,13.193,0,0,0,2.916,2.034q-.2.18-.45.441a6.948,6.948,0,0,0-.477.549,5.817,5.817,0,0,0-.369.522,14.492,14.492,0,0,1-2.979-2.313,19.256,19.256,0,0,1-2.52-3.123A22.365,22.365,0,0,1,70.9-10.368ZM89.046-14.04h12.132V1.242H99.342V-12.312h-8.55V1.314H89.046Zm1.17,6.156h9.9v1.692h-9.9Zm-.018,6.3h9.936V.126H90.2Zm15.948-9.954h15.8v1.746h-15.8Zm3.636,8.1h8.388V-1.71h-8.388Zm3.33-11.754h1.8v16.7h-1.8Zm-.522,4.266,1.548.5a20.955,20.955,0,0,1-1.917,3.672,19.965,19.965,0,0,1-2.538,3.15,15.675,15.675,0,0,1-2.961,2.358,3.29,3.29,0,0,0-.351-.477q-.225-.261-.45-.513a3.843,3.843,0,0,0-.423-.414,13.466,13.466,0,0,0,2.169-1.494,17.117,17.117,0,0,0,1.989-1.971,17.341,17.341,0,0,0,1.683-2.322A16.989,16.989,0,0,0,112.59-10.926Zm2.862.054a17.562,17.562,0,0,0,1.791,3.213,16.826,16.826,0,0,0,2.475,2.817,13.193,13.193,0,0,0,2.916,2.034q-.2.18-.45.441a6.948,6.948,0,0,0-.477.549,5.817,5.817,0,0,0-.369.522,14.492,14.492,0,0,1-2.979-2.313,19.256,19.256,0,0,1-2.52-3.123,22.365,22.365,0,0,1-1.917-3.636Zm16.614-3.168H144.2V1.242h-1.836V-12.312h-8.55V1.314h-1.746Zm1.17,6.156h9.9v1.692h-9.9Zm-.018,6.3h9.936V.126h-9.936Zm15.948-9.954h15.8v1.746h-15.8Zm3.636,8.1h8.388V-1.71H152.8Zm3.33-11.754h1.8v16.7h-1.8Zm-.522,4.266,1.548.5a20.955,20.955,0,0,1-1.917,3.672A19.964,19.964,0,0,1,152.7-3.6a15.675,15.675,0,0,1-2.961,2.358,3.29,3.29,0,0,0-.351-.477q-.225-.261-.45-.513a3.843,3.843,0,0,0-.423-.414,13.465,13.465,0,0,0,2.169-1.494,17.117,17.117,0,0,0,1.989-1.971,17.342,17.342,0,0,0,1.683-2.322A16.989,16.989,0,0,0,155.61-10.926Zm2.862.054a17.562,17.562,0,0,0,1.791,3.213,16.826,16.826,0,0,0,2.475,2.817,13.193,13.193,0,0,0,2.916,2.034q-.2.18-.45.441a6.944,6.944,0,0,0-.477.549,5.814,5.814,0,0,0-.369.522,14.493,14.493,0,0,1-2.979-2.313,19.256,19.256,0,0,1-2.52-3.123,22.365,22.365,0,0,1-1.917-3.636Zm16.614-3.168h12.132V1.242h-1.836V-12.312h-8.55V1.314h-1.746Zm1.17,6.156h9.9v1.692h-9.9Zm-.018,6.3h9.936V.126h-9.936Zm15.948-9.954h15.8v1.746h-15.8Zm3.636,8.1h8.388V-1.71h-8.388Zm3.33-11.754h1.8v16.7h-1.8Zm-.522,4.266,1.548.5a20.955,20.955,0,0,1-1.917,3.672,19.964,19.964,0,0,1-2.538,3.15,15.675,15.675,0,0,1-2.961,2.358,3.29,3.29,0,0,0-.351-.477q-.225-.261-.45-.513a3.843,3.843,0,0,0-.423-.414,13.465,13.465,0,0,0,2.169-1.494A17.117,17.117,0,0,0,195.7-6.111a17.342,17.342,0,0,0,1.683-2.322A16.989,16.989,0,0,0,198.63-10.926Zm2.862.054a17.562,17.562,0,0,0,1.791,3.213,16.826,16.826,0,0,0,2.475,2.817,13.193,13.193,0,0,0,2.916,2.034q-.2.18-.45.441a6.953,6.953,0,0,0-.477.549,5.814,5.814,0,0,0-.369.522A14.493,14.493,0,0,1,204.4-3.609a19.256,19.256,0,0,1-2.52-3.123,22.365,22.365,0,0,1-1.917-3.636Zm16.614-3.168h12.132V1.242H228.4V-12.312h-8.55V1.314h-1.746Zm1.17,6.156h9.9v1.692h-9.9Zm-.018,6.3h9.936V.126h-9.936Zm15.948-9.954h15.8v1.746h-15.8Zm3.636,8.1h8.388V-1.71h-8.388Zm3.33-11.754h1.8v16.7h-1.8Zm-.522,4.266,1.548.5a20.955,20.955,0,0,1-1.917,3.672,19.964,19.964,0,0,1-2.538,3.15,15.675,15.675,0,0,1-2.961,2.358,3.29,3.29,0,0,0-.351-.477q-.225-.261-.45-.513a3.843,3.843,0,0,0-.423-.414,13.465,13.465,0,0,0,2.169-1.494,17.117,17.117,0,0,0,1.989-1.971A17.342,17.342,0,0,0,240.4-8.433,16.989,16.989,0,0,0,241.65-10.926Zm2.862.054A17.562,17.562,0,0,0,246.3-7.659a16.826,16.826,0,0,0,2.475,2.817,13.193,13.193,0,0,0,2.916,2.034q-.2.18-.45.441a6.953,6.953,0,0,0-.477.549,5.814,5.814,0,0,0-.369.522,14.493,14.493,0,0,1-2.979-2.313,19.256,19.256,0,0,1-2.52-3.123,22.365,22.365,0,0,1-1.917-3.636Zm16.614-3.168h12.132V1.242h-1.836V-12.312h-8.55V1.314h-1.746Zm1.17,6.156h9.9v1.692h-9.9Zm-.018,6.3h9.936V.126h-9.936Zm15.948-9.954h15.8v1.746h-15.8Zm3.636,8.1h8.388V-1.71h-8.388Zm3.33-11.754h1.8v16.7h-1.8Zm-.522,4.266,1.548.5A20.957,20.957,0,0,1,284.3-6.75a19.965,19.965,0,0,1-2.538,3.15A15.675,15.675,0,0,1,278.8-1.242a3.289,3.289,0,0,0-.351-.477q-.225-.261-.45-.513a3.843,3.843,0,0,0-.423-.414,13.465,13.465,0,0,0,2.169-1.494,17.117,17.117,0,0,0,1.989-1.971,17.34,17.34,0,0,0,1.683-2.322A16.988,16.988,0,0,0,284.67-10.926Zm2.862.054a17.56,17.56,0,0,0,1.791,3.213A16.826,16.826,0,0,0,291.8-4.842a13.194,13.194,0,0,0,2.916,2.034q-.2.18-.45.441a6.947,6.947,0,0,0-.477.549,5.814,5.814,0,0,0-.369.522,14.492,14.492,0,0,1-2.979-2.313,19.255,19.255,0,0,1-2.52-3.123A22.364,22.364,0,0,1,286-10.368Zm16.614-3.168h12.132V1.242h-1.836V-12.312h-8.55V1.314h-1.746Zm1.17,6.156h9.9v1.692h-9.9Zm-.018,6.3h9.936V.126H305.3Zm15.948-9.954h15.8v1.746h-15.8Zm3.636,8.1h8.388V-1.71h-8.388Zm3.33-11.754h1.8v16.7h-1.8Zm-.522,4.266,1.548.5a20.957,20.957,0,0,1-1.917,3.672,19.965,19.965,0,0,1-2.538,3.15,15.675,15.675,0,0,1-2.961,2.358,3.289,3.289,0,0,0-.351-.477q-.225-.261-.45-.513a3.843,3.843,0,0,0-.423-.414,13.465,13.465,0,0,0,2.169-1.494,17.117,17.117,0,0,0,1.989-1.971,17.34,17.34,0,0,0,1.683-2.322A16.988,16.988,0,0,0,327.69-10.926Zm2.862.054a17.56,17.56,0,0,0,1.791,3.213,16.826,16.826,0,0,0,2.475,2.817,13.194,13.194,0,0,0,2.916,2.034q-.2.18-.45.441a6.947,6.947,0,0,0-.477.549,5.814,5.814,0,0,0-.369.522,14.492,14.492,0,0,1-2.979-2.313,19.255,19.255,0,0,1-2.52-3.123,22.364,22.364,0,0,1-1.917-3.636Zm16.614-3.168H359.3V1.242h-1.836V-12.312h-8.55V1.314h-1.746Zm1.17,6.156h9.9v1.692h-9.9Zm-.018,6.3h9.936V.126h-9.936Zm15.948-9.954h15.8v1.746h-15.8Zm3.636,8.1h8.388V-1.71H367.9Zm3.33-11.754h1.8v16.7h-1.8Zm-.522,4.266,1.548.5a20.955,20.955,0,0,1-1.917,3.672A19.965,19.965,0,0,1,367.8-3.6a15.675,15.675,0,0,1-2.961,2.358,3.289,3.289,0,0,0-.351-.477q-.225-.261-.45-.513a3.843,3.843,0,0,0-.423-.414,13.465,13.465,0,0,0,2.169-1.494,17.117,17.117,0,0,0,1.989-1.971,17.34,17.34,0,0,0,1.683-2.322A16.988,16.988,0,0,0,370.71-10.926Zm2.862.054a17.56,17.56,0,0,0,1.791,3.213,16.826,16.826,0,0,0,2.475,2.817,13.194,13.194,0,0,0,2.916,2.034q-.2.18-.45.441a6.947,6.947,0,0,0-.477.549,5.814,5.814,0,0,0-.369.522,14.492,14.492,0,0,1-2.979-2.313,19.255,19.255,0,0,1-2.52-3.123,22.364,22.364,0,0,1-1.917-3.636Zm16.614-3.168h12.132V1.242h-1.836V-12.312h-8.55V1.314h-1.746Zm1.17,6.156h9.9v1.692h-9.9Zm-.018,6.3h9.936V.126h-9.936Zm15.948-9.954h15.8v1.746h-15.8Zm3.636,8.1h8.388V-1.71h-8.388Zm3.33-11.754h1.8v16.7h-1.8Zm-.522,4.266,1.548.5a20.955,20.955,0,0,1-1.917,3.672,19.965,19.965,0,0,1-2.538,3.15,15.675,15.675,0,0,1-2.961,2.358,3.289,3.289,0,0,0-.351-.477q-.225-.261-.45-.513a3.843,3.843,0,0,0-.423-.414,13.465,13.465,0,0,0,2.169-1.494A17.117,17.117,0,0,0,410.8-6.111a17.34,17.34,0,0,0,1.683-2.322A16.988,16.988,0,0,0,413.73-10.926Zm2.862.054a17.56,17.56,0,0,0,1.791,3.213,16.826,16.826,0,0,0,2.475,2.817,13.194,13.194,0,0,0,2.916,2.034q-.2.18-.45.441a6.947,6.947,0,0,0-.477.549,5.814,5.814,0,0,0-.369.522A14.492,14.492,0,0,1,419.5-3.609a19.255,19.255,0,0,1-2.52-3.123,22.364,22.364,0,0,1-1.917-3.636Zm16.614-3.168h12.132V1.242H443.5V-12.312h-8.55V1.314h-1.746Zm1.17,6.156h9.9v1.692h-9.9Zm-.018,6.3h9.936V.126h-9.936Zm15.948-9.954h15.8v1.746h-15.8Zm3.636,8.1h8.388V-1.71h-8.388Zm3.33-11.754h1.8v16.7h-1.8Zm-.522,4.266,1.548.5a20.957,20.957,0,0,1-1.917,3.672,19.965,19.965,0,0,1-2.538,3.15,15.675,15.675,0,0,1-2.961,2.358,3.289,3.289,0,0,0-.351-.477q-.225-.261-.45-.513a3.843,3.843,0,0,0-.423-.414,13.465,13.465,0,0,0,2.169-1.494,17.117,17.117,0,0,0,1.989-1.971A17.34,17.34,0,0,0,455.5-8.433,16.988,16.988,0,0,0,456.75-10.926Zm2.862.054A17.56,17.56,0,0,0,461.4-7.659a16.826,16.826,0,0,0,2.475,2.817,13.194,13.194,0,0,0,2.916,2.034q-.2.18-.45.441a6.947,6.947,0,0,0-.477.549,5.814,5.814,0,0,0-.369.522,14.492,14.492,0,0,1-2.979-2.313A19.255,19.255,0,0,1,460-6.732a22.364,22.364,0,0,1-1.917-3.636Zm16.614-3.168h12.132V1.242h-1.836V-12.312h-8.55V1.314h-1.746Zm1.17,6.156h9.9v1.692h-9.9Zm-.018,6.3h9.936V.126h-9.936Zm15.948-9.954h15.8v1.746h-15.8Zm3.636,8.1h8.388V-1.71h-8.388Zm3.33-11.754h1.8v16.7h-1.8Zm-.522,4.266,1.548.5A20.955,20.955,0,0,1,499.4-6.75a19.965,19.965,0,0,1-2.538,3.15A15.675,15.675,0,0,1,493.9-1.242a3.289,3.289,0,0,0-.351-.477q-.225-.261-.45-.513a3.843,3.843,0,0,0-.423-.414,13.465,13.465,0,0,0,2.169-1.494,17.117,17.117,0,0,0,1.989-1.971,17.34,17.34,0,0,0,1.683-2.322A16.988,16.988,0,0,0,499.77-10.926Zm2.862.054a17.56,17.56,0,0,0,1.791,3.213A16.826,16.826,0,0,0,506.9-4.842a13.194,13.194,0,0,0,2.916,2.034q-.2.18-.45.441a6.947,6.947,0,0,0-.477.549,5.814,5.814,0,0,0-.369.522,14.492,14.492,0,0,1-2.979-2.313,19.255,19.255,0,0,1-2.52-3.123,22.364,22.364,0,0,1-1.917-3.636Zm16.614-3.168h12.132V1.242h-1.836V-12.312h-8.55V1.314h-1.746Zm1.17,6.156h9.9v1.692h-9.9Zm-.018,6.3h9.936V.126H520.4Zm15.948-9.954h15.8v1.746h-15.8Zm3.636,8.1h8.388V-1.71h-8.388Zm3.33-11.754h1.8v16.7h-1.8Zm-.522,4.266,1.548.5a20.953,20.953,0,0,1-1.917,3.672,19.966,19.966,0,0,1-2.538,3.15,15.674,15.674,0,0,1-2.961,2.358,3.3,3.3,0,0,0-.351-.477q-.225-.261-.45-.513a3.837,3.837,0,0,0-.423-.414,13.469,13.469,0,0,0,2.169-1.494,17.117,17.117,0,0,0,1.989-1.971,17.338,17.338,0,0,0,1.683-2.322A16.991,16.991,0,0,0,542.79-10.926Zm2.862.054a17.562,17.562,0,0,0,1.791,3.213,16.826,16.826,0,0,0,2.475,2.817,13.193,13.193,0,0,0,2.916,2.034q-.2.18-.45.441a6.934,6.934,0,0,0-.477.549,5.827,5.827,0,0,0-.369.522,14.493,14.493,0,0,1-2.979-2.313,19.256,19.256,0,0,1-2.52-3.123,22.366,22.366,0,0,1-1.917-3.636Zm16.614-3.168H574.4V1.242h-1.836V-12.312h-8.55V1.314h-1.746Zm1.17,6.156h9.9v1.692h-9.9Zm-.018,6.3h9.936V.126h-9.936Zm15.948-9.954h15.8v1.746h-15.8ZM583-3.438h8.388V-1.71H583Zm3.33-11.754h1.8v16.7h-1.8Zm-.522,4.266,1.548.5a20.953,20.953,0,0,1-1.917,3.672A19.966,19.966,0,0,1,582.9-3.6a15.674,15.674,0,0,1-2.961,2.358,3.3,3.3,0,0,0-.351-.477q-.225-.261-.45-.513a3.837,3.837,0,0,0-.423-.414,13.469,13.469,0,0,0,2.169-1.494,17.117,17.117,0,0,0,1.989-1.971,17.338,17.338,0,0,0,1.683-2.322A16.991,16.991,0,0,0,585.81-10.926Zm2.862.054a17.562,17.562,0,0,0,1.791,3.213,16.826,16.826,0,0,0,2.475,2.817,13.193,13.193,0,0,0,2.916,2.034q-.2.18-.45.441a6.934,6.934,0,0,0-.477.549,5.827,5.827,0,0,0-.369.522,14.493,14.493,0,0,1-2.979-2.313,19.256,19.256,0,0,1-2.52-3.123,22.366,22.366,0,0,1-1.917-3.636Zm16.614-3.168h12.132V1.242h-1.836V-12.312h-8.55V1.314h-1.746Zm1.17,6.156h9.9v1.692h-9.9Zm-.018,6.3h9.936V.126h-9.936Zm15.948-9.954h15.8v1.746h-15.8Zm3.636,8.1h8.388V-1.71h-8.388Zm3.33-11.754h1.8v16.7h-1.8Zm-.522,4.266,1.548.5a20.953,20.953,0,0,1-1.917,3.672,19.966,19.966,0,0,1-2.538,3.15,15.674,15.674,0,0,1-2.961,2.358,3.3,3.3,0,0,0-.351-.477q-.225-.261-.45-.513a3.837,3.837,0,0,0-.423-.414,13.469,13.469,0,0,0,2.169-1.494A17.117,17.117,0,0,0,625.9-6.111a17.338,17.338,0,0,0,1.683-2.322A16.991,16.991,0,0,0,628.83-10.926Zm2.862.054a17.562,17.562,0,0,0,1.791,3.213,16.826,16.826,0,0,0,2.475,2.817,13.193,13.193,0,0,0,2.916,2.034q-.2.18-.45.441a6.934,6.934,0,0,0-.477.549,5.827,5.827,0,0,0-.369.522A14.493,14.493,0,0,1,634.6-3.609a19.256,19.256,0,0,1-2.52-3.123,22.366,22.366,0,0,1-1.917-3.636Zm16.614-3.168h12.132V1.242H658.6V-12.312h-8.55V1.314h-1.746Zm1.17,6.156h9.9v1.692h-9.9Zm-.018,6.3h9.936V.126h-9.936Zm15.948-9.954h15.8v1.746h-15.8Zm3.636,8.1h8.388V-1.71h-8.388Zm3.33-11.754h1.8v16.7h-1.8Zm-.522,4.266,1.548.5a20.953,20.953,0,0,1-1.917,3.672,19.966,19.966,0,0,1-2.538,3.15,15.674,15.674,0,0,1-2.961,2.358,3.3,3.3,0,0,0-.351-.477q-.225-.261-.45-.513a3.837,3.837,0,0,0-.423-.414,13.469,13.469,0,0,0,2.169-1.494,17.117,17.117,0,0,0,1.989-1.971A17.338,17.338,0,0,0,670.6-8.433,16.991,16.991,0,0,0,671.85-10.926Zm2.862.054A17.562,17.562,0,0,0,676.5-7.659a16.826,16.826,0,0,0,2.475,2.817,13.193,13.193,0,0,0,2.916,2.034q-.2.18-.45.441a6.934,6.934,0,0,0-.477.549,5.827,5.827,0,0,0-.369.522,14.493,14.493,0,0,1-2.979-2.313,19.256,19.256,0,0,1-2.52-3.123,22.366,22.366,0,0,1-1.917-3.636Zm16.614-3.168h12.132V1.242h-1.836V-12.312h-8.55V1.314h-1.746Zm1.17,6.156h9.9v1.692h-9.9Zm-.018,6.3h9.936V.126h-9.936Zm15.948-9.954h15.8v1.746h-15.8Zm3.636,8.1h8.388V-1.71h-8.388Zm3.33-11.754h1.8v16.7h-1.8Zm-.522,4.266,1.548.5A20.953,20.953,0,0,1,714.5-6.75a19.966,19.966,0,0,1-2.538,3.15A15.674,15.674,0,0,1,709-1.242a3.3,3.3,0,0,0-.351-.477q-.225-.261-.45-.513a3.837,3.837,0,0,0-.423-.414,13.469,13.469,0,0,0,2.169-1.494,17.117,17.117,0,0,0,1.989-1.971,17.338,17.338,0,0,0,1.683-2.322A16.991,16.991,0,0,0,714.87-10.926Zm2.862.054a17.562,17.562,0,0,0,1.791,3.213A16.826,16.826,0,0,0,722-4.842a13.193,13.193,0,0,0,2.916,2.034q-.2.18-.45.441a6.934,6.934,0,0,0-.477.549,5.827,5.827,0,0,0-.369.522,14.493,14.493,0,0,1-2.979-2.313,19.256,19.256,0,0,1-2.52-3.123,22.366,22.366,0,0,1-1.917-3.636Zm16.614-3.168h12.132V1.242h-1.836V-12.312h-8.55V1.314h-1.746Zm1.17,6.156h9.9v1.692h-9.9Zm-.018,6.3h9.936V.126H735.5Zm15.948-9.954h15.8v1.746h-15.8Zm3.636,8.1h8.388V-1.71h-8.388Zm3.33-11.754h1.8v16.7h-1.8Zm-.522,4.266,1.548.5a20.953,20.953,0,0,1-1.917,3.672,19.966,19.966,0,0,1-2.538,3.15,15.674,15.674,0,0,1-2.961,2.358,3.3,3.3,0,0,0-.351-.477q-.225-.261-.45-.513a3.837,3.837,0,0,0-.423-.414,13.469,13.469,0,0,0,2.169-1.494,17.117,17.117,0,0,0,1.989-1.971,17.338,17.338,0,0,0,1.683-2.322A16.991,16.991,0,0,0,757.89-10.926Zm2.862.054a17.562,17.562,0,0,0,1.791,3.213,16.826,16.826,0,0,0,2.475,2.817,13.193,13.193,0,0,0,2.916,2.034q-.2.18-.45.441a6.934,6.934,0,0,0-.477.549,5.827,5.827,0,0,0-.369.522,14.493,14.493,0,0,1-2.979-2.313,19.256,19.256,0,0,1-2.52-3.123,22.366,22.366,0,0,1-1.917-3.636Zm16.614-3.168H789.5V1.242h-1.836V-12.312h-8.55V1.314h-1.746Zm1.17,6.156h9.9v1.692h-9.9Zm-.018,6.3h9.936V.126h-9.936Zm15.948-9.954h15.8v1.746h-15.8Zm3.636,8.1h8.388V-1.71H798.1Zm3.33-11.754h1.8v16.7h-1.8Zm-.522,4.266,1.548.5a20.953,20.953,0,0,1-1.917,3.672A19.966,19.966,0,0,1,798-3.6a15.674,15.674,0,0,1-2.961,2.358,3.3,3.3,0,0,0-.351-.477q-.225-.261-.45-.513a3.837,3.837,0,0,0-.423-.414,13.469,13.469,0,0,0,2.169-1.494,17.117,17.117,0,0,0,1.989-1.971,17.338,17.338,0,0,0,1.683-2.322A16.991,16.991,0,0,0,800.91-10.926Zm2.862.054a17.562,17.562,0,0,0,1.791,3.213,16.826,16.826,0,0,0,2.475,2.817,13.193,13.193,0,0,0,2.916,2.034q-.2.18-.45.441a6.934,6.934,0,0,0-.477.549,5.827,5.827,0,0,0-.369.522,14.493,14.493,0,0,1-2.979-2.313,19.256,19.256,0,0,1-2.52-3.123,22.366,22.366,0,0,1-1.917-3.636Zm16.614-3.168h12.132V1.242h-1.836V-12.312h-8.55V1.314h-1.746Zm1.17,6.156h9.9v1.692h-9.9Zm-.018,6.3h9.936V.126h-9.936Zm15.948-9.954h15.8v1.746h-15.8Zm3.636,8.1h8.388V-1.71h-8.388Zm3.33-11.754h1.8v16.7h-1.8Zm-.522,4.266,1.548.5a20.953,20.953,0,0,1-1.917,3.672,19.966,19.966,0,0,1-2.538,3.15,15.674,15.674,0,0,1-2.961,2.358,3.3,3.3,0,0,0-.351-.477q-.225-.261-.45-.513a3.837,3.837,0,0,0-.423-.414,13.469,13.469,0,0,0,2.169-1.494A17.117,17.117,0,0,0,841-6.111a17.338,17.338,0,0,0,1.683-2.322A16.991,16.991,0,0,0,843.93-10.926Zm2.862.054a17.562,17.562,0,0,0,1.791,3.213,16.826,16.826,0,0,0,2.475,2.817,13.193,13.193,0,0,0,2.916,2.034q-.2.18-.45.441a6.934,6.934,0,0,0-.477.549,5.827,5.827,0,0,0-.369.522A14.493,14.493,0,0,1,849.7-3.609a19.256,19.256,0,0,1-2.52-3.123,22.366,22.366,0,0,1-1.917-3.636Zm16.614-3.168h12.132V1.242H873.7V-12.312h-8.55V1.314h-1.746Zm1.17,6.156h9.9v1.692h-9.9Zm-.018,6.3h9.936V.126h-9.936Zm15.948-9.954h15.8v1.746h-15.8Zm3.636,8.1h8.388V-1.71h-8.388Zm3.33-11.754h1.8v16.7h-1.8Zm-.522,4.266,1.548.5a20.953,20.953,0,0,1-1.917,3.672,19.966,19.966,0,0,1-2.538,3.15,15.674,15.674,0,0,1-2.961,2.358,3.3,3.3,0,0,0-.351-.477q-.225-.261-.45-.513a3.837,3.837,0,0,0-.423-.414,13.469,13.469,0,0,0,2.169-1.494,17.117,17.117,0,0,0,1.989-1.971A17.338,17.338,0,0,0,885.7-8.433,16.991,16.991,0,0,0,886.95-10.926Zm2.862.054A17.562,17.562,0,0,0,891.6-7.659a16.826,16.826,0,0,0,2.475,2.817,13.193,13.193,0,0,0,2.916,2.034q-.2.18-.45.441a6.934,6.934,0,0,0-.477.549,5.827,5.827,0,0,0-.369.522,14.493,14.493,0,0,1-2.979-2.313,19.256,19.256,0,0,1-2.52-3.123,22.366,22.366,0,0,1-1.917-3.636Zm16.614-3.168h12.132V1.242h-1.836V-12.312h-8.55V1.314h-1.746Zm1.17,6.156h9.9v1.692h-9.9Zm-.018,6.3h9.936V.126h-9.936Zm15.948-9.954h15.8v1.746h-15.8Zm3.636,8.1h8.388V-1.71h-8.388Zm3.33-11.754h1.8v16.7h-1.8Zm-.522,4.266,1.548.5A20.953,20.953,0,0,1,929.6-6.75a19.966,19.966,0,0,1-2.538,3.15A15.674,15.674,0,0,1,924.1-1.242a3.3,3.3,0,0,0-.351-.477q-.225-.261-.45-.513a3.837,3.837,0,0,0-.423-.414,13.469,13.469,0,0,0,2.169-1.494,17.117,17.117,0,0,0,1.989-1.971,17.338,17.338,0,0,0,1.683-2.322A16.991,16.991,0,0,0,929.97-10.926Zm2.862.054a17.562,17.562,0,0,0,1.791,3.213A16.826,16.826,0,0,0,937.1-4.842a13.193,13.193,0,0,0,2.916,2.034q-.2.18-.45.441a6.934,6.934,0,0,0-.477.549,5.827,5.827,0,0,0-.369.522,14.493,14.493,0,0,1-2.979-2.313,19.256,19.256,0,0,1-2.52-3.123,22.366,22.366,0,0,1-1.917-3.636Zm16.614-3.168h12.132V1.242h-1.836V-12.312h-8.55V1.314h-1.746Zm1.17,6.156h9.9v1.692h-9.9Zm-.018,6.3h9.936V.126H950.6Zm15.948-9.954h15.8v1.746h-15.8Zm3.636,8.1h8.388V-1.71h-8.388Zm3.33-11.754h1.8v16.7h-1.8Zm-.522,4.266,1.548.5a20.953,20.953,0,0,1-1.917,3.672,19.966,19.966,0,0,1-2.538,3.15,15.674,15.674,0,0,1-2.961,2.358,3.3,3.3,0,0,0-.351-.477q-.225-.261-.45-.513a3.837,3.837,0,0,0-.423-.414,13.469,13.469,0,0,0,2.169-1.494,17.117,17.117,0,0,0,1.989-1.971,17.338,17.338,0,0,0,1.683-2.322A16.991,16.991,0,0,0,972.99-10.926Zm2.862.054a17.562,17.562,0,0,0,1.791,3.213,16.826,16.826,0,0,0,2.475,2.817,13.193,13.193,0,0,0,2.916,2.034q-.2.18-.45.441a6.934,6.934,0,0,0-.477.549,5.827,5.827,0,0,0-.369.522,14.493,14.493,0,0,1-2.979-2.313,19.256,19.256,0,0,1-2.52-3.123,22.366,22.366,0,0,1-1.917-3.636Zm16.614-3.168H1004.6V1.242h-1.836V-12.312h-8.55V1.314h-1.746Zm1.17,6.156h9.9v1.692h-9.9Zm-.018,6.3h9.936V.126h-9.936Zm15.948-9.954h15.8v1.746h-15.8Zm3.636,8.1h8.388V-1.71H1013.2Zm3.33-11.754h1.8v16.7h-1.8Zm-.522,4.266,1.548.5a20.953,20.953,0,0,1-1.917,3.672A19.966,19.966,0,0,1,1013.1-3.6a15.674,15.674,0,0,1-2.961,2.358,3.3,3.3,0,0,0-.351-.477q-.225-.261-.45-.513a3.837,3.837,0,0,0-.423-.414,13.469,13.469,0,0,0,2.169-1.494,17.117,17.117,0,0,0,1.989-1.971,17.338,17.338,0,0,0,1.683-2.322A16.991,16.991,0,0,0,1016.01-10.926Zm2.862.054a17.562,17.562,0,0,0,1.791,3.213,16.826,16.826,0,0,0,2.475,2.817,13.2,13.2,0,0,0,2.916,2.034q-.2.18-.45.441a6.96,6.96,0,0,0-.477.549,5.8,5.8,0,0,0-.369.522,14.492,14.492,0,0,1-2.979-2.313,19.256,19.256,0,0,1-2.52-3.123,22.366,22.366,0,0,1-1.917-3.636Zm16.614-3.168h12.132V1.242h-1.836V-12.312h-8.55V1.314h-1.746Zm1.17,6.156h9.9v1.692h-9.9Zm-.018,6.3h9.936V.126h-9.936Zm15.948-9.954h15.8v1.746h-15.8Zm3.636,8.1h8.388V-1.71h-8.388Zm3.33-11.754h1.8v16.7h-1.8Zm-.522,4.266,1.548.5a20.957,20.957,0,0,1-1.917,3.672,19.967,19.967,0,0,1-2.538,3.15,15.67,15.67,0,0,1-2.961,2.358,3.288,3.288,0,0,0-.351-.477q-.225-.261-.45-.513a3.848,3.848,0,0,0-.423-.414,13.465,13.465,0,0,0,2.169-1.494,17.117,17.117,0,0,0,1.989-1.971,17.332,17.332,0,0,0,1.683-2.322A16.992,16.992,0,0,0,1059.03-10.926Zm2.862.054a17.566,17.566,0,0,0,1.791,3.213,16.826,16.826,0,0,0,2.475,2.817,13.192,13.192,0,0,0,2.916,2.034q-.2.18-.45.441a6.935,6.935,0,0,0-.477.549,5.827,5.827,0,0,0-.369.522,14.493,14.493,0,0,1-2.979-2.313,19.253,19.253,0,0,1-2.52-3.123,22.362,22.362,0,0,1-1.917-3.636Zm16.614-3.168h12.132V1.242H1088.8V-12.312h-8.55V1.314h-1.746Zm1.17,6.156h9.9v1.692h-9.9Zm-.018,6.3h9.936V.126h-9.936Zm15.948-9.954h15.8v1.746h-15.8Zm3.636,8.1h8.388V-1.71h-8.388Zm3.33-11.754h1.8v16.7h-1.8Zm-.522,4.266,1.548.5a20.957,20.957,0,0,1-1.917,3.672,19.967,19.967,0,0,1-2.538,3.15,15.67,15.67,0,0,1-2.961,2.358,3.288,3.288,0,0,0-.351-.477q-.225-.261-.45-.513a3.848,3.848,0,0,0-.423-.414,13.465,13.465,0,0,0,2.169-1.494,17.117,17.117,0,0,0,1.989-1.971,17.332,17.332,0,0,0,1.683-2.322A16.992,16.992,0,0,0,1102.05-10.926Zm2.862.054a17.566,17.566,0,0,0,1.791,3.213,16.826,16.826,0,0,0,2.475,2.817,13.192,13.192,0,0,0,2.916,2.034q-.2.18-.45.441a6.935,6.935,0,0,0-.477.549,5.827,5.827,0,0,0-.369.522,14.493,14.493,0,0,1-2.979-2.313,19.253,19.253,0,0,1-2.52-3.123,22.362,22.362,0,0,1-1.917-3.636Zm16.614-3.168h12.132V1.242h-1.836V-12.312h-8.55V1.314h-1.746Zm1.17,6.156h9.9v1.692h-9.9Zm-.018,6.3h9.936V.126h-9.936Zm15.948-9.954h15.8v1.746h-15.8Zm3.636,8.1h8.388V-1.71h-8.388Zm3.33-11.754h1.8v16.7h-1.8Zm-.522,4.266,1.548.5A20.957,20.957,0,0,1,1144.7-6.75a19.967,19.967,0,0,1-2.538,3.15,15.67,15.67,0,0,1-2.961,2.358,3.288,3.288,0,0,0-.351-.477q-.225-.261-.45-.513a3.848,3.848,0,0,0-.423-.414,13.465,13.465,0,0,0,2.169-1.494,17.117,17.117,0,0,0,1.989-1.971,17.332,17.332,0,0,0,1.683-2.322A16.992,16.992,0,0,0,1145.07-10.926Zm2.862.054a17.566,17.566,0,0,0,1.791,3.213,16.826,16.826,0,0,0,2.475,2.817,13.192,13.192,0,0,0,2.916,2.034q-.2.18-.45.441a6.935,6.935,0,0,0-.477.549,5.827,5.827,0,0,0-.369.522,14.493,14.493,0,0,1-2.979-2.313,19.253,19.253,0,0,1-2.52-3.123,22.362,22.362,0,0,1-1.917-3.636Zm16.614-3.168h12.132V1.242h-1.836V-12.312h-8.55V1.314h-1.746Zm1.17,6.156h9.9v1.692h-9.9Zm-.018,6.3h9.936V.126H1165.7Zm15.948-9.954h15.8v1.746h-15.8Zm3.636,8.1h8.388V-1.71h-8.388Zm3.33-11.754h1.8v16.7h-1.8Zm-.522,4.266,1.548.5a20.957,20.957,0,0,1-1.917,3.672,19.967,19.967,0,0,1-2.538,3.15,15.67,15.67,0,0,1-2.961,2.358,3.288,3.288,0,0,0-.351-.477q-.225-.261-.45-.513a3.848,3.848,0,0,0-.423-.414,13.465,13.465,0,0,0,2.169-1.494,17.117,17.117,0,0,0,1.989-1.971,17.332,17.332,0,0,0,1.683-2.322A16.992,16.992,0,0,0,1188.09-10.926Zm2.862.054a17.566,17.566,0,0,0,1.791,3.213,16.826,16.826,0,0,0,2.475,2.817,13.192,13.192,0,0,0,2.916,2.034q-.2.18-.45.441a6.935,6.935,0,0,0-.477.549,5.827,5.827,0,0,0-.369.522,14.493,14.493,0,0,1-2.979-2.313,19.253,19.253,0,0,1-2.52-3.123,22.362,22.362,0,0,1-1.917-3.636Zm16.614-3.168H1219.7V1.242h-1.836V-12.312h-8.55V1.314h-1.746Zm1.17,6.156h9.9v1.692h-9.9Zm-.018,6.3h9.936V.126h-9.936Zm15.948-9.954h15.8v1.746h-15.8Zm3.636,8.1h8.388V-1.71H1228.3Zm3.33-11.754h1.8v16.7h-1.8Zm-.522,4.266,1.548.5a20.957,20.957,0,0,1-1.917,3.672A19.967,19.967,0,0,1,1228.2-3.6a15.67,15.67,0,0,1-2.961,2.358,3.288,3.288,0,0,0-.351-.477q-.225-.261-.45-.513a3.848,3.848,0,0,0-.423-.414,13.465,13.465,0,0,0,2.169-1.494,17.117,17.117,0,0,0,1.989-1.971,17.332,17.332,0,0,0,1.683-2.322A16.992,16.992,0,0,0,1231.11-10.926Zm2.862.054a17.566,17.566,0,0,0,1.791,3.213,16.826,16.826,0,0,0,2.475,2.817,13.192,13.192,0,0,0,2.916,2.034q-.2.18-.45.441a6.935,6.935,0,0,0-.477.549,5.827,5.827,0,0,0-.369.522,14.493,14.493,0,0,1-2.979-2.313,19.253,19.253,0,0,1-2.52-3.123,22.362,22.362,0,0,1-1.917-3.636Zm16.614-3.168h12.132V1.242h-1.836V-12.312h-8.55V1.314h-1.746Zm1.17,6.156h9.9v1.692h-9.9Zm-.018,6.3h9.936V.126h-9.936Zm15.948-9.954h15.8v1.746h-15.8Zm3.636,8.1h8.388V-1.71h-8.388Zm3.33-11.754h1.8v16.7h-1.8Zm-.522,4.266,1.548.5a20.957,20.957,0,0,1-1.917,3.672,19.967,19.967,0,0,1-2.538,3.15,15.67,15.67,0,0,1-2.961,2.358,3.288,3.288,0,0,0-.351-.477q-.225-.261-.45-.513a3.848,3.848,0,0,0-.423-.414,13.465,13.465,0,0,0,2.169-1.494,17.117,17.117,0,0,0,1.989-1.971,17.332,17.332,0,0,0,1.683-2.322A16.992,16.992,0,0,0,1274.13-10.926Zm2.862.054a17.566,17.566,0,0,0,1.791,3.213,16.826,16.826,0,0,0,2.475,2.817,13.192,13.192,0,0,0,2.916,2.034q-.2.18-.45.441a6.935,6.935,0,0,0-.477.549,5.827,5.827,0,0,0-.369.522,14.493,14.493,0,0,1-2.979-2.313,19.253,19.253,0,0,1-2.52-3.123,22.362,22.362,0,0,1-1.917-3.636Zm16.614-3.168h12.132V1.242H1303.9V-12.312h-8.55V1.314h-1.746Zm1.17,6.156h9.9v1.692h-9.9Zm-.018,6.3h9.936V.126h-9.936Zm15.948-9.954h15.8v1.746h-15.8Zm3.636,8.1h8.388V-1.71h-8.388Zm3.33-11.754h1.8v16.7h-1.8Zm-.522,4.266,1.548.5a20.957,20.957,0,0,1-1.917,3.672,19.967,19.967,0,0,1-2.538,3.15,15.67,15.67,0,0,1-2.961,2.358,3.288,3.288,0,0,0-.351-.477q-.225-.261-.45-.513a3.848,3.848,0,0,0-.423-.414,13.465,13.465,0,0,0,2.169-1.494,17.117,17.117,0,0,0,1.989-1.971,17.332,17.332,0,0,0,1.683-2.322A16.992,16.992,0,0,0,1317.15-10.926Zm2.862.054a17.566,17.566,0,0,0,1.791,3.213,16.826,16.826,0,0,0,2.475,2.817,13.192,13.192,0,0,0,2.916,2.034q-.2.18-.45.441a6.935,6.935,0,0,0-.477.549,5.827,5.827,0,0,0-.369.522,14.493,14.493,0,0,1-2.979-2.313,19.253,19.253,0,0,1-2.52-3.123,22.362,22.362,0,0,1-1.917-3.636Zm16.614-3.168h12.132V1.242h-1.836V-12.312h-8.55V1.314h-1.746Zm1.17,6.156h9.9v1.692h-9.9Zm-.018,6.3h9.936V.126h-9.936Zm15.948-9.954h15.8v1.746h-15.8Zm3.636,8.1h8.388V-1.71h-8.388Zm3.33-11.754h1.8v16.7h-1.8Zm-.522,4.266,1.548.5A20.957,20.957,0,0,1,1359.8-6.75a19.967,19.967,0,0,1-2.538,3.15,15.67,15.67,0,0,1-2.961,2.358,3.288,3.288,0,0,0-.351-.477q-.225-.261-.45-.513a3.848,3.848,0,0,0-.423-.414,13.465,13.465,0,0,0,2.169-1.494,17.117,17.117,0,0,0,1.989-1.971,17.332,17.332,0,0,0,1.683-2.322A16.992,16.992,0,0,0,1360.17-10.926Zm2.862.054a17.566,17.566,0,0,0,1.791,3.213,16.826,16.826,0,0,0,2.475,2.817,13.192,13.192,0,0,0,2.916,2.034q-.2.18-.45.441a6.935,6.935,0,0,0-.477.549,5.827,5.827,0,0,0-.369.522,14.493,14.493,0,0,1-2.979-2.313,19.253,19.253,0,0,1-2.52-3.123,22.362,22.362,0,0,1-1.917-3.636Zm16.614-3.168h12.132V1.242h-1.836V-12.312h-8.55V1.314h-1.746Zm1.17,6.156h9.9v1.692h-9.9Zm-.018,6.3h9.936V.126H1380.8Zm15.948-9.954h15.8v1.746h-15.8Zm3.636,8.1h8.388V-1.71h-8.388Zm3.33-11.754h1.8v16.7h-1.8Zm-.522,4.266,1.548.5a20.957,20.957,0,0,1-1.917,3.672,19.967,19.967,0,0,1-2.538,3.15,15.67,15.67,0,0,1-2.961,2.358,3.288,3.288,0,0,0-.351-.477q-.225-.261-.45-.513a3.848,3.848,0,0,0-.423-.414,13.465,13.465,0,0,0,2.169-1.494,17.117,17.117,0,0,0,1.989-1.971,17.332,17.332,0,0,0,1.683-2.322A16.992,16.992,0,0,0,1403.19-10.926Zm2.862.054a17.566,17.566,0,0,0,1.791,3.213,16.826,16.826,0,0,0,2.475,2.817,13.192,13.192,0,0,0,2.916,2.034q-.2.18-.45.441a6.935,6.935,0,0,0-.477.549,5.827,5.827,0,0,0-.369.522,14.493,14.493,0,0,1-2.979-2.313,19.253,19.253,0,0,1-2.52-3.123,22.362,22.362,0,0,1-1.917-3.636Zm16.614-3.168H1434.8V1.242h-1.836V-12.312h-8.55V1.314h-1.746Zm1.17,6.156h9.9v1.692h-9.9Zm-.018,6.3h9.936V.126h-9.936Zm15.948-9.954h15.8v1.746h-15.8Zm3.636,8.1h8.388V-1.71H1443.4Zm3.33-11.754h1.8v16.7h-1.8Zm-.522,4.266,1.548.5a20.957,20.957,0,0,1-1.917,3.672A19.967,19.967,0,0,1,1443.3-3.6a15.67,15.67,0,0,1-2.961,2.358,3.288,3.288,0,0,0-.351-.477q-.225-.261-.45-.513a3.848,3.848,0,0,0-.423-.414,13.465,13.465,0,0,0,2.169-1.494,17.117,17.117,0,0,0,1.989-1.971,17.332,17.332,0,0,0,1.683-2.322A16.992,16.992,0,0,0,1446.21-10.926Zm2.862.054a17.566,17.566,0,0,0,1.791,3.213,16.826,16.826,0,0,0,2.475,2.817,13.192,13.192,0,0,0,2.916,2.034q-.2.18-.45.441a6.935,6.935,0,0,0-.477.549,5.827,5.827,0,0,0-.369.522,14.493,14.493,0,0,1-2.979-2.313,19.253,19.253,0,0,1-2.52-3.123,22.362,22.362,0,0,1-1.917-3.636Zm16.614-3.168h12.132V1.242h-1.836V-12.312h-8.55V1.314h-1.746Zm1.17,6.156h9.9v1.692h-9.9Zm-.018,6.3h9.936V.126h-9.936Zm15.948-9.954h15.8v1.746h-15.8Zm3.636,8.1h8.388V-1.71h-8.388Zm3.33-11.754h1.8v16.7h-1.8Zm-.522,4.266,1.548.5a20.957,20.957,0,0,1-1.917,3.672,19.967,19.967,0,0,1-2.538,3.15,15.67,15.67,0,0,1-2.961,2.358,3.288,3.288,0,0,0-.351-.477q-.225-.261-.45-.513a3.848,3.848,0,0,0-.423-.414,13.465,13.465,0,0,0,2.169-1.494,17.117,17.117,0,0,0,1.989-1.971,17.332,17.332,0,0,0,1.683-2.322A16.992,16.992,0,0,0,1489.23-10.926Zm2.862.054a17.566,17.566,0,0,0,1.791,3.213,16.826,16.826,0,0,0,2.475,2.817,13.192,13.192,0,0,0,2.916,2.034q-.2.18-.45.441a6.935,6.935,0,0,0-.477.549,5.827,5.827,0,0,0-.369.522A14.493,14.493,0,0,1,1495-3.609a19.253,19.253,0,0,1-2.52-3.123,22.362,22.362,0,0,1-1.917-3.636Zm16.614-3.168h12.132V1.242H1519V-12.312h-8.55V1.314h-1.746Zm1.17,6.156h9.9v1.692h-9.9Zm-.018,6.3h9.936V.126h-9.936Zm15.948-9.954h15.8v1.746h-15.8Zm3.636,8.1h8.388V-1.71h-8.388Zm3.33-11.754h1.8v16.7h-1.8Zm-.522,4.266,1.548.5a20.957,20.957,0,0,1-1.917,3.672,19.967,19.967,0,0,1-2.538,3.15,15.67,15.67,0,0,1-2.961,2.358,3.288,3.288,0,0,0-.351-.477q-.225-.261-.45-.513a3.848,3.848,0,0,0-.423-.414,13.465,13.465,0,0,0,2.169-1.494,17.117,17.117,0,0,0,1.989-1.971A17.332,17.332,0,0,0,1531-8.433,16.992,16.992,0,0,0,1532.25-10.926Zm2.862.054a17.566,17.566,0,0,0,1.791,3.213,16.826,16.826,0,0,0,2.475,2.817,13.192,13.192,0,0,0,2.916,2.034q-.2.18-.45.441a6.935,6.935,0,0,0-.477.549A5.827,5.827,0,0,0,1541-1.3a14.493,14.493,0,0,1-2.979-2.313,19.253,19.253,0,0,1-2.52-3.123,22.362,22.362,0,0,1-1.917-3.636Zm16.614-3.168h12.132V1.242h-1.836V-12.312h-8.55V1.314h-1.746Zm1.17,6.156h9.9v1.692h-9.9Zm-.018,6.3h9.936V.126h-9.936Zm15.948-9.954h15.8v1.746h-15.8Zm3.636,8.1h8.388V-1.71h-8.388Zm3.33-11.754h1.8v16.7h-1.8Zm-.522,4.266,1.548.5A20.957,20.957,0,0,1,1574.9-6.75a19.967,19.967,0,0,1-2.538,3.15,15.67,15.67,0,0,1-2.961,2.358,3.288,3.288,0,0,0-.351-.477q-.225-.261-.45-.513a3.848,3.848,0,0,0-.423-.414,13.465,13.465,0,0,0,2.169-1.494,17.117,17.117,0,0,0,1.989-1.971,17.332,17.332,0,0,0,1.683-2.322A16.992,16.992,0,0,0,1575.27-10.926Zm2.862.054a17.566,17.566,0,0,0,1.791,3.213,16.826,16.826,0,0,0,2.475,2.817,13.192,13.192,0,0,0,2.916,2.034q-.2.18-.45.441a6.935,6.935,0,0,0-.477.549,5.827,5.827,0,0,0-.369.522,14.493,14.493,0,0,1-2.979-2.313,19.253,19.253,0,0,1-2.52-3.123,22.362,22.362,0,0,1-1.917-3.636Zm16.614-3.168h12.132V1.242h-1.836V-12.312h-8.55V1.314h-1.746Zm1.17,6.156h9.9v1.692h-9.9Zm-.018,6.3h9.936V.126H1595.9Zm15.948-9.954h15.8v1.746h-15.8Zm3.636,8.1h8.388V-1.71h-8.388Zm3.33-11.754h1.8v16.7h-1.8Zm-.522,4.266,1.548.5a20.957,20.957,0,0,1-1.917,3.672,19.967,19.967,0,0,1-2.538,3.15,15.67,15.67,0,0,1-2.961,2.358,3.288,3.288,0,0,0-.351-.477q-.225-.261-.45-.513a3.848,3.848,0,0,0-.423-.414,13.465,13.465,0,0,0,2.169-1.494,17.117,17.117,0,0,0,1.989-1.971,17.332,17.332,0,0,0,1.683-2.322A16.992,16.992,0,0,0,1618.29-10.926Zm2.862.054a17.566,17.566,0,0,0,1.791,3.213,16.826,16.826,0,0,0,2.475,2.817,13.192,13.192,0,0,0,2.916,2.034q-.2.18-.45.441a6.935,6.935,0,0,0-.477.549,5.827,5.827,0,0,0-.369.522,14.493,14.493,0,0,1-2.979-2.313,19.253,19.253,0,0,1-2.52-3.123,22.362,22.362,0,0,1-1.917-3.636Zm16.614-3.168H1649.9V1.242h-1.836V-12.312h-8.55V1.314h-1.746Zm1.17,6.156h9.9v1.692h-9.9Zm-.018,6.3h9.936V.126h-9.936Zm15.948-9.954h15.8v1.746h-15.8Zm3.636,8.1h8.388V-1.71H1658.5Zm3.33-11.754h1.8v16.7h-1.8Zm-.522,4.266,1.548.5a20.957,20.957,0,0,1-1.917,3.672A19.967,19.967,0,0,1,1658.4-3.6a15.67,15.67,0,0,1-2.961,2.358,3.288,3.288,0,0,0-.351-.477q-.225-.261-.45-.513a3.848,3.848,0,0,0-.423-.414,13.465,13.465,0,0,0,2.169-1.494,17.117,17.117,0,0,0,1.989-1.971,17.332,17.332,0,0,0,1.683-2.322A16.992,16.992,0,0,0,1661.31-10.926Zm2.862.054a17.566,17.566,0,0,0,1.791,3.213,16.826,16.826,0,0,0,2.475,2.817,13.192,13.192,0,0,0,2.916,2.034q-.2.18-.45.441a6.935,6.935,0,0,0-.477.549,5.827,5.827,0,0,0-.369.522,14.493,14.493,0,0,1-2.979-2.313,19.253,19.253,0,0,1-2.52-3.123,22.362,22.362,0,0,1-1.917-3.636Zm16.614-3.168h12.132V1.242h-1.836V-12.312h-8.55V1.314h-1.746Zm1.17,6.156h9.9v1.692h-9.9Zm-.018,6.3h9.936V.126h-9.936Zm15.948-9.954h15.8v1.746h-15.8Zm3.636,8.1h8.388V-1.71h-8.388Zm3.33-11.754h1.8v16.7h-1.8Zm-.522,4.266,1.548.5a20.957,20.957,0,0,1-1.917,3.672,19.967,19.967,0,0,1-2.538,3.15,15.67,15.67,0,0,1-2.961,2.358,3.288,3.288,0,0,0-.351-.477q-.225-.261-.45-.513a3.848,3.848,0,0,0-.423-.414,13.465,13.465,0,0,0,2.169-1.494,17.117,17.117,0,0,0,1.989-1.971,17.332,17.332,0,0,0,1.683-2.322A16.992,16.992,0,0,0,1704.33-10.926Zm2.862.054a17.566,17.566,0,0,0,1.791,3.213,16.826,16.826,0,0,0,2.475,2.817,13.192,13.192,0,0,0,2.916,2.034q-.2.18-.45.441a6.935,6.935,0,0,0-.477.549,5.827,5.827,0,0,0-.369.522,14.493,14.493,0,0,1-2.979-2.313,19.253,19.253,0,0,1-2.52-3.123,22.362,22.362,0,0,1-1.917-3.636Zm16.614-3.168h12.132V1.242H1734.1V-12.312h-8.55V1.314h-1.746Zm1.17,6.156h9.9v1.692h-9.9Zm-.018,6.3h9.936V.126h-9.936Zm15.948-9.954h15.8v1.746h-15.8Zm3.636,8.1h8.388V-1.71h-8.388Zm3.33-11.754h1.8v16.7h-1.8Zm-.522,4.266,1.548.5a20.957,20.957,0,0,1-1.917,3.672,19.967,19.967,0,0,1-2.538,3.15,15.67,15.67,0,0,1-2.961,2.358,3.288,3.288,0,0,0-.351-.477q-.225-.261-.45-.513a3.848,3.848,0,0,0-.423-.414,13.465,13.465,0,0,0,2.169-1.494,17.117,17.117,0,0,0,1.989-1.971,17.332,17.332,0,0,0,1.683-2.322A16.992,16.992,0,0,0,1747.35-10.926Zm2.862.054A17.566,17.566,0,0,0,1752-7.659a16.826,16.826,0,0,0,2.475,2.817,13.192,13.192,0,0,0,2.916,2.034q-.2.18-.45.441a6.935,6.935,0,0,0-.477.549,5.827,5.827,0,0,0-.369.522,14.493,14.493,0,0,1-2.979-2.313,19.253,19.253,0,0,1-2.52-3.123,22.362,22.362,0,0,1-1.917-3.636Zm16.614-3.168h12.132V1.242h-1.836V-12.312h-8.55V1.314h-1.746ZM1768-7.884h9.9v1.692H1768Zm-.018,6.3h9.936V.126h-9.936Zm15.948-9.954h15.8v1.746h-15.8Zm3.636,8.1h8.388V-1.71h-8.388Zm3.33-11.754h1.8v16.7h-1.8Zm-.522,4.266,1.548.5A20.957,20.957,0,0,1,1790-6.75a19.967,19.967,0,0,1-2.538,3.15,15.67,15.67,0,0,1-2.961,2.358,3.288,3.288,0,0,0-.351-.477q-.225-.261-.45-.513a3.848,3.848,0,0,0-.423-.414,13.465,13.465,0,0,0,2.169-1.494,17.117,17.117,0,0,0,1.989-1.971,17.332,17.332,0,0,0,1.683-2.322A16.992,16.992,0,0,0,1790.37-10.926Zm2.862.054a17.566,17.566,0,0,0,1.791,3.213,16.826,16.826,0,0,0,2.475,2.817,13.192,13.192,0,0,0,2.916,2.034q-.2.18-.45.441a6.935,6.935,0,0,0-.477.549,5.827,5.827,0,0,0-.369.522,14.493,14.493,0,0,1-2.979-2.313,19.253,19.253,0,0,1-2.52-3.123,22.362,22.362,0,0,1-1.917-3.636Zm16.614-3.168h12.132V1.242h-1.836V-12.312h-8.55V1.314h-1.746Zm1.17,6.156h9.9v1.692h-9.9Zm-.018,6.3h9.936V.126H1811Zm15.948-9.954h15.8v1.746h-15.8Zm3.636,8.1h8.388V-1.71h-8.388Zm3.33-11.754h1.8v16.7h-1.8Zm-.522,4.266,1.548.5a20.957,20.957,0,0,1-1.917,3.672,19.967,19.967,0,0,1-2.538,3.15,15.67,15.67,0,0,1-2.961,2.358,3.288,3.288,0,0,0-.351-.477q-.225-.261-.45-.513a3.848,3.848,0,0,0-.423-.414,13.465,13.465,0,0,0,2.169-1.494,17.117,17.117,0,0,0,1.989-1.971,17.332,17.332,0,0,0,1.683-2.322A16.992,16.992,0,0,0,1833.39-10.926Zm2.862.054a17.566,17.566,0,0,0,1.791,3.213,16.826,16.826,0,0,0,2.475,2.817,13.192,13.192,0,0,0,2.916,2.034q-.2.18-.45.441a6.935,6.935,0,0,0-.477.549,5.827,5.827,0,0,0-.369.522,14.493,14.493,0,0,1-2.979-2.313,19.253,19.253,0,0,1-2.52-3.123,22.362,22.362,0,0,1-1.917-3.636Zm16.614-3.168H1865V1.242h-1.836V-12.312h-8.55V1.314h-1.746Zm1.17,6.156h9.9v1.692h-9.9Zm-.018,6.3h9.936V.126h-9.936Zm15.948-9.954h15.8v1.746h-15.8Zm3.636,8.1h8.388V-1.71H1873.6Zm3.33-11.754h1.8v16.7h-1.8Zm-.522,4.266,1.548.5a20.957,20.957,0,0,1-1.917,3.672A19.967,19.967,0,0,1,1873.5-3.6a15.67,15.67,0,0,1-2.961,2.358,3.288,3.288,0,0,0-.351-.477q-.225-.261-.45-.513a3.848,3.848,0,0,0-.423-.414,13.465,13.465,0,0,0,2.169-1.494,17.117,17.117,0,0,0,1.989-1.971,17.332,17.332,0,0,0,1.683-2.322A16.992,16.992,0,0,0,1876.41-10.926Zm2.862.054a17.566,17.566,0,0,0,1.791,3.213,16.826,16.826,0,0,0,2.475,2.817,13.192,13.192,0,0,0,2.916,2.034q-.2.18-.45.441a6.935,6.935,0,0,0-.477.549,5.827,5.827,0,0,0-.369.522,14.493,14.493,0,0,1-2.979-2.313,19.253,19.253,0,0,1-2.52-3.123,22.362,22.362,0,0,1-1.917-3.636Zm16.614-3.168h12.132V1.242h-1.836V-12.312h-8.55V1.314h-1.746Zm1.17,6.156h9.9v1.692h-9.9Zm-.018,6.3h9.936V.126h-9.936Zm15.948-9.954h15.8v1.746h-15.8Zm3.636,8.1h8.388V-1.71h-8.388Zm3.33-11.754h1.8v16.7h-1.8Zm-.522,4.266,1.548.5a20.957,20.957,0,0,1-1.917,3.672,19.967,19.967,0,0,1-2.538,3.15,15.67,15.67,0,0,1-2.961,2.358,3.288,3.288,0,0,0-.351-.477q-.225-.261-.45-.513a3.848,3.848,0,0,0-.423-.414,13.465,13.465,0,0,0,2.169-1.494,17.117,17.117,0,0,0,1.989-1.971,17.332,17.332,0,0,0,1.683-2.322A16.992,16.992,0,0,0,1919.43-10.926Zm2.862.054a17.566,17.566,0,0,0,1.791,3.213,16.826,16.826,0,0,0,2.475,2.817,13.192,13.192,0,0,0,2.916,2.034q-.2.18-.45.441a6.935,6.935,0,0,0-.477.549,5.827,5.827,0,0,0-.369.522,14.493,14.493,0,0,1-2.979-2.313,19.253,19.253,0,0,1-2.52-3.123,22.362,22.362,0,0,1-1.917-3.636Zm16.614-3.168h12.132V1.242H1949.2V-12.312h-8.55V1.314h-1.746Zm1.17,6.156h9.9v1.692h-9.9Zm-.018,6.3h9.936V.126h-9.936Zm15.948-9.954h15.8v1.746h-15.8Zm3.636,8.1h8.388V-1.71h-8.388Zm3.33-11.754h1.8v16.7h-1.8Zm-.522,4.266,1.548.5a20.957,20.957,0,0,1-1.917,3.672,19.967,19.967,0,0,1-2.538,3.15,15.67,15.67,0,0,1-2.961,2.358,3.288,3.288,0,0,0-.351-.477q-.225-.261-.45-.513a3.848,3.848,0,0,0-.423-.414,13.465,13.465,0,0,0,2.169-1.494,17.117,17.117,0,0,0,1.989-1.971,17.332,17.332,0,0,0,1.683-2.322A16.992,16.992,0,0,0,1962.45-10.926Zm2.862.054a17.566,17.566,0,0,0,1.791,3.213,16.826,16.826,0,0,0,2.475,2.817,13.192,13.192,0,0,0,2.916,2.034q-.2.18-.45.441a6.935,6.935,0,0,0-.477.549,5.827,5.827,0,0,0-.369.522,14.493,14.493,0,0,1-2.979-2.313,19.253,19.253,0,0,1-2.52-3.123,22.362,22.362,0,0,1-1.917-3.636Zm16.614-3.168h12.132V1.242h-1.836V-12.312h-8.55V1.314h-1.746Zm1.17,6.156h9.9v1.692h-9.9Zm-.018,6.3h9.936V.126h-9.936Zm15.948-9.954h15.8v1.746h-15.8Zm3.636,8.1h8.388V-1.71h-8.388Zm3.33-11.754h1.8v16.7h-1.8Zm-.522,4.266,1.548.5A20.957,20.957,0,0,1,2005.1-6.75a19.967,19.967,0,0,1-2.538,3.15,15.67,15.67,0,0,1-2.961,2.358,3.288,3.288,0,0,0-.351-.477q-.225-.261-.45-.513a3.848,3.848,0,0,0-.423-.414,13.465,13.465,0,0,0,2.169-1.494,17.117,17.117,0,0,0,1.989-1.971,17.332,17.332,0,0,0,1.683-2.322A16.992,16.992,0,0,0,2005.47-10.926Zm2.862.054a17.566,17.566,0,0,0,1.791,3.213,16.826,16.826,0,0,0,2.475,2.817,13.192,13.192,0,0,0,2.916,2.034q-.2.18-.45.441a6.935,6.935,0,0,0-.477.549,5.827,5.827,0,0,0-.369.522,14.493,14.493,0,0,1-2.979-2.313,19.253,19.253,0,0,1-2.52-3.123,22.362,22.362,0,0,1-1.917-3.636Zm16.614-3.168h12.132V1.242h-1.836V-12.312h-8.55V1.314h-1.746Zm1.17,6.156h9.9v1.692h-9.9Zm-.018,6.3h9.936V.126H2026.1Zm15.948-9.954h15.8v1.746h-15.8Zm3.636,8.1h8.388V-1.71h-8.388Zm3.33-11.754h1.8v16.7h-1.8Zm-.522,4.266,1.548.5a20.949,20.949,0,0,1-1.917,3.672,19.967,19.967,0,0,1-2.538,3.15,15.67,15.67,0,0,1-2.961,2.358,3.288,3.288,0,0,0-.351-.477q-.225-.261-.45-.513a3.848,3.848,0,0,0-.423-.414,13.465,13.465,0,0,0,2.169-1.494,17.117,17.117,0,0,0,1.989-1.971,17.332,17.332,0,0,0,1.683-2.322A16.979,16.979,0,0,0,2048.49-10.926Zm2.862.054a17.558,17.558,0,0,0,1.791,3.213,16.815,16.815,0,0,0,2.475,2.817,13.2,13.2,0,0,0,2.916,2.034q-.2.18-.45.441a6.985,6.985,0,0,0-.477.549,5.823,5.823,0,0,0-.369.522,14.493,14.493,0,0,1-2.979-2.313,19.259,19.259,0,0,1-2.52-3.123,22.371,22.371,0,0,1-1.917-3.636Z" transform="translate(8 7) rotate(90)"/>
  </g>
</svg>
