<svg xmlns="http://www.w3.org/2000/svg" xmlns:xlink="http://www.w3.org/1999/xlink" width="17" height="815" viewBox="0 0 17 815">
  <defs>
    <filter id="JAPPAN_An_app_that_helps_you_discover_the_variety_of_Japanese_cuisine." x="-4.5" y="289.5" width="387" height="171" filterUnits="userSpaceOnUse">
      <feOffset dx="2" dy="2" input="SourceAlpha"/>
      <feGaussianBlur stdDeviation="7.5" result="blur"/>
      <feFlood flood-color="#b4b4b4" flood-opacity="0.4"/>
      <feComposite operator="in" in2="blur"/>
      <feComposite in="SourceGraphic"/>
    </filter>
    <clipPath id="clip-iPhone_X_XS_11_Pro_9">
      <rect width="17" height="815"/>
    </clipPath>
  </defs>
  <g id="iPhone_X_XS_11_Pro_9" data-name="iPhone X, XS, 11 Pro – 9" clip-path="url(#clip-iPhone_X_XS_11_Pro_9)">
    <rect width="17" height="815" fill="#fff"/>
    <g transform="matrix(1, 0, 0, 1, 0, 0)" filter="url(#JAPPAN_An_app_that_helps_you_discover_the_variety_of_Japanese_cuisine.)">
      <text id="JAPPAN_An_app_that_helps_you_discover_the_variety_of_Japanese_cuisine.-2" data-name="JAPPAN
An app that helps 
you discover the variety 
of Japanese cuisine." transform="translate(16 310)" fill="#fff" font-size="30" font-family="FutterGrotesk-Book, FutterGrotesk"><tspan x="-55.335" y="30">JAPPAN</tspan><tspan x="-114.975" y="59">An app that helps </tspan><tspan x="-154.32" y="88">you discover the variety </tspan><tspan x="-132.21" y="117">of Japanese cuisine.</tspan></text>
    </g>
    <rect id="Rechteck_5284" data-name="Rechteck 5284" width="17" height="815" fill="#fff"/>
    <path id="Pfad_8905" data-name="Pfad 8905" d="M-1017.172.195a2.515,2.515,0,0,0,2.769-2.756V-9.1h-1.534v6.526c0,1.131-.52,1.56-1.287,1.56s-1.326-.429-1.326-1.573v-.65l-1.495.117v.572A2.591,2.591,0,0,0-1017.172.195Zm4.5-.195h1.56l.767-2.223h3.939l.78,2.223h1.547l-3.328-9.1h-1.95Zm2.795-3.536,1.482-4.277h.026l1.508,4.277ZM-1002.157,0h1.534V-3.107h1.781a2.923,2.923,0,0,0,3.159-2.938A2.915,2.915,0,0,0-998.842-9.1h-3.315Zm1.534-4.42V-7.774h1.651a1.622,1.622,0,0,1,1.755,1.742,1.633,1.633,0,0,1-1.755,1.612ZM-993.6,0h1.534V-3.107h1.781a2.923,2.923,0,0,0,3.159-2.938A2.915,2.915,0,0,0-990.288-9.1H-993.6Zm1.534-4.42V-7.774h1.651a1.622,1.622,0,0,1,1.755,1.742,1.633,1.633,0,0,1-1.755,1.612ZM-986.518,0h1.56l.767-2.223h3.939l.78,2.223h1.547l-3.328-9.1h-1.95Zm2.795-3.536,1.482-4.277h.026l1.508,4.277ZM-976,0h1.534V-6.994h.052L-970.749,0h2.223V-9.113h-1.534V-1.56h-.039l-4.043-7.54H-976Zm15.535.195A2.515,2.515,0,0,0-957.7-2.561V-9.1h-1.534v6.526c0,1.131-.52,1.56-1.287,1.56s-1.326-.429-1.326-1.573v-.65l-1.495.117v.572A2.591,2.591,0,0,0-960.466.195Zm4.5-.195h1.56l.767-2.223h3.939l.78,2.223h1.547L-950.7-9.1h-1.95Zm2.795-3.536,1.482-4.277h.026l1.508,4.277ZM-945.451,0h1.534V-3.107h1.781a2.923,2.923,0,0,0,3.159-2.938A2.915,2.915,0,0,0-942.136-9.1h-3.315Zm1.534-4.42V-7.774h1.651a1.622,1.622,0,0,1,1.755,1.742,1.633,1.633,0,0,1-1.755,1.612ZM-936.9,0h1.534V-3.107h1.781a2.923,2.923,0,0,0,3.159-2.938A2.915,2.915,0,0,0-933.582-9.1H-936.9Zm1.534-4.42V-7.774h1.651a1.622,1.622,0,0,1,1.755,1.742,1.633,1.633,0,0,1-1.755,1.612ZM-929.812,0h1.56l.767-2.223h3.939l.78,2.223h1.547l-3.328-9.1h-1.95Zm2.795-3.536,1.482-4.277h.026L-924-3.536ZM-919.295,0h1.534V-6.994h.052L-914.043,0h2.223V-9.113h-1.534V-1.56h-.039l-4.043-7.54h-1.859Zm15.535.195a2.515,2.515,0,0,0,2.769-2.756V-9.1h-1.534v6.526c0,1.131-.52,1.56-1.287,1.56s-1.326-.429-1.326-1.573v-.65l-1.495.117v.572A2.591,2.591,0,0,0-903.76.195Zm4.5-.195h1.56l.767-2.223H-893l.78,2.223h1.547L-894-9.1h-1.95Zm2.795-3.536,1.482-4.277h.026l1.508,4.277ZM-888.745,0h1.534V-3.107h1.781a2.923,2.923,0,0,0,3.159-2.938A2.915,2.915,0,0,0-885.43-9.1h-3.315Zm1.534-4.42V-7.774h1.651A1.622,1.622,0,0,1-883.8-6.032,1.633,1.633,0,0,1-885.56-4.42Zm7.02,4.42h1.534V-3.107h1.781a2.923,2.923,0,0,0,3.159-2.938A2.915,2.915,0,0,0-876.876-9.1h-3.315Zm1.534-4.42V-7.774h1.651a1.622,1.622,0,0,1,1.755,1.742,1.633,1.633,0,0,1-1.755,1.612ZM-873.106,0h1.56l.767-2.223h3.939L-866.06,0h1.547l-3.328-9.1h-1.95Zm2.795-3.536,1.482-4.277h.026l1.508,4.277ZM-862.589,0h1.534V-6.994H-861L-857.337,0h2.223V-9.113h-1.534V-1.56h-.039L-860.73-9.1h-1.859Zm15.535.195a2.515,2.515,0,0,0,2.769-2.756V-9.1h-1.534v6.526c0,1.131-.52,1.56-1.287,1.56s-1.326-.429-1.326-1.573v-.65l-1.495.117v.572A2.591,2.591,0,0,0-847.054.195Zm4.5-.195H-841l.767-2.223h3.939L-835.51,0h1.547l-3.328-9.1h-1.95Zm2.795-3.536,1.482-4.277h.026l1.508,4.277ZM-832.039,0h1.534V-3.107h1.781a2.923,2.923,0,0,0,3.159-2.938A2.915,2.915,0,0,0-828.724-9.1h-3.315Zm1.534-4.42V-7.774h1.651A1.622,1.622,0,0,1-827.1-6.032a1.633,1.633,0,0,1-1.755,1.612Zm7.02,4.42h1.534V-3.107h1.781a2.923,2.923,0,0,0,3.159-2.938A2.915,2.915,0,0,0-820.17-9.1h-3.315Zm1.534-4.42V-7.774h1.651a1.622,1.622,0,0,1,1.755,1.742A1.633,1.633,0,0,1-820.3-4.42ZM-816.4,0h1.56l.767-2.223h3.939l.78,2.223h1.547l-3.328-9.1h-1.95Zm2.795-3.536,1.482-4.277h.026l1.508,4.277ZM-805.883,0h1.534V-6.994h.052L-800.631,0h2.223V-9.113h-1.534V-1.56h-.039l-4.043-7.54h-1.859Zm15.535.195a2.515,2.515,0,0,0,2.769-2.756V-9.1h-1.534v6.526c0,1.131-.52,1.56-1.287,1.56s-1.326-.429-1.326-1.573v-.65l-1.495.117v.572A2.591,2.591,0,0,0-790.348.195Zm4.5-.195h1.56l.767-2.223h3.939L-778.8,0h1.547l-3.328-9.1h-1.95Zm2.795-3.536,1.482-4.277h.026l1.508,4.277ZM-775.333,0h1.534V-3.107h1.781a2.923,2.923,0,0,0,3.159-2.938A2.915,2.915,0,0,0-772.018-9.1h-3.315Zm1.534-4.42V-7.774h1.651a1.622,1.622,0,0,1,1.755,1.742,1.633,1.633,0,0,1-1.755,1.612Zm7.02,4.42h1.534V-3.107h1.781A2.923,2.923,0,0,0-760.3-6.045,2.915,2.915,0,0,0-763.464-9.1h-3.315Zm1.534-4.42V-7.774h1.651a1.622,1.622,0,0,1,1.755,1.742,1.633,1.633,0,0,1-1.755,1.612ZM-759.694,0h1.56l.767-2.223h3.939l.78,2.223h1.547l-3.328-9.1h-1.95Zm2.795-3.536,1.482-4.277h.026l1.508,4.277ZM-749.177,0h1.534V-6.994h.052L-743.925,0h2.223V-9.113h-1.534V-1.56h-.039l-4.043-7.54h-1.859Zm15.535.195a2.515,2.515,0,0,0,2.769-2.756V-9.1h-1.534v6.526c0,1.131-.52,1.56-1.287,1.56s-1.326-.429-1.326-1.573v-.65l-1.495.117v.572A2.591,2.591,0,0,0-733.642.195Zm4.5-.195h1.56l.767-2.223h3.939L-722.1,0h1.547l-3.328-9.1h-1.95Zm2.795-3.536,1.482-4.277h.026l1.508,4.277ZM-718.627,0h1.534V-3.107h1.781a2.923,2.923,0,0,0,3.159-2.938A2.915,2.915,0,0,0-715.312-9.1h-3.315Zm1.534-4.42V-7.774h1.651a1.622,1.622,0,0,1,1.755,1.742,1.633,1.633,0,0,1-1.755,1.612Zm7.02,4.42h1.534V-3.107h1.781A2.923,2.923,0,0,0-703.6-6.045,2.915,2.915,0,0,0-706.758-9.1h-3.315Zm1.534-4.42V-7.774h1.651a1.622,1.622,0,0,1,1.755,1.742,1.633,1.633,0,0,1-1.755,1.612ZM-702.988,0h1.56l.767-2.223h3.939l.78,2.223h1.547l-3.328-9.1h-1.95Zm2.795-3.536,1.482-4.277h.026l1.508,4.277ZM-692.471,0h1.534V-6.994h.052L-687.219,0H-685V-9.113h-1.534V-1.56h-.039l-4.043-7.54h-1.859Zm15.535.195a2.515,2.515,0,0,0,2.769-2.756V-9.1H-675.7v6.526c0,1.131-.52,1.56-1.287,1.56s-1.326-.429-1.326-1.573v-.65l-1.495.117v.572A2.591,2.591,0,0,0-676.936.195Zm4.5-.195h1.56l.767-2.223h3.939l.78,2.223h1.547l-3.328-9.1h-1.95Zm2.795-3.536,1.482-4.277h.026l1.508,4.277ZM-661.921,0h1.534V-3.107h1.781a2.923,2.923,0,0,0,3.159-2.938A2.915,2.915,0,0,0-658.606-9.1h-3.315Zm1.534-4.42V-7.774h1.651a1.622,1.622,0,0,1,1.755,1.742,1.633,1.633,0,0,1-1.755,1.612Zm7.02,4.42h1.534V-3.107h1.781a2.923,2.923,0,0,0,3.159-2.938A2.915,2.915,0,0,0-650.052-9.1h-3.315Zm1.534-4.42V-7.774h1.651a1.622,1.622,0,0,1,1.755,1.742,1.633,1.633,0,0,1-1.755,1.612ZM-646.282,0h1.56l.767-2.223h3.939l.78,2.223h1.547l-3.328-9.1h-1.95Zm2.795-3.536,1.482-4.277h.026l1.508,4.277ZM-635.765,0h1.534V-6.994h.052L-630.513,0h2.223V-9.113h-1.534V-1.56h-.039l-4.043-7.54h-1.859Zm15.535.195a2.515,2.515,0,0,0,2.769-2.756V-9.1H-619v6.526c0,1.131-.52,1.56-1.287,1.56s-1.326-.429-1.326-1.573v-.65l-1.495.117v.572A2.591,2.591,0,0,0-620.23.195Zm4.5-.195h1.56l.767-2.223h3.939l.78,2.223h1.547l-3.328-9.1h-1.95Zm2.795-3.536,1.482-4.277h.026l1.508,4.277ZM-605.215,0h1.534V-3.107h1.781a2.923,2.923,0,0,0,3.159-2.938A2.915,2.915,0,0,0-601.9-9.1h-3.315Zm1.534-4.42V-7.774h1.651a1.622,1.622,0,0,1,1.755,1.742A1.633,1.633,0,0,1-602.03-4.42Zm7.02,4.42h1.534V-3.107h1.781a2.923,2.923,0,0,0,3.159-2.938A2.915,2.915,0,0,0-593.346-9.1h-3.315Zm1.534-4.42V-7.774h1.651a1.622,1.622,0,0,1,1.755,1.742,1.633,1.633,0,0,1-1.755,1.612ZM-589.576,0h1.56l.767-2.223h3.939L-582.53,0h1.547l-3.328-9.1h-1.95Zm2.795-3.536,1.482-4.277h.026l1.508,4.277ZM-579.059,0h1.534V-6.994h.052L-573.807,0h2.223V-9.113h-1.534V-1.56h-.039L-577.2-9.1h-1.859Zm15.535.195a2.515,2.515,0,0,0,2.769-2.756V-9.1h-1.534v6.526c0,1.131-.52,1.56-1.287,1.56s-1.326-.429-1.326-1.573v-.65l-1.495.117v.572A2.591,2.591,0,0,0-563.524.195Zm4.5-.195h1.56l.767-2.223h3.939L-551.98,0h1.547l-3.328-9.1h-1.95Zm2.795-3.536,1.482-4.277h.026l1.508,4.277ZM-548.509,0h1.534V-3.107h1.781a2.923,2.923,0,0,0,3.159-2.938A2.915,2.915,0,0,0-545.194-9.1h-3.315Zm1.534-4.42V-7.774h1.651a1.622,1.622,0,0,1,1.755,1.742,1.633,1.633,0,0,1-1.755,1.612Zm7.02,4.42h1.534V-3.107h1.781a2.923,2.923,0,0,0,3.159-2.938A2.915,2.915,0,0,0-536.64-9.1h-3.315Zm1.534-4.42V-7.774h1.651a1.622,1.622,0,0,1,1.755,1.742A1.633,1.633,0,0,1-536.77-4.42ZM-532.87,0h1.56l.767-2.223h3.939l.78,2.223h1.547L-527.6-9.1h-1.95Zm2.795-3.536,1.482-4.277h.026l1.508,4.277ZM-522.353,0h1.534V-6.994h.052L-517.1,0h2.223V-9.113h-1.534V-1.56h-.039l-4.043-7.54h-1.859Zm15.535.195a2.515,2.515,0,0,0,2.769-2.756V-9.1h-1.534v6.526c0,1.131-.52,1.56-1.287,1.56s-1.326-.429-1.326-1.573v-.65l-1.495.117v.572A2.591,2.591,0,0,0-506.818.195Zm4.5-.195h1.56l.767-2.223h3.939l.78,2.223h1.547l-3.328-9.1h-1.95Zm2.795-3.536,1.482-4.277h.026l1.508,4.277ZM-491.8,0h1.534V-3.107h1.781a2.923,2.923,0,0,0,3.159-2.938A2.915,2.915,0,0,0-488.488-9.1H-491.8Zm1.534-4.42V-7.774h1.651a1.622,1.622,0,0,1,1.755,1.742,1.633,1.633,0,0,1-1.755,1.612Zm7.02,4.42h1.534V-3.107h1.781a2.923,2.923,0,0,0,3.159-2.938A2.915,2.915,0,0,0-479.934-9.1h-3.315Zm1.534-4.42V-7.774h1.651a1.622,1.622,0,0,1,1.755,1.742,1.633,1.633,0,0,1-1.755,1.612ZM-476.164,0h1.56l.767-2.223h3.939l.78,2.223h1.547L-470.9-9.1h-1.95Zm2.795-3.536,1.482-4.277h.026l1.508,4.277ZM-465.647,0h1.534V-6.994h.052L-460.4,0h2.223V-9.113h-1.534V-1.56h-.039l-4.043-7.54h-1.859Zm15.535.195a2.515,2.515,0,0,0,2.769-2.756V-9.1h-1.534v6.526c0,1.131-.52,1.56-1.287,1.56s-1.326-.429-1.326-1.573v-.65l-1.495.117v.572A2.591,2.591,0,0,0-450.112.195Zm4.5-.195h1.56l.767-2.223h3.939l.78,2.223h1.547l-3.328-9.1h-1.95Zm2.795-3.536,1.482-4.277h.026l1.508,4.277ZM-435.1,0h1.534V-3.107h1.781a2.923,2.923,0,0,0,3.159-2.938A2.915,2.915,0,0,0-431.782-9.1H-435.1Zm1.534-4.42V-7.774h1.651a1.622,1.622,0,0,1,1.755,1.742,1.633,1.633,0,0,1-1.755,1.612Zm7.02,4.42h1.534V-3.107h1.781a2.923,2.923,0,0,0,3.159-2.938A2.915,2.915,0,0,0-423.228-9.1h-3.315Zm1.534-4.42V-7.774h1.651A1.622,1.622,0,0,1-421.6-6.032a1.633,1.633,0,0,1-1.755,1.612ZM-419.458,0h1.56l.767-2.223h3.939l.78,2.223h1.547l-3.328-9.1h-1.95Zm2.795-3.536,1.482-4.277h.026l1.508,4.277ZM-408.941,0h1.534V-6.994h.052L-403.689,0h2.223V-9.113H-403V-1.56h-.039l-4.043-7.54h-1.859Zm15.535.195a2.515,2.515,0,0,0,2.769-2.756V-9.1h-1.534v6.526c0,1.131-.52,1.56-1.287,1.56s-1.326-.429-1.326-1.573v-.65l-1.495.117v.572A2.591,2.591,0,0,0-393.406.195Zm4.5-.195h1.56l.767-2.223h3.939l.78,2.223h1.547l-3.328-9.1h-1.95Zm2.795-3.536,1.482-4.277h.026l1.508,4.277ZM-378.391,0h1.534V-3.107h1.781a2.923,2.923,0,0,0,3.159-2.938A2.915,2.915,0,0,0-375.076-9.1h-3.315Zm1.534-4.42V-7.774h1.651a1.622,1.622,0,0,1,1.755,1.742,1.633,1.633,0,0,1-1.755,1.612Zm7.02,4.42h1.534V-3.107h1.781a2.923,2.923,0,0,0,3.159-2.938A2.915,2.915,0,0,0-366.522-9.1h-3.315Zm1.534-4.42V-7.774h1.651A1.622,1.622,0,0,1-364.9-6.032a1.633,1.633,0,0,1-1.755,1.612ZM-362.752,0h1.56l.767-2.223h3.939l.78,2.223h1.547l-3.328-9.1h-1.95Zm2.795-3.536,1.482-4.277h.026l1.508,4.277ZM-352.235,0h1.534V-6.994h.052L-346.983,0h2.223V-9.113h-1.534V-1.56h-.039l-4.043-7.54h-1.859ZM-336.7.195a2.515,2.515,0,0,0,2.769-2.756V-9.1h-1.534v6.526c0,1.131-.52,1.56-1.287,1.56s-1.326-.429-1.326-1.573v-.65l-1.495.117v.572A2.591,2.591,0,0,0-336.7.195ZM-332.2,0h1.56l.767-2.223h3.939l.78,2.223h1.547l-3.328-9.1h-1.95Zm2.795-3.536,1.482-4.277h.026l1.508,4.277ZM-321.685,0h1.534V-3.107h1.781a2.923,2.923,0,0,0,3.159-2.938A2.915,2.915,0,0,0-318.37-9.1h-3.315Zm1.534-4.42V-7.774h1.651a1.622,1.622,0,0,1,1.755,1.742A1.633,1.633,0,0,1-318.5-4.42Zm7.02,4.42h1.534V-3.107h1.781a2.923,2.923,0,0,0,3.159-2.938A2.915,2.915,0,0,0-309.816-9.1h-3.315Zm1.534-4.42V-7.774h1.651a1.622,1.622,0,0,1,1.755,1.742,1.633,1.633,0,0,1-1.755,1.612ZM-306.046,0h1.56l.767-2.223h3.939L-299,0h1.547l-3.328-9.1h-1.95Zm2.795-3.536,1.482-4.277h.026l1.508,4.277ZM-295.529,0h1.534V-6.994h.052L-290.277,0h2.223V-9.113h-1.534V-1.56h-.039L-293.67-9.1h-1.859Zm15.535.195a2.515,2.515,0,0,0,2.769-2.756V-9.1h-1.534v6.526c0,1.131-.52,1.56-1.287,1.56s-1.326-.429-1.326-1.573v-.65l-1.495.117v.572A2.591,2.591,0,0,0-279.994.195ZM-275.5,0h1.56l.767-2.223h3.939L-268.45,0h1.547l-3.328-9.1h-1.95Zm2.795-3.536,1.482-4.277h.026l1.508,4.277ZM-264.979,0h1.534V-3.107h1.781A2.923,2.923,0,0,0-258.5-6.045,2.915,2.915,0,0,0-261.664-9.1h-3.315Zm1.534-4.42V-7.774h1.651a1.622,1.622,0,0,1,1.755,1.742,1.633,1.633,0,0,1-1.755,1.612Zm7.02,4.42h1.534V-3.107h1.781a2.923,2.923,0,0,0,3.159-2.938A2.915,2.915,0,0,0-253.11-9.1h-3.315Zm1.534-4.42V-7.774h1.651a1.622,1.622,0,0,1,1.755,1.742A1.633,1.633,0,0,1-253.24-4.42ZM-249.34,0h1.56l.767-2.223h3.939l.78,2.223h1.547l-3.328-9.1h-1.95Zm2.795-3.536,1.482-4.277h.026l1.508,4.277ZM-238.823,0h1.534V-6.994h.052L-233.571,0h2.223V-9.113h-1.534V-1.56h-.039l-4.043-7.54h-1.859Zm15.535.195a2.515,2.515,0,0,0,2.769-2.756V-9.1h-1.534v6.526c0,1.131-.52,1.56-1.287,1.56s-1.326-.429-1.326-1.573v-.65l-1.5.117v.572A2.591,2.591,0,0,0-223.288.195Zm4.5-.195h1.56l.767-2.223h3.939l.78,2.223h1.547l-3.328-9.1h-1.95Zm2.795-3.536,1.482-4.277h.026l1.508,4.277ZM-208.273,0h1.534V-3.107h1.781A2.923,2.923,0,0,0-201.8-6.045,2.915,2.915,0,0,0-204.958-9.1h-3.315Zm1.534-4.42V-7.774h1.651a1.622,1.622,0,0,1,1.755,1.742,1.633,1.633,0,0,1-1.755,1.612Zm7.02,4.42h1.534V-3.107h1.781a2.923,2.923,0,0,0,3.159-2.938A2.915,2.915,0,0,0-196.4-9.1h-3.315Zm1.534-4.42V-7.774h1.651a1.622,1.622,0,0,1,1.755,1.742,1.633,1.633,0,0,1-1.755,1.612ZM-192.634,0h1.56l.767-2.223h3.939l.78,2.223h1.547l-3.328-9.1h-1.95Zm2.795-3.536,1.482-4.277h.026l1.508,4.277ZM-182.117,0h1.534V-6.994h.052L-176.865,0h2.223V-9.113h-1.534V-1.56h-.039l-4.043-7.54h-1.859Zm15.535.195a2.515,2.515,0,0,0,2.769-2.756V-9.1h-1.534v6.526c0,1.131-.52,1.56-1.287,1.56s-1.326-.429-1.326-1.573v-.65l-1.5.117v.572A2.591,2.591,0,0,0-166.582.195Zm4.5-.195h1.56l.767-2.223h3.939l.78,2.223h1.547l-3.328-9.1h-1.95Zm2.795-3.536,1.482-4.277h.026l1.508,4.277ZM-151.567,0h1.534V-3.107h1.781a2.923,2.923,0,0,0,3.159-2.938A2.915,2.915,0,0,0-148.252-9.1h-3.315Zm1.534-4.42V-7.774h1.651a1.622,1.622,0,0,1,1.755,1.742,1.633,1.633,0,0,1-1.755,1.612Zm7.02,4.42h1.534V-3.107h1.781a2.923,2.923,0,0,0,3.159-2.938A2.915,2.915,0,0,0-139.7-9.1h-3.315Zm1.534-4.42V-7.774h1.651a1.622,1.622,0,0,1,1.755,1.742,1.633,1.633,0,0,1-1.755,1.612ZM-135.928,0h1.56l.767-2.223h3.939l.78,2.223h1.547l-3.328-9.1h-1.95Zm2.795-3.536,1.482-4.277h.026l1.508,4.277ZM-125.411,0h1.534V-6.994h.052L-120.159,0h2.223V-9.113h-1.534V-1.56h-.039l-4.043-7.54h-1.859Zm19.032.195a2.515,2.515,0,0,0,2.769-2.756V-9.1h-1.534v6.526c0,1.131-.52,1.56-1.287,1.56s-1.326-.429-1.326-1.573v-.65l-1.495.117v.572A2.591,2.591,0,0,0-106.379.195Zm4.5-.195h1.56l.767-2.223h3.939L-94.835,0h1.547l-3.328-9.1h-1.95Zm2.795-3.536L-97.6-7.813h.026l1.508,4.277ZM-91.364,0h1.534V-3.107h1.781A2.923,2.923,0,0,0-84.89-6.045,2.915,2.915,0,0,0-88.049-9.1h-3.315Zm1.534-4.42V-7.774h1.651a1.622,1.622,0,0,1,1.755,1.742A1.633,1.633,0,0,1-88.179-4.42ZM-82.81,0h1.534V-3.107h1.781a2.923,2.923,0,0,0,3.159-2.938A2.915,2.915,0,0,0-79.495-9.1H-82.81Zm1.534-4.42V-7.774h1.651A1.622,1.622,0,0,1-77.87-6.032,1.633,1.633,0,0,1-79.625-4.42ZM-75.725,0h1.56l.767-2.223h3.939L-68.679,0h1.547L-70.46-9.1h-1.95Zm2.795-3.536,1.482-4.277h.026l1.508,4.277ZM-65.208,0h1.534V-6.994h.052L-59.956,0h2.223V-9.113h-1.534V-1.56h-.039L-63.349-9.1h-1.859Zm15.535.195A2.515,2.515,0,0,0-46.9-2.561V-9.1h-1.534v6.526c0,1.131-.52,1.56-1.287,1.56s-1.326-.429-1.326-1.573v-.65l-1.5.117v.572A2.591,2.591,0,0,0-49.673.195Zm4.5-.195h1.56l.767-2.223h3.939L-38.129,0h1.547L-39.91-9.1h-1.95Zm2.8-3.536L-40.9-7.813h.026l1.508,4.277ZM-34.658,0h1.534V-3.107h1.781a2.923,2.923,0,0,0,3.159-2.938A2.915,2.915,0,0,0-31.343-9.1h-3.315Zm1.534-4.42V-7.774h1.651a1.622,1.622,0,0,1,1.755,1.742A1.633,1.633,0,0,1-31.473-4.42ZM-26.1,0h1.534V-3.107h1.781A2.923,2.923,0,0,0-19.63-6.045,2.915,2.915,0,0,0-22.789-9.1H-26.1Zm1.534-4.42V-7.774h1.651a1.622,1.622,0,0,1,1.755,1.742A1.633,1.633,0,0,1-22.919-4.42ZM-19.019,0h1.56l.767-2.223h3.939L-11.973,0h1.547l-3.328-9.1H-15.7Zm2.8-3.536,1.482-4.277h.026l1.508,4.277ZM-8.5,0h1.534V-6.994h.052L-3.25,0h2.223V-9.113H-2.561V-1.56H-2.6L-6.643-9.1H-8.5Z" transform="translate(13) rotate(-90)"/>
  </g>
</svg>
