<svg xmlns="http://www.w3.org/2000/svg" xmlns:xlink="http://www.w3.org/1999/xlink" width="17" height="815" viewBox="0 0 17 815">
  <defs>
    <filter id="JAPPAN_An_app_that_helps_you_discover_the_variety_of_Japanese_cuisine." x="-4.5" y="289.5" width="387" height="171" filterUnits="userSpaceOnUse">
      <feOffset dx="2" dy="2" input="SourceAlpha"/>
      <feGaussianBlur stdDeviation="7.5" result="blur"/>
      <feFlood flood-color="#b4b4b4" flood-opacity="0.4"/>
      <feComposite operator="in" in2="blur"/>
      <feComposite in="SourceGraphic"/>
    </filter>
    <clipPath id="clip-iPhone_X_XS_11_Pro_11">
      <rect width="17" height="815"/>
    </clipPath>
  </defs>
  <g id="iPhone_X_XS_11_Pro_11" data-name="iPhone X, XS, 11 Pro – 11" clip-path="url(#clip-iPhone_X_XS_11_Pro_11)">
    <rect width="17" height="815" fill="#fff"/>
    <g transform="matrix(1, 0, 0, 1, 0, 0)" filter="url(#JAPPAN_An_app_that_helps_you_discover_the_variety_of_Japanese_cuisine.)">
      <text id="JAPPAN_An_app_that_helps_you_discover_the_variety_of_Japanese_cuisine.-2" data-name="JAPPAN
An app that helps 
you discover the variety 
of Japanese cuisine." transform="translate(16 310)" fill="#fff" font-size="30" font-family="FutterGrotesk-Book, FutterGrotesk"><tspan x="-55.335" y="30">JAPPAN</tspan><tspan x="-114.975" y="59">An app that helps </tspan><tspan x="-154.32" y="88">you discover the variety </tspan><tspan x="-132.21" y="117">of Japanese cuisine.</tspan></text>
    </g>
    <rect id="Rechteck_5285" data-name="Rechteck 5285" width="17" height="815" fill="#fff"/>
    <path id="Pfad_8906" data-name="Pfad 8906" d="M2-9.36h8.088V.828H8.868V-8.208h-5.7V.876H2Zm.78,4.1h6.6v1.128h-6.6Zm-.012,4.2H9.4V.084H2.772ZM13.308-7.692H23.844v1.164H13.308Zm2.424,5.4h5.592V-1.14H15.732Zm2.22-7.836h1.2V1.008h-1.2ZM17.6-7.284l1.032.336A13.97,13.97,0,0,1,17.358-4.5a13.31,13.31,0,0,1-1.692,2.1A10.45,10.45,0,0,1,13.692-.828a2.193,2.193,0,0,0-.234-.318q-.15-.174-.3-.342a2.562,2.562,0,0,0-.282-.276,8.977,8.977,0,0,0,1.446-1,11.412,11.412,0,0,0,1.326-1.314A11.561,11.561,0,0,0,16.77-5.622,11.327,11.327,0,0,0,17.6-7.284Zm1.908.036a11.708,11.708,0,0,0,1.194,2.142,11.217,11.217,0,0,0,1.65,1.878A8.8,8.8,0,0,0,24.3-1.872q-.132.12-.3.294a4.632,4.632,0,0,0-.318.366,3.878,3.878,0,0,0-.246.348A9.662,9.662,0,0,1,21.45-2.406a12.837,12.837,0,0,1-1.68-2.082,14.91,14.91,0,0,1-1.278-2.424ZM30.4-9.36h8.088V.828H37.26V-8.208h-5.7V.876H30.4Zm.78,4.1h6.6v1.128h-6.6Zm-.012,4.2h6.624V.084H31.164ZM41.7-7.692H52.236v1.164H41.7Zm2.424,5.4h5.592V-1.14H44.124Zm2.22-7.836h1.2V1.008h-1.2ZM46-7.284l1.032.336A13.97,13.97,0,0,1,45.75-4.5a13.31,13.31,0,0,1-1.692,2.1A10.45,10.45,0,0,1,42.084-.828a2.193,2.193,0,0,0-.234-.318q-.15-.174-.3-.342a2.562,2.562,0,0,0-.282-.276,8.977,8.977,0,0,0,1.446-1A11.412,11.412,0,0,0,44.04-4.074a11.561,11.561,0,0,0,1.122-1.548A11.327,11.327,0,0,0,46-7.284Zm1.908.036A11.708,11.708,0,0,0,49.1-5.106a11.217,11.217,0,0,0,1.65,1.878,8.8,8.8,0,0,0,1.944,1.356q-.132.12-.3.294a4.631,4.631,0,0,0-.318.366,3.878,3.878,0,0,0-.246.348,9.662,9.662,0,0,1-1.986-1.542,12.837,12.837,0,0,1-1.68-2.082,14.91,14.91,0,0,1-1.278-2.424ZM58.788-9.36h8.088V.828H65.652V-8.208h-5.7V.876H58.788Zm.78,4.1h6.6v1.128h-6.6Zm-.012,4.2H66.18V.084H59.556ZM70.092-7.692H80.628v1.164H70.092Zm2.424,5.4h5.592V-1.14H72.516Zm2.22-7.836h1.2V1.008h-1.2Zm-.348,2.844,1.032.336A13.97,13.97,0,0,1,74.142-4.5,13.31,13.31,0,0,1,72.45-2.4,10.45,10.45,0,0,1,70.476-.828a2.193,2.193,0,0,0-.234-.318q-.15-.174-.3-.342a2.561,2.561,0,0,0-.282-.276,8.977,8.977,0,0,0,1.446-1,11.412,11.412,0,0,0,1.326-1.314,11.561,11.561,0,0,0,1.122-1.548A11.326,11.326,0,0,0,74.388-7.284Zm1.908.036A11.708,11.708,0,0,0,77.49-5.106a11.217,11.217,0,0,0,1.65,1.878,8.8,8.8,0,0,0,1.944,1.356q-.132.12-.3.294a4.632,4.632,0,0,0-.318.366,3.879,3.879,0,0,0-.246.348,9.662,9.662,0,0,1-1.986-1.542,12.837,12.837,0,0,1-1.68-2.082,14.91,14.91,0,0,1-1.278-2.424ZM87.18-9.36h8.088V.828H94.044V-8.208h-5.7V.876H87.18Zm.78,4.1h6.6v1.128h-6.6Zm-.012,4.2h6.624V.084H87.948ZM98.484-7.692H109.02v1.164H98.484Zm2.424,5.4H106.5V-1.14h-5.592Zm2.22-7.836h1.2V1.008h-1.2Zm-.348,2.844,1.032.336A13.97,13.97,0,0,1,102.534-4.5a13.31,13.31,0,0,1-1.692,2.1A10.45,10.45,0,0,1,98.868-.828a2.193,2.193,0,0,0-.234-.318q-.15-.174-.3-.342a2.561,2.561,0,0,0-.282-.276,8.977,8.977,0,0,0,1.446-1,11.412,11.412,0,0,0,1.326-1.314,11.561,11.561,0,0,0,1.122-1.548A11.326,11.326,0,0,0,102.78-7.284Zm1.908.036a11.708,11.708,0,0,0,1.194,2.142,11.217,11.217,0,0,0,1.65,1.878,8.8,8.8,0,0,0,1.944,1.356q-.132.12-.3.294a4.632,4.632,0,0,0-.318.366,3.879,3.879,0,0,0-.246.348,9.662,9.662,0,0,1-1.986-1.542,12.837,12.837,0,0,1-1.68-2.082,14.91,14.91,0,0,1-1.278-2.424ZM115.572-9.36h8.088V.828h-1.224V-8.208h-5.7V.876h-1.164Zm.78,4.1h6.6v1.128h-6.6Zm-.012,4.2h6.624V.084H116.34Zm10.536-6.636h10.536v1.164H126.876Zm2.424,5.4h5.592V-1.14H129.3Zm2.22-7.836h1.2V1.008h-1.2Zm-.348,2.844,1.032.336A13.971,13.971,0,0,1,130.926-4.5a13.311,13.311,0,0,1-1.692,2.1A10.45,10.45,0,0,1,127.26-.828a2.193,2.193,0,0,0-.234-.318q-.15-.174-.3-.342a2.561,2.561,0,0,0-.282-.276,8.977,8.977,0,0,0,1.446-1,11.412,11.412,0,0,0,1.326-1.314,11.561,11.561,0,0,0,1.122-1.548A11.326,11.326,0,0,0,131.172-7.284Zm1.908.036a11.708,11.708,0,0,0,1.194,2.142,11.216,11.216,0,0,0,1.65,1.878,8.8,8.8,0,0,0,1.944,1.356q-.132.12-.3.294a4.633,4.633,0,0,0-.318.366A3.882,3.882,0,0,0,137-.864a9.662,9.662,0,0,1-1.986-1.542,12.837,12.837,0,0,1-1.68-2.082,14.911,14.911,0,0,1-1.278-2.424ZM143.964-9.36h8.088V.828h-1.224V-8.208h-5.7V.876h-1.164Zm.78,4.1h6.6v1.128h-6.6Zm-.012,4.2h6.624V.084h-6.624Zm10.536-6.636H165.8v1.164H155.268Zm2.424,5.4h5.592V-1.14h-5.592Zm2.22-7.836h1.2V1.008h-1.2Zm-.348,2.844,1.032.336A13.971,13.971,0,0,1,159.318-4.5a13.311,13.311,0,0,1-1.692,2.1,10.45,10.45,0,0,1-1.974,1.572,2.193,2.193,0,0,0-.234-.318q-.15-.174-.3-.342a2.561,2.561,0,0,0-.282-.276,8.977,8.977,0,0,0,1.446-1,11.412,11.412,0,0,0,1.326-1.314,11.561,11.561,0,0,0,1.122-1.548A11.326,11.326,0,0,0,159.564-7.284Zm1.908.036a11.708,11.708,0,0,0,1.194,2.142,11.216,11.216,0,0,0,1.65,1.878,8.8,8.8,0,0,0,1.944,1.356q-.132.12-.3.294a4.633,4.633,0,0,0-.318.366,3.882,3.882,0,0,0-.246.348,9.662,9.662,0,0,1-1.986-1.542,12.837,12.837,0,0,1-1.68-2.082,14.911,14.911,0,0,1-1.278-2.424ZM172.356-9.36h8.088V.828H179.22V-8.208h-5.7V.876h-1.164Zm.78,4.1h6.6v1.128h-6.6Zm-.012,4.2h6.624V.084h-6.624ZM183.66-7.692H194.2v1.164H183.66Zm2.424,5.4h5.592V-1.14h-5.592Zm2.22-7.836h1.2V1.008h-1.2Zm-.348,2.844,1.032.336A13.971,13.971,0,0,1,187.71-4.5a13.311,13.311,0,0,1-1.692,2.1,10.45,10.45,0,0,1-1.974,1.572,2.193,2.193,0,0,0-.234-.318q-.15-.174-.3-.342a2.561,2.561,0,0,0-.282-.276,8.977,8.977,0,0,0,1.446-1A11.412,11.412,0,0,0,186-4.074a11.561,11.561,0,0,0,1.122-1.548A11.326,11.326,0,0,0,187.956-7.284Zm1.908.036a11.708,11.708,0,0,0,1.194,2.142,11.216,11.216,0,0,0,1.65,1.878,8.8,8.8,0,0,0,1.944,1.356q-.132.12-.3.294a4.633,4.633,0,0,0-.318.366,3.882,3.882,0,0,0-.246.348A9.662,9.662,0,0,1,191.8-2.406a12.837,12.837,0,0,1-1.68-2.082,14.911,14.911,0,0,1-1.278-2.424ZM200.748-9.36h8.088V.828h-1.224V-8.208h-5.7V.876h-1.164Zm.78,4.1h6.6v1.128h-6.6Zm-.012,4.2h6.624V.084h-6.624Zm10.536-6.636h10.536v1.164H212.052Zm2.424,5.4h5.592V-1.14h-5.592Zm2.22-7.836h1.2V1.008h-1.2Zm-.348,2.844,1.032.336A13.971,13.971,0,0,1,216.1-4.5a13.311,13.311,0,0,1-1.692,2.1,10.45,10.45,0,0,1-1.974,1.572,2.193,2.193,0,0,0-.234-.318q-.15-.174-.3-.342a2.561,2.561,0,0,0-.282-.276,8.977,8.977,0,0,0,1.446-1,11.412,11.412,0,0,0,1.326-1.314,11.561,11.561,0,0,0,1.122-1.548A11.326,11.326,0,0,0,216.348-7.284Zm1.908.036a11.708,11.708,0,0,0,1.194,2.142,11.216,11.216,0,0,0,1.65,1.878,8.8,8.8,0,0,0,1.944,1.356q-.132.12-.3.294a4.633,4.633,0,0,0-.318.366,3.882,3.882,0,0,0-.246.348,9.662,9.662,0,0,1-1.986-1.542,12.837,12.837,0,0,1-1.68-2.082,14.911,14.911,0,0,1-1.278-2.424ZM229.14-9.36h8.088V.828H236V-8.208h-5.7V.876H229.14Zm.78,4.1h6.6v1.128h-6.6Zm-.012,4.2h6.624V.084h-6.624Zm10.536-6.636H250.98v1.164H240.444Zm2.424,5.4h5.592V-1.14h-5.592Zm2.22-7.836h1.2V1.008h-1.2Zm-.348,2.844,1.032.336A13.971,13.971,0,0,1,244.494-4.5,13.311,13.311,0,0,1,242.8-2.4a10.45,10.45,0,0,1-1.974,1.572,2.193,2.193,0,0,0-.234-.318q-.15-.174-.3-.342a2.561,2.561,0,0,0-.282-.276,8.977,8.977,0,0,0,1.446-1,11.412,11.412,0,0,0,1.326-1.314,11.561,11.561,0,0,0,1.122-1.548A11.326,11.326,0,0,0,244.74-7.284Zm1.908.036a11.708,11.708,0,0,0,1.194,2.142,11.216,11.216,0,0,0,1.65,1.878,8.8,8.8,0,0,0,1.944,1.356q-.132.12-.3.294a4.633,4.633,0,0,0-.318.366,3.882,3.882,0,0,0-.246.348,9.662,9.662,0,0,1-1.986-1.542,12.837,12.837,0,0,1-1.68-2.082,14.911,14.911,0,0,1-1.278-2.424ZM257.532-9.36h8.088V.828H264.4V-8.208h-5.7V.876h-1.164Zm.78,4.1h6.6v1.128h-6.6Zm-.012,4.2h6.624V.084H258.3Zm10.536-6.636h10.536v1.164H268.836Zm2.424,5.4h5.592V-1.14H271.26Zm2.22-7.836h1.2V1.008h-1.2Zm-.348,2.844,1.032.336A13.97,13.97,0,0,1,272.886-4.5a13.308,13.308,0,0,1-1.692,2.1A10.449,10.449,0,0,1,269.22-.828a2.193,2.193,0,0,0-.234-.318q-.15-.174-.3-.342a2.564,2.564,0,0,0-.282-.276,8.976,8.976,0,0,0,1.446-1,11.414,11.414,0,0,0,1.326-1.314A11.562,11.562,0,0,0,272.3-5.622,11.326,11.326,0,0,0,273.132-7.284Zm1.908.036a11.706,11.706,0,0,0,1.194,2.142,11.218,11.218,0,0,0,1.65,1.878,8.8,8.8,0,0,0,1.944,1.356q-.132.12-.3.294a4.633,4.633,0,0,0-.318.366,3.876,3.876,0,0,0-.246.348,9.662,9.662,0,0,1-1.986-1.542,12.837,12.837,0,0,1-1.68-2.082,14.909,14.909,0,0,1-1.278-2.424ZM285.924-9.36h8.088V.828h-1.224V-8.208h-5.7V.876h-1.164Zm.78,4.1h6.6v1.128h-6.6Zm-.012,4.2h6.624V.084h-6.624Zm10.536-6.636h10.536v1.164H297.228Zm2.424,5.4h5.592V-1.14h-5.592Zm2.22-7.836h1.2V1.008h-1.2Zm-.348,2.844,1.032.336A13.97,13.97,0,0,1,301.278-4.5a13.308,13.308,0,0,1-1.692,2.1,10.449,10.449,0,0,1-1.974,1.572,2.193,2.193,0,0,0-.234-.318q-.15-.174-.3-.342a2.564,2.564,0,0,0-.282-.276,8.976,8.976,0,0,0,1.446-1,11.414,11.414,0,0,0,1.326-1.314,11.562,11.562,0,0,0,1.122-1.548A11.326,11.326,0,0,0,301.524-7.284Zm1.908.036a11.706,11.706,0,0,0,1.194,2.142,11.218,11.218,0,0,0,1.65,1.878,8.8,8.8,0,0,0,1.944,1.356q-.132.12-.3.294a4.633,4.633,0,0,0-.318.366,3.876,3.876,0,0,0-.246.348,9.662,9.662,0,0,1-1.986-1.542,12.837,12.837,0,0,1-1.68-2.082,14.909,14.909,0,0,1-1.278-2.424ZM314.316-9.36H322.4V.828H321.18V-8.208h-5.7V.876h-1.164Zm.78,4.1h6.6v1.128h-6.6Zm-.012,4.2h6.624V.084h-6.624ZM325.62-7.692h10.536v1.164H325.62Zm2.424,5.4h5.592V-1.14h-5.592Zm2.22-7.836h1.2V1.008h-1.2Zm-.348,2.844,1.032.336A13.97,13.97,0,0,1,329.67-4.5a13.308,13.308,0,0,1-1.692,2.1A10.449,10.449,0,0,1,326-.828a2.193,2.193,0,0,0-.234-.318q-.15-.174-.3-.342a2.564,2.564,0,0,0-.282-.276,8.976,8.976,0,0,0,1.446-1,11.414,11.414,0,0,0,1.326-1.314,11.562,11.562,0,0,0,1.122-1.548A11.326,11.326,0,0,0,329.916-7.284Zm1.908.036a11.706,11.706,0,0,0,1.194,2.142,11.218,11.218,0,0,0,1.65,1.878,8.8,8.8,0,0,0,1.944,1.356q-.132.12-.3.294a4.633,4.633,0,0,0-.318.366,3.876,3.876,0,0,0-.246.348,9.662,9.662,0,0,1-1.986-1.542,12.837,12.837,0,0,1-1.68-2.082A14.909,14.909,0,0,1,330.8-6.912ZM342.708-9.36H350.8V.828h-1.224V-8.208h-5.7V.876h-1.164Zm.78,4.1h6.6v1.128h-6.6Zm-.012,4.2H350.1V.084h-6.624Zm10.536-6.636h10.536v1.164H354.012Zm2.424,5.4h5.592V-1.14h-5.592Zm2.22-7.836h1.2V1.008h-1.2Zm-.348,2.844,1.032.336A13.97,13.97,0,0,1,358.062-4.5a13.308,13.308,0,0,1-1.692,2.1A10.449,10.449,0,0,1,354.4-.828a2.193,2.193,0,0,0-.234-.318q-.15-.174-.3-.342a2.564,2.564,0,0,0-.282-.276,8.976,8.976,0,0,0,1.446-1,11.414,11.414,0,0,0,1.326-1.314,11.562,11.562,0,0,0,1.122-1.548A11.326,11.326,0,0,0,358.308-7.284Zm1.908.036a11.706,11.706,0,0,0,1.194,2.142,11.218,11.218,0,0,0,1.65,1.878A8.8,8.8,0,0,0,365-1.872q-.132.12-.3.294a4.633,4.633,0,0,0-.318.366,3.876,3.876,0,0,0-.246.348,9.662,9.662,0,0,1-1.986-1.542,12.837,12.837,0,0,1-1.68-2.082A14.909,14.909,0,0,1,359.2-6.912ZM371.1-9.36h8.088V.828h-1.224V-8.208h-5.7V.876H371.1Zm.78,4.1h6.6v1.128h-6.6Zm-.012,4.2h6.624V.084h-6.624ZM382.4-7.692H392.94v1.164H382.4Zm2.424,5.4h5.592V-1.14h-5.592Zm2.22-7.836h1.2V1.008h-1.2ZM386.7-7.284l1.032.336A13.97,13.97,0,0,1,386.454-4.5a13.308,13.308,0,0,1-1.692,2.1,10.449,10.449,0,0,1-1.974,1.572,2.193,2.193,0,0,0-.234-.318q-.15-.174-.3-.342a2.564,2.564,0,0,0-.282-.276,8.976,8.976,0,0,0,1.446-1,11.414,11.414,0,0,0,1.326-1.314,11.562,11.562,0,0,0,1.122-1.548A11.326,11.326,0,0,0,386.7-7.284Zm1.908.036A11.706,11.706,0,0,0,389.8-5.106a11.218,11.218,0,0,0,1.65,1.878A8.8,8.8,0,0,0,393.4-1.872q-.132.12-.3.294a4.633,4.633,0,0,0-.318.366,3.876,3.876,0,0,0-.246.348,9.662,9.662,0,0,1-1.986-1.542,12.837,12.837,0,0,1-1.68-2.082,14.909,14.909,0,0,1-1.278-2.424ZM399.492-9.36h8.088V.828h-1.224V-8.208h-5.7V.876h-1.164Zm.78,4.1h6.6v1.128h-6.6Zm-.012,4.2h6.624V.084H400.26ZM410.8-7.692h10.536v1.164H410.8Zm2.424,5.4h5.592V-1.14H413.22Zm2.22-7.836h1.2V1.008h-1.2Zm-.348,2.844,1.032.336A13.97,13.97,0,0,1,414.846-4.5a13.308,13.308,0,0,1-1.692,2.1A10.449,10.449,0,0,1,411.18-.828a2.193,2.193,0,0,0-.234-.318q-.15-.174-.3-.342a2.564,2.564,0,0,0-.282-.276,8.976,8.976,0,0,0,1.446-1,11.414,11.414,0,0,0,1.326-1.314,11.562,11.562,0,0,0,1.122-1.548A11.326,11.326,0,0,0,415.092-7.284ZM417-7.248a11.706,11.706,0,0,0,1.194,2.142,11.218,11.218,0,0,0,1.65,1.878,8.8,8.8,0,0,0,1.944,1.356q-.132.12-.3.294a4.633,4.633,0,0,0-.318.366,3.876,3.876,0,0,0-.246.348,9.662,9.662,0,0,1-1.986-1.542,12.837,12.837,0,0,1-1.68-2.082,14.909,14.909,0,0,1-1.278-2.424ZM427.884-9.36h8.088V.828h-1.224V-8.208h-5.7V.876h-1.164Zm.78,4.1h6.6v1.128h-6.6Zm-.012,4.2h6.624V.084h-6.624Zm10.536-6.636h10.536v1.164H439.188Zm2.424,5.4H447.2V-1.14h-5.592Zm2.22-7.836h1.2V1.008h-1.2Zm-.348,2.844,1.032.336A13.97,13.97,0,0,1,443.238-4.5a13.308,13.308,0,0,1-1.692,2.1,10.449,10.449,0,0,1-1.974,1.572,2.193,2.193,0,0,0-.234-.318q-.15-.174-.3-.342a2.564,2.564,0,0,0-.282-.276,8.976,8.976,0,0,0,1.446-1,11.414,11.414,0,0,0,1.326-1.314,11.562,11.562,0,0,0,1.122-1.548A11.326,11.326,0,0,0,443.484-7.284Zm1.908.036a11.706,11.706,0,0,0,1.194,2.142,11.218,11.218,0,0,0,1.65,1.878,8.8,8.8,0,0,0,1.944,1.356q-.132.12-.3.294a4.633,4.633,0,0,0-.318.366,3.876,3.876,0,0,0-.246.348,9.662,9.662,0,0,1-1.986-1.542,12.837,12.837,0,0,1-1.68-2.082,14.909,14.909,0,0,1-1.278-2.424ZM456.276-9.36h8.088V.828H463.14V-8.208h-5.7V.876h-1.164Zm.78,4.1h6.6v1.128h-6.6Zm-.012,4.2h6.624V.084h-6.624ZM467.58-7.692h10.536v1.164H467.58ZM470-2.292H475.6V-1.14H470Zm2.22-7.836h1.2V1.008h-1.2Zm-.348,2.844,1.032.336A13.97,13.97,0,0,1,471.63-4.5a13.308,13.308,0,0,1-1.692,2.1,10.449,10.449,0,0,1-1.974,1.572,2.193,2.193,0,0,0-.234-.318q-.15-.174-.3-.342a2.564,2.564,0,0,0-.282-.276,8.976,8.976,0,0,0,1.446-1,11.414,11.414,0,0,0,1.326-1.314,11.562,11.562,0,0,0,1.122-1.548A11.326,11.326,0,0,0,471.876-7.284Zm1.908.036a11.706,11.706,0,0,0,1.194,2.142,11.218,11.218,0,0,0,1.65,1.878,8.8,8.8,0,0,0,1.944,1.356q-.132.12-.3.294a4.633,4.633,0,0,0-.318.366,3.876,3.876,0,0,0-.246.348,9.662,9.662,0,0,1-1.986-1.542,12.837,12.837,0,0,1-1.68-2.082,14.909,14.909,0,0,1-1.278-2.424ZM484.668-9.36h8.088V.828h-1.224V-8.208h-5.7V.876h-1.164Zm.78,4.1h6.6v1.128h-6.6Zm-.012,4.2h6.624V.084h-6.624Zm10.536-6.636h10.536v1.164H495.972Zm2.424,5.4h5.592V-1.14H498.4Zm2.22-7.836h1.2V1.008h-1.2Zm-.348,2.844,1.032.336A13.97,13.97,0,0,1,500.022-4.5a13.308,13.308,0,0,1-1.692,2.1,10.449,10.449,0,0,1-1.974,1.572,2.193,2.193,0,0,0-.234-.318q-.15-.174-.3-.342a2.564,2.564,0,0,0-.282-.276,8.976,8.976,0,0,0,1.446-1,11.414,11.414,0,0,0,1.326-1.314,11.562,11.562,0,0,0,1.122-1.548A11.326,11.326,0,0,0,500.268-7.284Zm1.908.036a11.706,11.706,0,0,0,1.194,2.142,11.218,11.218,0,0,0,1.65,1.878,8.8,8.8,0,0,0,1.944,1.356q-.132.12-.3.294a4.633,4.633,0,0,0-.318.366,3.876,3.876,0,0,0-.246.348,9.662,9.662,0,0,1-1.986-1.542,12.837,12.837,0,0,1-1.68-2.082,14.909,14.909,0,0,1-1.278-2.424ZM513.06-9.36h8.088V.828h-1.224V-8.208h-5.7V.876H513.06Zm.78,4.1h6.6v1.128h-6.6Zm-.012,4.2h6.624V.084h-6.624Zm10.536-6.636H534.9v1.164H524.364Zm2.424,5.4h5.592V-1.14h-5.592Zm2.22-7.836h1.2V1.008h-1.2Zm-.348,2.844,1.032.336A13.97,13.97,0,0,1,528.414-4.5a13.31,13.31,0,0,1-1.692,2.1,10.45,10.45,0,0,1-1.974,1.572,2.188,2.188,0,0,0-.234-.318q-.15-.174-.3-.342a2.569,2.569,0,0,0-.282-.276,8.974,8.974,0,0,0,1.446-1A11.407,11.407,0,0,0,526.7-4.074a11.557,11.557,0,0,0,1.122-1.548A11.329,11.329,0,0,0,528.66-7.284Zm1.908.036a11.708,11.708,0,0,0,1.194,2.142,11.213,11.213,0,0,0,1.65,1.878,8.8,8.8,0,0,0,1.944,1.356q-.132.12-.3.294a4.64,4.64,0,0,0-.318.366,3.888,3.888,0,0,0-.246.348,9.66,9.66,0,0,1-1.986-1.542,12.837,12.837,0,0,1-1.68-2.082,14.909,14.909,0,0,1-1.278-2.424ZM541.452-9.36h8.088V.828h-1.224V-8.208h-5.7V.876h-1.164Zm.78,4.1h6.6v1.128h-6.6Zm-.012,4.2h6.624V.084H542.22Zm10.536-6.636h10.536v1.164H552.756Zm2.424,5.4h5.592V-1.14H555.18Zm2.22-7.836h1.2V1.008h-1.2Zm-.348,2.844,1.032.336A13.974,13.974,0,0,1,556.806-4.5a13.31,13.31,0,0,1-1.692,2.1A10.45,10.45,0,0,1,553.14-.828a2.188,2.188,0,0,0-.234-.318q-.15-.174-.3-.342a2.569,2.569,0,0,0-.282-.276,8.974,8.974,0,0,0,1.446-1A11.407,11.407,0,0,0,555.1-4.074a11.557,11.557,0,0,0,1.122-1.548A11.329,11.329,0,0,0,557.052-7.284Zm1.908.036a11.708,11.708,0,0,0,1.194,2.142,11.213,11.213,0,0,0,1.65,1.878,8.8,8.8,0,0,0,1.944,1.356q-.132.12-.3.294a4.64,4.64,0,0,0-.318.366,3.888,3.888,0,0,0-.246.348A9.66,9.66,0,0,1,560.9-2.406a12.837,12.837,0,0,1-1.68-2.082,14.909,14.909,0,0,1-1.278-2.424ZM569.844-9.36h8.088V.828h-1.224V-8.208h-5.7V.876h-1.164Zm.78,4.1h6.6v1.128h-6.6Zm-.012,4.2h6.624V.084h-6.624Zm10.536-6.636h10.536v1.164H581.148Zm2.424,5.4h5.592V-1.14h-5.592Zm2.22-7.836h1.2V1.008h-1.2Zm-.348,2.844,1.032.336A13.974,13.974,0,0,1,585.2-4.5a13.31,13.31,0,0,1-1.692,2.1,10.45,10.45,0,0,1-1.974,1.572,2.188,2.188,0,0,0-.234-.318q-.15-.174-.3-.342a2.569,2.569,0,0,0-.282-.276,8.974,8.974,0,0,0,1.446-1,11.407,11.407,0,0,0,1.326-1.314,11.557,11.557,0,0,0,1.122-1.548A11.329,11.329,0,0,0,585.444-7.284Zm1.908.036a11.708,11.708,0,0,0,1.194,2.142,11.213,11.213,0,0,0,1.65,1.878,8.8,8.8,0,0,0,1.944,1.356q-.132.12-.3.294a4.64,4.64,0,0,0-.318.366,3.888,3.888,0,0,0-.246.348,9.66,9.66,0,0,1-1.986-1.542,12.837,12.837,0,0,1-1.68-2.082,14.909,14.909,0,0,1-1.278-2.424ZM598.236-9.36h8.088V.828H605.1V-8.208h-5.7V.876h-1.164Zm.78,4.1h6.6v1.128h-6.6ZM599-1.056h6.624V.084H599ZM609.54-7.692h10.536v1.164H609.54Zm2.424,5.4h5.592V-1.14h-5.592Zm2.22-7.836h1.2V1.008h-1.2Zm-.348,2.844,1.032.336A13.97,13.97,0,0,1,613.59-4.5,13.31,13.31,0,0,1,611.9-2.4a10.45,10.45,0,0,1-1.974,1.572,2.188,2.188,0,0,0-.234-.318q-.15-.174-.3-.342a2.569,2.569,0,0,0-.282-.276,8.974,8.974,0,0,0,1.446-1,11.407,11.407,0,0,0,1.326-1.314A11.557,11.557,0,0,0,613-5.622,11.329,11.329,0,0,0,613.836-7.284Zm1.908.036a11.708,11.708,0,0,0,1.194,2.142,11.213,11.213,0,0,0,1.65,1.878,8.8,8.8,0,0,0,1.944,1.356q-.132.12-.3.294a4.64,4.64,0,0,0-.318.366,3.888,3.888,0,0,0-.246.348,9.66,9.66,0,0,1-1.986-1.542A12.837,12.837,0,0,1,616-4.488a14.909,14.909,0,0,1-1.278-2.424ZM626.628-9.36h8.088V.828h-1.224V-8.208h-5.7V.876h-1.164Zm.78,4.1h6.6v1.128h-6.6Zm-.012,4.2h6.624V.084H627.4Zm10.536-6.636h10.536v1.164H637.932Zm2.424,5.4h5.592V-1.14h-5.592Zm2.22-7.836h1.2V1.008h-1.2Zm-.348,2.844,1.032.336A13.97,13.97,0,0,1,641.982-4.5a13.31,13.31,0,0,1-1.692,2.1,10.45,10.45,0,0,1-1.974,1.572,2.188,2.188,0,0,0-.234-.318q-.15-.174-.3-.342a2.569,2.569,0,0,0-.282-.276,8.974,8.974,0,0,0,1.446-1,11.407,11.407,0,0,0,1.326-1.314,11.557,11.557,0,0,0,1.122-1.548A11.329,11.329,0,0,0,642.228-7.284Zm1.908.036a11.708,11.708,0,0,0,1.194,2.142,11.213,11.213,0,0,0,1.65,1.878,8.8,8.8,0,0,0,1.944,1.356q-.132.12-.3.294a4.64,4.64,0,0,0-.318.366,3.888,3.888,0,0,0-.246.348,9.66,9.66,0,0,1-1.986-1.542,12.837,12.837,0,0,1-1.68-2.082,14.909,14.909,0,0,1-1.278-2.424ZM655.02-9.36h8.088V.828h-1.224V-8.208h-5.7V.876H655.02Zm.78,4.1h6.6v1.128h-6.6Zm-.012,4.2h6.624V.084h-6.624Zm10.536-6.636H676.86v1.164H666.324Zm2.424,5.4h5.592V-1.14h-5.592Zm2.22-7.836h1.2V1.008h-1.2Zm-.348,2.844,1.032.336A13.974,13.974,0,0,1,670.374-4.5a13.31,13.31,0,0,1-1.692,2.1,10.45,10.45,0,0,1-1.974,1.572,2.188,2.188,0,0,0-.234-.318q-.15-.174-.3-.342a2.569,2.569,0,0,0-.282-.276,8.974,8.974,0,0,0,1.446-1,11.407,11.407,0,0,0,1.326-1.314,11.557,11.557,0,0,0,1.122-1.548A11.329,11.329,0,0,0,670.62-7.284Zm1.908.036a11.708,11.708,0,0,0,1.194,2.142,11.213,11.213,0,0,0,1.65,1.878,8.8,8.8,0,0,0,1.944,1.356q-.132.12-.3.294a4.64,4.64,0,0,0-.318.366,3.888,3.888,0,0,0-.246.348,9.66,9.66,0,0,1-1.986-1.542,12.837,12.837,0,0,1-1.68-2.082,14.909,14.909,0,0,1-1.278-2.424ZM683.412-9.36H691.5V.828h-1.224V-8.208h-5.7V.876h-1.164Zm.78,4.1h6.6v1.128h-6.6Zm-.012,4.2H690.8V.084H684.18Zm10.536-6.636h10.536v1.164H694.716Zm2.424,5.4h5.592V-1.14H697.14Zm2.22-7.836h1.2V1.008h-1.2Zm-.348,2.844,1.032.336A13.974,13.974,0,0,1,698.766-4.5a13.31,13.31,0,0,1-1.692,2.1A10.45,10.45,0,0,1,695.1-.828a2.188,2.188,0,0,0-.234-.318q-.15-.174-.3-.342a2.569,2.569,0,0,0-.282-.276,8.974,8.974,0,0,0,1.446-1,11.407,11.407,0,0,0,1.326-1.314,11.557,11.557,0,0,0,1.122-1.548A11.329,11.329,0,0,0,699.012-7.284Zm1.908.036a11.708,11.708,0,0,0,1.194,2.142,11.213,11.213,0,0,0,1.65,1.878,8.8,8.8,0,0,0,1.944,1.356q-.132.12-.3.294a4.64,4.64,0,0,0-.318.366,3.888,3.888,0,0,0-.246.348,9.66,9.66,0,0,1-1.986-1.542,12.837,12.837,0,0,1-1.68-2.082A14.909,14.909,0,0,1,699.9-6.912ZM711.8-9.36h8.088V.828h-1.224V-8.208h-5.7V.876H711.8Zm.78,4.1h6.6v1.128h-6.6Zm-.012,4.2H719.2V.084h-6.624Zm10.536-6.636h10.536v1.164H723.108Zm2.424,5.4h5.592V-1.14h-5.592Zm2.22-7.836h1.2V1.008h-1.2ZM727.4-7.284l1.032.336A13.97,13.97,0,0,1,727.158-4.5a13.31,13.31,0,0,1-1.692,2.1,10.45,10.45,0,0,1-1.974,1.572,2.188,2.188,0,0,0-.234-.318q-.15-.174-.3-.342a2.569,2.569,0,0,0-.282-.276,8.974,8.974,0,0,0,1.446-1,11.407,11.407,0,0,0,1.326-1.314,11.557,11.557,0,0,0,1.122-1.548A11.329,11.329,0,0,0,727.4-7.284Zm1.908.036a11.708,11.708,0,0,0,1.194,2.142,11.213,11.213,0,0,0,1.65,1.878A8.8,8.8,0,0,0,734.1-1.872q-.132.12-.3.294a4.64,4.64,0,0,0-.318.366,3.888,3.888,0,0,0-.246.348,9.66,9.66,0,0,1-1.986-1.542,12.837,12.837,0,0,1-1.68-2.082,14.909,14.909,0,0,1-1.278-2.424ZM740.2-9.36h8.088V.828H747.06V-8.208h-5.7V.876H740.2Zm.78,4.1h6.6v1.128h-6.6Zm-.012,4.2h6.624V.084h-6.624ZM751.5-7.692h10.536v1.164H751.5Zm2.424,5.4h5.592V-1.14h-5.592Zm2.22-7.836h1.2V1.008h-1.2ZM755.8-7.284l1.032.336A13.97,13.97,0,0,1,755.55-4.5a13.31,13.31,0,0,1-1.692,2.1,10.45,10.45,0,0,1-1.974,1.572,2.188,2.188,0,0,0-.234-.318q-.15-.174-.3-.342a2.569,2.569,0,0,0-.282-.276,8.974,8.974,0,0,0,1.446-1,11.407,11.407,0,0,0,1.326-1.314,11.557,11.557,0,0,0,1.122-1.548A11.329,11.329,0,0,0,755.8-7.284Zm1.908.036A11.708,11.708,0,0,0,758.9-5.106a11.213,11.213,0,0,0,1.65,1.878,8.8,8.8,0,0,0,1.944,1.356q-.132.12-.3.294a4.64,4.64,0,0,0-.318.366,3.888,3.888,0,0,0-.246.348,9.66,9.66,0,0,1-1.986-1.542,12.837,12.837,0,0,1-1.68-2.082,14.909,14.909,0,0,1-1.278-2.424ZM768.588-9.36h8.088V.828h-1.224V-8.208h-5.7V.876h-1.164Zm.78,4.1h6.6v1.128h-6.6Zm-.012,4.2h6.624V.084h-6.624Zm10.536-6.636h10.536v1.164H779.892Zm2.424,5.4h5.592V-1.14h-5.592Zm2.22-7.836h1.2V1.008h-1.2Zm-.348,2.844,1.032.336A13.974,13.974,0,0,1,783.942-4.5a13.31,13.31,0,0,1-1.692,2.1,10.45,10.45,0,0,1-1.974,1.572,2.188,2.188,0,0,0-.234-.318q-.15-.174-.3-.342a2.569,2.569,0,0,0-.282-.276,8.974,8.974,0,0,0,1.446-1,11.407,11.407,0,0,0,1.326-1.314,11.557,11.557,0,0,0,1.122-1.548A11.329,11.329,0,0,0,784.188-7.284Zm1.908.036a11.708,11.708,0,0,0,1.194,2.142,11.213,11.213,0,0,0,1.65,1.878,8.8,8.8,0,0,0,1.944,1.356q-.132.12-.3.294a4.64,4.64,0,0,0-.318.366,3.888,3.888,0,0,0-.246.348,9.66,9.66,0,0,1-1.986-1.542,12.837,12.837,0,0,1-1.68-2.082,14.909,14.909,0,0,1-1.278-2.424ZM796.98-9.36h8.088V.828h-1.224V-8.208h-5.7V.876H796.98Zm.78,4.1h6.6v1.128h-6.6Zm-.012,4.2h6.624V.084h-6.624Zm10.536-6.636H818.82v1.164H808.284Zm2.424,5.4H816.3V-1.14h-5.592Zm2.22-7.836h1.2V1.008h-1.2Zm-.348,2.844,1.032.336A13.974,13.974,0,0,1,812.334-4.5a13.31,13.31,0,0,1-1.692,2.1,10.45,10.45,0,0,1-1.974,1.572,2.188,2.188,0,0,0-.234-.318q-.15-.174-.3-.342a2.569,2.569,0,0,0-.282-.276,8.974,8.974,0,0,0,1.446-1,11.407,11.407,0,0,0,1.326-1.314,11.557,11.557,0,0,0,1.122-1.548A11.329,11.329,0,0,0,812.58-7.284Zm1.908.036a11.708,11.708,0,0,0,1.194,2.142,11.213,11.213,0,0,0,1.65,1.878,8.8,8.8,0,0,0,1.944,1.356q-.132.12-.3.294a4.64,4.64,0,0,0-.318.366,3.888,3.888,0,0,0-.246.348,9.66,9.66,0,0,1-1.986-1.542,12.837,12.837,0,0,1-1.68-2.082,14.909,14.909,0,0,1-1.278-2.424ZM825.372-9.36h8.088V.828h-1.224V-8.208h-5.7V.876h-1.164Zm.78,4.1h6.6v1.128h-6.6Zm-.012,4.2h6.624V.084H826.14Zm10.536-6.636h10.536v1.164H836.676Zm2.424,5.4h5.592V-1.14H839.1Zm2.22-7.836h1.2V1.008h-1.2Zm-.348,2.844L842-6.948A13.97,13.97,0,0,1,840.726-4.5a13.31,13.31,0,0,1-1.692,2.1A10.45,10.45,0,0,1,837.06-.828a2.188,2.188,0,0,0-.234-.318q-.15-.174-.3-.342a2.569,2.569,0,0,0-.282-.276,8.974,8.974,0,0,0,1.446-1,11.407,11.407,0,0,0,1.326-1.314,11.557,11.557,0,0,0,1.122-1.548A11.329,11.329,0,0,0,840.972-7.284Zm1.908.036a11.708,11.708,0,0,0,1.194,2.142,11.213,11.213,0,0,0,1.65,1.878,8.8,8.8,0,0,0,1.944,1.356q-.132.12-.3.294a4.64,4.64,0,0,0-.318.366,3.888,3.888,0,0,0-.246.348,9.66,9.66,0,0,1-1.986-1.542,12.837,12.837,0,0,1-1.68-2.082,14.909,14.909,0,0,1-1.278-2.424ZM853.764-9.36h8.088V.828h-1.224V-8.208h-5.7V.876h-1.164Zm.78,4.1h6.6v1.128h-6.6Zm-.012,4.2h6.624V.084h-6.624Zm10.536-6.636H875.6v1.164H865.068Zm2.424,5.4h5.592V-1.14h-5.592Zm2.22-7.836h1.2V1.008h-1.2Zm-.348,2.844,1.032.336A13.97,13.97,0,0,1,869.118-4.5a13.31,13.31,0,0,1-1.692,2.1,10.45,10.45,0,0,1-1.974,1.572,2.188,2.188,0,0,0-.234-.318q-.15-.174-.3-.342a2.569,2.569,0,0,0-.282-.276,8.974,8.974,0,0,0,1.446-1,11.407,11.407,0,0,0,1.326-1.314,11.557,11.557,0,0,0,1.122-1.548A11.329,11.329,0,0,0,869.364-7.284Zm1.908.036a11.708,11.708,0,0,0,1.194,2.142,11.213,11.213,0,0,0,1.65,1.878,8.8,8.8,0,0,0,1.944,1.356q-.132.12-.3.294a4.64,4.64,0,0,0-.318.366,3.888,3.888,0,0,0-.246.348,9.66,9.66,0,0,1-1.986-1.542,12.837,12.837,0,0,1-1.68-2.082,14.909,14.909,0,0,1-1.278-2.424ZM882.156-9.36h8.088V.828H889.02V-8.208h-5.7V.876h-1.164Zm.78,4.1h6.6v1.128h-6.6Zm-.012,4.2h6.624V.084h-6.624ZM893.46-7.692H904v1.164H893.46Zm2.424,5.4h5.592V-1.14h-5.592Zm2.22-7.836h1.2V1.008h-1.2Zm-.348,2.844,1.032.336A13.974,13.974,0,0,1,897.51-4.5a13.31,13.31,0,0,1-1.692,2.1,10.45,10.45,0,0,1-1.974,1.572,2.188,2.188,0,0,0-.234-.318q-.15-.174-.3-.342a2.569,2.569,0,0,0-.282-.276,8.974,8.974,0,0,0,1.446-1A11.407,11.407,0,0,0,895.8-4.074a11.557,11.557,0,0,0,1.122-1.548A11.329,11.329,0,0,0,897.756-7.284Zm1.908.036a11.708,11.708,0,0,0,1.194,2.142,11.213,11.213,0,0,0,1.65,1.878,8.8,8.8,0,0,0,1.944,1.356q-.132.12-.3.294a4.64,4.64,0,0,0-.318.366,3.888,3.888,0,0,0-.246.348A9.66,9.66,0,0,1,901.6-2.406a12.837,12.837,0,0,1-1.68-2.082,14.909,14.909,0,0,1-1.278-2.424ZM910.548-9.36h8.088V.828h-1.224V-8.208h-5.7V.876h-1.164Zm.78,4.1h6.6v1.128h-6.6Zm-.012,4.2h6.624V.084h-6.624Zm10.536-6.636h10.536v1.164H921.852Zm2.424,5.4h5.592V-1.14h-5.592Zm2.22-7.836h1.2V1.008h-1.2Zm-.348,2.844,1.032.336A13.974,13.974,0,0,1,925.9-4.5a13.31,13.31,0,0,1-1.692,2.1,10.45,10.45,0,0,1-1.974,1.572A2.188,2.188,0,0,0,922-1.146q-.15-.174-.3-.342a2.569,2.569,0,0,0-.282-.276,8.974,8.974,0,0,0,1.446-1,11.407,11.407,0,0,0,1.326-1.314,11.557,11.557,0,0,0,1.122-1.548A11.329,11.329,0,0,0,926.148-7.284Zm1.908.036a11.708,11.708,0,0,0,1.194,2.142,11.213,11.213,0,0,0,1.65,1.878,8.8,8.8,0,0,0,1.944,1.356q-.132.12-.3.294a4.64,4.64,0,0,0-.318.366,3.888,3.888,0,0,0-.246.348,9.66,9.66,0,0,1-1.986-1.542,12.837,12.837,0,0,1-1.68-2.082,14.909,14.909,0,0,1-1.278-2.424ZM938.94-9.36h8.088V.828H945.8V-8.208h-5.7V.876H938.94Zm.78,4.1h6.6v1.128h-6.6Zm-.012,4.2h6.624V.084h-6.624Zm10.536-6.636H960.78v1.164H950.244Zm2.424,5.4h5.592V-1.14h-5.592Zm2.22-7.836h1.2V1.008h-1.2Zm-.348,2.844,1.032.336A13.97,13.97,0,0,1,954.294-4.5,13.31,13.31,0,0,1,952.6-2.4a10.45,10.45,0,0,1-1.974,1.572,2.188,2.188,0,0,0-.234-.318q-.15-.174-.3-.342a2.569,2.569,0,0,0-.282-.276,8.974,8.974,0,0,0,1.446-1,11.407,11.407,0,0,0,1.326-1.314,11.557,11.557,0,0,0,1.122-1.548A11.329,11.329,0,0,0,954.54-7.284Zm1.908.036a11.708,11.708,0,0,0,1.194,2.142,11.213,11.213,0,0,0,1.65,1.878,8.8,8.8,0,0,0,1.944,1.356q-.132.12-.3.294a4.64,4.64,0,0,0-.318.366,3.888,3.888,0,0,0-.246.348,9.66,9.66,0,0,1-1.986-1.542,12.837,12.837,0,0,1-1.68-2.082,14.909,14.909,0,0,1-1.278-2.424ZM967.332-9.36h8.088V.828H974.2V-8.208h-5.7V.876h-1.164Zm.78,4.1h6.6v1.128h-6.6Zm-.012,4.2h6.624V.084H968.1Zm10.536-6.636h10.536v1.164H978.636Zm2.424,5.4h5.592V-1.14H981.06Zm2.22-7.836h1.2V1.008h-1.2Zm-.348,2.844,1.032.336A13.974,13.974,0,0,1,982.686-4.5a13.31,13.31,0,0,1-1.692,2.1A10.45,10.45,0,0,1,979.02-.828a2.188,2.188,0,0,0-.234-.318q-.15-.174-.3-.342a2.569,2.569,0,0,0-.282-.276,8.974,8.974,0,0,0,1.446-1,11.407,11.407,0,0,0,1.326-1.314A11.557,11.557,0,0,0,982.1-5.622,11.329,11.329,0,0,0,982.932-7.284Zm1.908.036a11.708,11.708,0,0,0,1.194,2.142,11.213,11.213,0,0,0,1.65,1.878,8.8,8.8,0,0,0,1.944,1.356q-.132.12-.3.294a4.64,4.64,0,0,0-.318.366,3.888,3.888,0,0,0-.246.348,9.66,9.66,0,0,1-1.986-1.542,12.837,12.837,0,0,1-1.68-2.082,14.909,14.909,0,0,1-1.278-2.424ZM995.724-9.36h8.088V.828h-1.224V-8.208h-5.7V.876h-1.164Zm.78,4.1h6.6v1.128h-6.6Zm-.012,4.2h6.624V.084h-6.624Zm10.536-6.636h10.536v1.164h-10.536Zm2.424,5.4h5.592V-1.14h-5.592Zm2.22-7.836h1.2V1.008h-1.2Zm-.348,2.844,1.032.336a13.974,13.974,0,0,1-1.278,2.448,13.31,13.31,0,0,1-1.692,2.1,10.45,10.45,0,0,1-1.974,1.572,2.188,2.188,0,0,0-.234-.318q-.15-.174-.3-.342a2.569,2.569,0,0,0-.282-.276,8.974,8.974,0,0,0,1.446-1,11.407,11.407,0,0,0,1.326-1.314,11.557,11.557,0,0,0,1.122-1.548A11.329,11.329,0,0,0,1011.324-7.284Zm1.908.036a11.708,11.708,0,0,0,1.194,2.142,11.213,11.213,0,0,0,1.65,1.878,8.8,8.8,0,0,0,1.944,1.356q-.132.12-.3.294a4.64,4.64,0,0,0-.318.366,3.888,3.888,0,0,0-.246.348,9.66,9.66,0,0,1-1.986-1.542,12.837,12.837,0,0,1-1.68-2.082,14.909,14.909,0,0,1-1.278-2.424Zm10.884-2.112h8.088V.828h-1.224V-8.208h-5.7V.876h-1.164Zm.78,4.1h6.6v1.128h-6.6Zm-.012,4.2h6.624V.084h-6.624Zm10.536-6.636h10.536v1.164H1035.42Zm2.424,5.4h5.592V-1.14h-5.592Zm2.22-7.836h1.2V1.008h-1.2Zm-.348,2.844,1.032.336A13.966,13.966,0,0,1,1039.47-4.5a13.306,13.306,0,0,1-1.692,2.1A10.452,10.452,0,0,1,1035.8-.828a2.2,2.2,0,0,0-.234-.318q-.15-.174-.3-.342a2.558,2.558,0,0,0-.282-.276,8.979,8.979,0,0,0,1.446-1,11.421,11.421,0,0,0,1.326-1.314,11.562,11.562,0,0,0,1.122-1.548A11.335,11.335,0,0,0,1039.716-7.284Zm1.908.036a11.708,11.708,0,0,0,1.194,2.142,11.219,11.219,0,0,0,1.65,1.878,8.793,8.793,0,0,0,1.944,1.356q-.132.12-.3.294a4.614,4.614,0,0,0-.318.366,3.9,3.9,0,0,0-.246.348,9.662,9.662,0,0,1-1.986-1.542,12.837,12.837,0,0,1-1.68-2.082,14.915,14.915,0,0,1-1.278-2.424Zm10.884-2.112h8.088V.828h-1.224V-8.208h-5.7V.876h-1.164Zm.78,4.1h6.6v1.128h-6.6Zm-.012,4.2h6.624V.084h-6.624Zm10.536-6.636h10.536v1.164h-10.536Zm2.424,5.4h5.592V-1.14h-5.592Zm2.22-7.836h1.2V1.008h-1.2Zm-.348,2.844,1.032.336a13.966,13.966,0,0,1-1.278,2.448,13.306,13.306,0,0,1-1.692,2.1A10.452,10.452,0,0,1,1064.2-.828a2.2,2.2,0,0,0-.234-.318q-.15-.174-.3-.342a2.558,2.558,0,0,0-.282-.276,8.979,8.979,0,0,0,1.446-1,11.421,11.421,0,0,0,1.326-1.314,11.562,11.562,0,0,0,1.122-1.548A11.335,11.335,0,0,0,1068.108-7.284Zm1.908.036a11.708,11.708,0,0,0,1.194,2.142,11.219,11.219,0,0,0,1.65,1.878,8.793,8.793,0,0,0,1.944,1.356q-.132.12-.3.294a4.614,4.614,0,0,0-.318.366,3.9,3.9,0,0,0-.246.348,9.662,9.662,0,0,1-1.986-1.542,12.837,12.837,0,0,1-1.68-2.082A14.915,14.915,0,0,1,1069-6.912ZM1080.9-9.36h8.088V.828h-1.224V-8.208h-5.7V.876H1080.9Zm.78,4.1h6.6v1.128h-6.6Zm-.012,4.2h6.624V.084h-6.624ZM1092.2-7.692h10.536v1.164H1092.2Zm2.424,5.4h5.592V-1.14h-5.592Zm2.22-7.836h1.2V1.008h-1.2Zm-.348,2.844,1.032.336a13.966,13.966,0,0,1-1.278,2.448,13.306,13.306,0,0,1-1.692,2.1,10.452,10.452,0,0,1-1.974,1.572,2.2,2.2,0,0,0-.234-.318q-.15-.174-.3-.342a2.558,2.558,0,0,0-.282-.276,8.979,8.979,0,0,0,1.446-1,11.421,11.421,0,0,0,1.326-1.314,11.562,11.562,0,0,0,1.122-1.548A11.335,11.335,0,0,0,1096.5-7.284Zm1.908.036a11.708,11.708,0,0,0,1.194,2.142,11.219,11.219,0,0,0,1.65,1.878,8.793,8.793,0,0,0,1.944,1.356q-.132.12-.3.294a4.614,4.614,0,0,0-.318.366,3.9,3.9,0,0,0-.246.348,9.662,9.662,0,0,1-1.986-1.542,12.837,12.837,0,0,1-1.68-2.082,14.915,14.915,0,0,1-1.278-2.424Zm10.884-2.112h8.088V.828h-1.224V-8.208h-5.7V.876h-1.164Zm.78,4.1h6.6v1.128h-6.6Zm-.012,4.2h6.624V.084h-6.624ZM1120.6-7.692h10.536v1.164H1120.6Zm2.424,5.4h5.592V-1.14h-5.592Zm2.22-7.836h1.2V1.008h-1.2Zm-.348,2.844,1.032.336a13.966,13.966,0,0,1-1.278,2.448,13.306,13.306,0,0,1-1.692,2.1,10.452,10.452,0,0,1-1.974,1.572,2.2,2.2,0,0,0-.234-.318q-.15-.174-.3-.342a2.558,2.558,0,0,0-.282-.276,8.979,8.979,0,0,0,1.446-1,11.421,11.421,0,0,0,1.326-1.314,11.562,11.562,0,0,0,1.122-1.548A11.335,11.335,0,0,0,1124.892-7.284Zm1.908.036a11.708,11.708,0,0,0,1.194,2.142,11.219,11.219,0,0,0,1.65,1.878,8.793,8.793,0,0,0,1.944,1.356q-.132.12-.3.294a4.614,4.614,0,0,0-.318.366,3.9,3.9,0,0,0-.246.348,9.662,9.662,0,0,1-1.986-1.542,12.837,12.837,0,0,1-1.68-2.082,14.915,14.915,0,0,1-1.278-2.424Zm10.884-2.112h8.088V.828h-1.224V-8.208h-5.7V.876h-1.164Zm.78,4.1h6.6v1.128h-6.6Zm-.012,4.2h6.624V.084h-6.624Zm10.536-6.636h10.536v1.164h-10.536Zm2.424,5.4H1157V-1.14h-5.592Zm2.22-7.836h1.2V1.008h-1.2Zm-.348,2.844,1.032.336a13.966,13.966,0,0,1-1.278,2.448,13.306,13.306,0,0,1-1.692,2.1,10.452,10.452,0,0,1-1.974,1.572,2.2,2.2,0,0,0-.234-.318q-.15-.174-.3-.342a2.558,2.558,0,0,0-.282-.276,8.979,8.979,0,0,0,1.446-1,11.421,11.421,0,0,0,1.326-1.314,11.562,11.562,0,0,0,1.122-1.548A11.335,11.335,0,0,0,1153.284-7.284Zm1.908.036a11.708,11.708,0,0,0,1.194,2.142,11.219,11.219,0,0,0,1.65,1.878,8.793,8.793,0,0,0,1.944,1.356q-.132.12-.3.294a4.614,4.614,0,0,0-.318.366,3.9,3.9,0,0,0-.246.348,9.662,9.662,0,0,1-1.986-1.542,12.837,12.837,0,0,1-1.68-2.082,14.915,14.915,0,0,1-1.278-2.424Zm10.884-2.112h8.088V.828h-1.224V-8.208h-5.7V.876h-1.164Zm.78,4.1h6.6v1.128h-6.6Zm-.012,4.2h6.624V.084h-6.624Zm10.536-6.636h10.536v1.164H1177.38Zm2.424,5.4h5.592V-1.14H1179.8Zm2.22-7.836h1.2V1.008h-1.2Zm-.348,2.844,1.032.336A13.966,13.966,0,0,1,1181.43-4.5a13.306,13.306,0,0,1-1.692,2.1,10.452,10.452,0,0,1-1.974,1.572,2.2,2.2,0,0,0-.234-.318q-.15-.174-.3-.342a2.558,2.558,0,0,0-.282-.276,8.979,8.979,0,0,0,1.446-1,11.421,11.421,0,0,0,1.326-1.314,11.562,11.562,0,0,0,1.122-1.548A11.335,11.335,0,0,0,1181.676-7.284Zm1.908.036a11.708,11.708,0,0,0,1.194,2.142,11.219,11.219,0,0,0,1.65,1.878,8.793,8.793,0,0,0,1.944,1.356q-.132.12-.3.294a4.614,4.614,0,0,0-.318.366,3.9,3.9,0,0,0-.246.348,9.662,9.662,0,0,1-1.986-1.542,12.837,12.837,0,0,1-1.68-2.082,14.915,14.915,0,0,1-1.278-2.424Zm10.884-2.112h8.088V.828h-1.224V-8.208h-5.7V.876h-1.164Zm.78,4.1h6.6v1.128h-6.6Zm-.012,4.2h6.624V.084h-6.624Zm10.536-6.636h10.536v1.164h-10.536Zm2.424,5.4h5.592V-1.14H1208.2Zm2.22-7.836h1.2V1.008h-1.2Zm-.348,2.844,1.032.336a13.966,13.966,0,0,1-1.278,2.448,13.306,13.306,0,0,1-1.692,2.1,10.452,10.452,0,0,1-1.974,1.572,2.2,2.2,0,0,0-.234-.318q-.15-.174-.3-.342a2.558,2.558,0,0,0-.282-.276,8.979,8.979,0,0,0,1.446-1,11.421,11.421,0,0,0,1.326-1.314,11.562,11.562,0,0,0,1.122-1.548A11.335,11.335,0,0,0,1210.068-7.284Zm1.908.036a11.708,11.708,0,0,0,1.194,2.142,11.219,11.219,0,0,0,1.65,1.878,8.793,8.793,0,0,0,1.944,1.356q-.132.12-.3.294a4.614,4.614,0,0,0-.318.366,3.9,3.9,0,0,0-.246.348,9.662,9.662,0,0,1-1.986-1.542,12.837,12.837,0,0,1-1.68-2.082,14.915,14.915,0,0,1-1.278-2.424ZM1222.86-9.36h8.088V.828h-1.224V-8.208h-5.7V.876h-1.164Zm.78,4.1h6.6v1.128h-6.6Zm-.012,4.2h6.624V.084h-6.624Zm10.536-6.636H1244.7v1.164h-10.536Zm2.424,5.4h5.592V-1.14h-5.592Zm2.22-7.836h1.2V1.008h-1.2Zm-.348,2.844,1.032.336a13.966,13.966,0,0,1-1.278,2.448,13.306,13.306,0,0,1-1.692,2.1,10.452,10.452,0,0,1-1.974,1.572,2.2,2.2,0,0,0-.234-.318q-.15-.174-.3-.342a2.558,2.558,0,0,0-.282-.276,8.979,8.979,0,0,0,1.446-1,11.421,11.421,0,0,0,1.326-1.314,11.562,11.562,0,0,0,1.122-1.548A11.335,11.335,0,0,0,1238.46-7.284Zm1.908.036a11.708,11.708,0,0,0,1.194,2.142,11.219,11.219,0,0,0,1.65,1.878,8.793,8.793,0,0,0,1.944,1.356q-.132.12-.3.294a4.614,4.614,0,0,0-.318.366,3.9,3.9,0,0,0-.246.348,9.662,9.662,0,0,1-1.986-1.542,12.837,12.837,0,0,1-1.68-2.082,14.915,14.915,0,0,1-1.278-2.424Zm10.884-2.112h8.088V.828h-1.224V-8.208h-5.7V.876h-1.164Zm.78,4.1h6.6v1.128h-6.6Zm-.012,4.2h6.624V.084h-6.624Zm10.536-6.636h10.536v1.164h-10.536Zm2.424,5.4h5.592V-1.14h-5.592Zm2.22-7.836h1.2V1.008h-1.2Zm-.348,2.844,1.032.336a13.966,13.966,0,0,1-1.278,2.448,13.306,13.306,0,0,1-1.692,2.1,10.452,10.452,0,0,1-1.974,1.572,2.2,2.2,0,0,0-.234-.318q-.15-.174-.3-.342a2.558,2.558,0,0,0-.282-.276,8.979,8.979,0,0,0,1.446-1,11.421,11.421,0,0,0,1.326-1.314,11.562,11.562,0,0,0,1.122-1.548A11.335,11.335,0,0,0,1266.852-7.284Zm1.908.036a11.708,11.708,0,0,0,1.194,2.142,11.219,11.219,0,0,0,1.65,1.878,8.793,8.793,0,0,0,1.944,1.356q-.132.12-.3.294a4.614,4.614,0,0,0-.318.366,3.9,3.9,0,0,0-.246.348,9.662,9.662,0,0,1-1.986-1.542,12.837,12.837,0,0,1-1.68-2.082,14.915,14.915,0,0,1-1.278-2.424Zm10.884-2.112h8.088V.828h-1.224V-8.208h-5.7V.876h-1.164Zm.78,4.1h6.6v1.128h-6.6Zm-.012,4.2h6.624V.084h-6.624Zm10.536-6.636h10.536v1.164h-10.536Zm2.424,5.4h5.592V-1.14h-5.592Zm2.22-7.836h1.2V1.008h-1.2Zm-.348,2.844,1.032.336A13.966,13.966,0,0,1,1295-4.5a13.306,13.306,0,0,1-1.692,2.1,10.452,10.452,0,0,1-1.974,1.572,2.2,2.2,0,0,0-.234-.318q-.15-.174-.3-.342a2.558,2.558,0,0,0-.282-.276,8.979,8.979,0,0,0,1.446-1,11.421,11.421,0,0,0,1.326-1.314,11.562,11.562,0,0,0,1.122-1.548A11.335,11.335,0,0,0,1295.244-7.284Zm1.908.036a11.708,11.708,0,0,0,1.194,2.142A11.219,11.219,0,0,0,1300-3.228a8.793,8.793,0,0,0,1.944,1.356q-.132.12-.3.294a4.614,4.614,0,0,0-.318.366,3.9,3.9,0,0,0-.246.348,9.662,9.662,0,0,1-1.986-1.542,12.837,12.837,0,0,1-1.68-2.082,14.915,14.915,0,0,1-1.278-2.424Zm10.884-2.112h8.088V.828H1314.9V-8.208h-5.7V.876h-1.164Zm.78,4.1h6.6v1.128h-6.6Zm-.012,4.2h6.624V.084H1308.8Zm10.536-6.636h10.536v1.164H1319.34Zm2.424,5.4h5.592V-1.14h-5.592Zm2.22-7.836h1.2V1.008h-1.2Zm-.348,2.844,1.032.336A13.966,13.966,0,0,1,1323.39-4.5a13.306,13.306,0,0,1-1.692,2.1,10.452,10.452,0,0,1-1.974,1.572,2.2,2.2,0,0,0-.234-.318q-.15-.174-.3-.342a2.558,2.558,0,0,0-.282-.276,8.979,8.979,0,0,0,1.446-1,11.421,11.421,0,0,0,1.326-1.314,11.562,11.562,0,0,0,1.122-1.548A11.335,11.335,0,0,0,1323.636-7.284Zm1.908.036a11.708,11.708,0,0,0,1.194,2.142,11.219,11.219,0,0,0,1.65,1.878,8.793,8.793,0,0,0,1.944,1.356q-.132.12-.3.294a4.614,4.614,0,0,0-.318.366,3.9,3.9,0,0,0-.246.348,9.662,9.662,0,0,1-1.986-1.542,12.837,12.837,0,0,1-1.68-2.082,14.915,14.915,0,0,1-1.278-2.424Zm10.884-2.112h8.088V.828h-1.224V-8.208h-5.7V.876h-1.164Zm.78,4.1h6.6v1.128h-6.6Zm-.012,4.2h6.624V.084H1337.2Zm10.536-6.636h10.536v1.164h-10.536Zm2.424,5.4h5.592V-1.14h-5.592Zm2.22-7.836h1.2V1.008h-1.2Zm-.348,2.844,1.032.336a13.966,13.966,0,0,1-1.278,2.448,13.306,13.306,0,0,1-1.692,2.1,10.452,10.452,0,0,1-1.974,1.572,2.2,2.2,0,0,0-.234-.318q-.15-.174-.3-.342a2.558,2.558,0,0,0-.282-.276,8.979,8.979,0,0,0,1.446-1,11.421,11.421,0,0,0,1.326-1.314,11.562,11.562,0,0,0,1.122-1.548A11.335,11.335,0,0,0,1352.028-7.284Zm1.908.036a11.708,11.708,0,0,0,1.194,2.142,11.219,11.219,0,0,0,1.65,1.878,8.793,8.793,0,0,0,1.944,1.356q-.132.12-.3.294a4.614,4.614,0,0,0-.318.366,3.9,3.9,0,0,0-.246.348,9.662,9.662,0,0,1-1.986-1.542,12.837,12.837,0,0,1-1.68-2.082,14.915,14.915,0,0,1-1.278-2.424Z" transform="translate(4 -1) rotate(90)"/>
  </g>
</svg>
